<svg width="97" height="165" viewBox="0 0 97 165" fill="none" xmlns="http://www.w3.org/2000/svg">
<path opacity="0.7" d="M8.31723 10.6936H2.43889V6.56623H8.00455V5.44059H2.43889V1.46958H8.31723V0.375213H1.12564V11.7879H8.31723V10.6936ZM16.3218 3.72086L14.008 6.6913L11.6629 3.72086H10.0995L13.2575 7.62933L9.91188 11.7879H11.4753L14.008 8.6299L16.5406 11.7879H18.104L14.7897 7.62933L17.9164 3.72086H16.3218ZM27.1404 7.75441C27.1404 5.25298 25.7021 3.53326 23.5446 3.53326C22.2314 3.53326 21.2308 4.18988 20.7618 5.28425L20.6367 3.72086H19.4173C19.4798 4.40875 19.5424 5.15918 19.5424 6.00341V15.2587H20.8243V10.2871C21.3246 11.3189 22.2939 11.913 23.5446 11.913C25.7021 11.913 27.1404 10.2558 27.1404 7.75441ZM25.7959 7.75441C25.7959 9.72428 24.8891 10.8186 23.3258 10.8186C21.7311 10.8186 20.8243 9.69301 20.8243 7.72314C20.8243 5.722 21.7311 4.62763 23.3258 4.62763C24.8579 4.62763 25.7959 5.78454 25.7959 7.75441ZM30.7987 0H29.5168V11.7879H30.7987V0ZM32.8312 7.72314C32.8312 10.2558 34.332 11.913 36.6146 11.913C38.9284 11.913 40.4292 10.2558 40.4292 7.72314C40.4292 5.19045 38.9284 3.53326 36.6146 3.53326C34.332 3.53326 32.8312 5.19045 32.8312 7.72314ZM39.116 7.72314C39.116 9.75554 38.2405 10.8186 36.6146 10.8186C35.0199 10.8186 34.1444 9.75554 34.1444 7.72314C34.1444 5.75327 35.0512 4.62763 36.6146 4.62763C38.1779 4.62763 39.116 5.75327 39.116 7.72314ZM46.9329 3.62706C46.714 3.56453 46.4639 3.53326 46.2138 3.53326C45.0569 3.53326 44.0875 4.12735 43.6811 5.22172L43.556 3.72086H42.3366C42.3991 4.40875 42.4616 5.15918 42.4616 6.00341V11.7879H43.7436V7.19159C43.7436 6.5037 43.9625 5.90961 44.3064 5.44059C44.7129 4.94031 45.2757 4.69016 46.0574 4.69016C46.3701 4.69016 46.6828 4.7527 46.9016 4.81524L46.9329 3.62706ZM56.0318 7.473C56.0318 5.03411 54.7499 3.53326 52.6236 3.53326C50.4036 3.53326 48.8403 5.25298 48.8403 7.72314C48.8403 10.3184 50.3411 11.913 52.8738 11.913C53.9994 11.913 55.1876 11.4753 55.9068 10.8186L55.469 9.88061C54.6873 10.506 53.8118 10.8186 52.8738 10.8186C51.0915 10.8186 50.1535 9.75554 50.1535 7.72314H56.0318V7.473ZM50.1848 6.87891C50.4349 5.40932 51.2791 4.56509 52.6236 4.56509C53.9682 4.56509 54.7499 5.34679 54.8749 6.87891H50.1848Z" fill="#964ECE"/>
<path opacity="0.7" d="M6.15975 39.3974H5.00284L0 50.8101H1.37578L2.62649 47.8709H8.59864L9.84935 50.8101H11.1939L6.15975 39.3974ZM8.12962 46.7766H3.09551L5.59693 40.9295L8.12962 46.7766ZM17.1973 42.6492C16.9784 42.5867 16.7283 42.5554 16.4781 42.5554C15.3212 42.5554 14.3519 43.1495 13.9454 44.2439L13.8204 42.743H12.6009C12.6634 43.4309 12.726 44.1814 12.726 45.0256V50.8101H14.008V46.2138C14.008 45.5259 14.2268 44.9318 14.5708 44.4628C14.9773 43.9625 15.5401 43.7123 16.3218 43.7123C16.6345 43.7123 16.9471 43.7749 17.166 43.8374L17.1973 42.6492ZM23.6072 42.743H21.2933V40.2416L20.0114 40.6794V42.743H18.448V43.7749H20.0114V48.3712C20.0114 50.0284 20.9181 50.9352 22.4503 50.9352C22.8567 50.9352 23.2319 50.8727 23.5759 50.7476V49.6532C23.2945 49.747 23.0131 49.8096 22.7004 49.8096C21.8249 49.8096 21.2933 49.3718 21.2933 48.1836V43.7749H23.6072V42.743Z" fill="white"/>
<path opacity="0.7" d="M2.22001 115.441H1.12564V126.853H2.34508L2.31381 118.442L6.06595 126.853H6.97271L10.6936 118.38V126.853H11.913V115.441H10.8186L6.53496 125.29L2.22001 115.441ZM20.0114 123.351C20.0114 124.883 19.0421 125.884 17.635 125.884C16.4156 125.884 15.8215 125.227 15.8215 123.758V118.786H14.5082V123.789C14.5082 125.884 15.5088 126.978 17.4161 126.978C18.5731 126.978 19.5424 126.447 20.0426 125.446V126.853H21.2933V118.786H20.0114V123.351ZM23.2319 125.915C24.0136 126.603 25.0767 126.978 26.4525 126.978C28.3911 126.978 29.6106 126.072 29.6106 124.665C29.6106 123.539 28.8914 122.851 27.3906 122.476L26.046 122.132C25.1706 121.944 24.7953 121.569 24.7953 120.912C24.7953 120.131 25.452 119.662 26.6089 119.662C27.4531 119.662 28.2661 119.974 29.0165 120.6L29.4542 119.662C28.7663 118.974 27.7345 118.599 26.6089 118.599C24.7328 118.599 23.5134 119.599 23.5134 121.006C23.5134 122.069 24.2638 122.851 25.6083 123.164L26.9841 123.476C27.9534 123.727 28.3599 124.07 28.3599 124.696C28.3599 125.478 27.7032 125.915 26.5151 125.915C25.3894 125.915 24.5452 125.665 23.6697 124.977L23.2319 125.915ZM33.05 116.848V115.378H31.4866V116.848H33.05ZM32.8937 118.786H31.6117V126.853H32.8937V118.786ZM34.9574 122.82C34.9574 125.321 36.4582 126.978 38.8033 126.978C39.8977 126.978 41.0233 126.572 41.7112 125.915L41.2735 124.977C40.4605 125.603 39.7101 125.884 38.9284 125.884C37.2712 125.884 36.3019 124.758 36.3019 122.82C36.3019 120.85 37.2712 119.693 38.9284 119.693C39.7101 119.693 40.4605 119.974 41.2735 120.631L41.7112 119.662C41.0546 119.005 39.9602 118.599 38.8658 118.599C36.4895 118.599 34.9574 120.318 34.9574 122.82Z" fill="white"/>
<path opacity="0.7" d="M2.43889 88.8317V83.8289H5.65947C8.00455 83.8289 9.4116 82.6094 9.4116 80.6083C9.4116 78.6384 8.03582 77.419 5.65947 77.419H1.12564V88.8317H2.43889ZM2.43889 78.5134H5.56566C7.25412 78.5134 8.09835 79.2638 8.09835 80.6083C8.09835 81.9841 7.25412 82.7345 5.56566 82.7345H2.43889V78.5134ZM18.9795 83.7663C18.9795 81.6401 18.0102 80.577 16.0716 80.577C14.8835 80.577 13.8829 81.1086 13.3513 82.0779V77.0438H12.0694V88.8317H13.3513V84.2354C13.3513 82.672 14.3519 81.6714 15.8215 81.6714C17.1035 81.6714 17.6976 82.3593 17.6976 83.8289V88.8317H18.9795V83.7663ZM21.0119 84.7669C21.0119 87.2996 22.5128 88.9568 24.7953 88.9568C27.1092 88.9568 28.61 87.2996 28.61 84.7669C28.61 82.2342 27.1092 80.577 24.7953 80.577C22.5128 80.577 21.0119 82.2342 21.0119 84.7669ZM27.2968 84.7669C27.2968 86.7993 26.4213 87.8624 24.7953 87.8624C23.2007 87.8624 22.3252 86.7993 22.3252 84.7669C22.3252 82.797 23.2319 81.6714 24.7953 81.6714C26.3587 81.6714 27.2968 82.797 27.2968 84.7669ZM34.676 80.7646H32.3621V78.2632L31.0802 78.701V80.7646H29.5168V81.7965H31.0802V86.3928C31.0802 88.05 31.9869 88.9568 33.519 88.9568C33.9255 88.9568 34.3007 88.8943 34.6447 88.7692V87.6748C34.3633 87.7686 34.0819 87.8312 33.7692 87.8312C32.8937 87.8312 32.3621 87.3934 32.3621 86.2052V81.7965H34.676V80.7646ZM35.5827 84.7669C35.5827 87.2996 37.0836 88.9568 39.3661 88.9568C41.6799 88.9568 43.1808 87.2996 43.1808 84.7669C43.1808 82.2342 41.6799 80.577 39.3661 80.577C37.0836 80.577 35.5827 82.2342 35.5827 84.7669ZM41.8675 84.7669C41.8675 86.7993 40.992 87.8624 39.3661 87.8624C37.7715 87.8624 36.896 86.7993 36.896 84.7669C36.896 82.797 37.8027 81.6714 39.3661 81.6714C40.9295 81.6714 41.8675 82.797 41.8675 84.7669ZM51.0915 82.1717C50.5912 81.1711 49.6219 80.577 48.34 80.577C46.1825 80.577 44.7442 82.203 44.7442 84.5793C44.7442 86.9869 46.1825 88.5816 48.34 88.5816C49.6219 88.5816 50.5912 87.9875 51.0915 86.9869V88.8943C51.0915 90.4889 50.3098 91.3331 48.7464 91.3331C47.6521 91.3331 46.8391 91.083 45.8073 90.5202L45.5884 91.5833C46.4639 92.1148 47.527 92.3962 48.7464 92.3962C51.1228 92.3962 52.3735 91.1455 52.3735 88.7692V80.7646H51.0915V82.1717ZM51.0915 84.5793C51.0915 86.3928 50.1535 87.5185 48.5901 87.5185C46.9955 87.5185 46.0574 86.3928 46.0574 84.5793C46.0574 82.7658 46.9955 81.6714 48.5901 81.6714C50.1535 81.6714 51.0915 82.7658 51.0915 84.5793ZM58.8772 80.6708C58.6583 80.6083 58.4082 80.577 58.158 80.577C57.0011 80.577 56.0318 81.1711 55.6254 82.2655L55.5003 80.7646H54.2808C54.3434 81.4525 54.4059 82.203 54.4059 83.0472V88.8317H55.6879V84.2354C55.6879 83.5475 55.9068 82.9534 56.2507 82.4844C56.6572 81.9841 57.22 81.7339 58.0017 81.7339C58.3144 81.7339 58.6271 81.7965 58.8459 81.859L58.8772 80.6708ZM67.0694 82.1717C66.5691 81.1711 65.5998 80.577 64.3491 80.577C62.2229 80.577 60.7845 82.2968 60.7845 84.7982C60.7845 87.2996 62.1916 88.9568 64.3491 88.9568C65.5998 88.9568 66.6003 88.394 67.0694 87.3621V88.8317H68.3513V80.7646H67.0694V82.1717ZM67.0694 84.7669C67.0694 86.7368 66.1939 87.8624 64.5992 87.8624C63.0045 87.8624 62.0978 86.7681 62.0978 84.7982C62.0978 82.8283 63.0045 81.6714 64.5992 81.6714C66.1939 81.6714 67.0694 82.7658 67.0694 84.7669ZM77.9818 84.7982C77.9818 82.2968 76.5435 80.577 74.386 80.577C73.0728 80.577 72.0722 81.2337 71.6032 82.328L71.4781 80.7646H70.2587C70.3212 81.4525 70.3837 82.203 70.3837 83.0472V92.3024H71.6657V87.3309C72.166 88.3627 73.1353 88.9568 74.386 88.9568C76.5435 88.9568 77.9818 87.2996 77.9818 84.7982ZM76.6373 84.7982C76.6373 86.7681 75.7305 87.8624 74.1671 87.8624C72.5725 87.8624 71.6657 86.7368 71.6657 84.7669C71.6657 82.7658 72.5725 81.6714 74.1671 81.6714C75.6993 81.6714 76.6373 82.8283 76.6373 84.7982ZM87.2683 83.7663C87.2683 81.6401 86.299 80.577 84.3604 80.577C83.1723 80.577 82.1717 81.1086 81.6401 82.0779V77.0438H80.3582V88.8317H81.6401V84.2354C81.6401 82.672 82.6407 81.6714 84.1103 81.6714C85.3923 81.6714 85.9864 82.3593 85.9864 83.8289V88.8317H87.2683V83.7663ZM92.8027 87.4247L90.0824 80.7646H88.7067L92.1148 88.7379L91.8022 89.4571C91.552 90.0512 91.2081 90.4889 90.8329 90.7703C90.4264 91.0517 89.8636 91.2706 89.1131 91.4582L89.3945 92.4588C91.1143 92.1461 92.3024 91.3957 93.0841 89.5821L96.8363 80.7646H95.5543L92.8027 87.4247Z" fill="white"/>
<path opacity="0.7" d="M6.09721 159.966H8.94258V163.437C8.06708 163.749 7.16032 163.906 6.19102 163.906C3.50199 163.906 2.06367 162.248 2.06367 159.153C2.06367 156.12 3.50199 154.463 6.06595 154.463C7.41046 154.463 8.37976 154.838 9.47413 155.807L10.0057 154.775C9.03638 153.837 7.6606 153.337 6.06595 153.337C2.75156 153.337 0.719159 155.557 0.719159 159.153C0.719159 162.811 2.75156 165 6.15975 165C7.6606 165 9.25526 164.687 10.1308 164.218V158.934H6.09721V159.966ZM18.1978 158.215C17.6976 157.214 16.7283 156.62 15.4775 156.62C13.3513 156.62 11.913 158.34 11.913 160.841C11.913 163.343 13.3201 165 15.4775 165C16.7283 165 17.7288 164.437 18.1978 163.405V164.875H19.4798V156.808H18.1978V158.215ZM18.1978 160.81C18.1978 162.78 17.3223 163.906 15.7277 163.906C14.133 163.906 13.2263 162.811 13.2263 160.841C13.2263 158.872 14.133 157.715 15.7277 157.715C17.3223 157.715 18.1978 158.809 18.1978 160.81ZM33.1126 159.81C33.1126 157.683 32.2058 156.62 30.4548 156.62C29.2354 156.62 28.2348 157.246 27.7658 158.184C27.3593 157.121 26.5776 156.62 25.2956 156.62C24.1074 156.62 23.2007 157.214 22.7317 158.246L22.6066 156.808H21.3872C21.4497 157.496 21.5122 158.246 21.5122 159.09V164.875H22.7942V160.279C22.7942 158.684 23.6384 157.715 25.0142 157.715C26.1711 157.715 26.6714 158.403 26.6714 159.872V164.875H27.9847V160.279C27.9847 158.684 28.7976 157.715 30.1421 157.715C31.3303 157.715 31.8306 158.371 31.8306 159.872V164.875H33.1126V159.81ZM42.2115 160.56C42.2115 158.121 40.9295 156.62 38.8033 156.62C36.5833 156.62 35.0199 158.34 35.0199 160.81C35.0199 163.405 36.5208 165 39.0534 165C40.1791 165 41.3673 164.562 42.0864 163.906L41.6487 162.968C40.867 163.593 39.9915 163.906 39.0534 163.906C37.2712 163.906 36.3331 162.843 36.3331 160.81H42.2115V160.56ZM36.3644 159.966C36.6146 158.496 37.4588 157.652 38.8033 157.652C40.1478 157.652 40.9295 158.434 41.0546 159.966H36.3644ZM43.7436 163.937C44.5253 164.625 45.5884 165 46.9642 165C48.9028 165 50.1222 164.093 50.1222 162.686C50.1222 161.561 49.4031 160.873 47.9022 160.497L46.5577 160.153C45.6822 159.966 45.307 159.591 45.307 158.934C45.307 158.152 45.9636 157.683 47.1205 157.683C47.9648 157.683 48.7777 157.996 49.5281 158.621L49.9659 157.683C49.278 156.995 48.2462 156.62 47.1205 156.62C45.2445 156.62 44.025 157.621 44.025 159.028C44.025 160.091 44.7754 160.873 46.12 161.185L47.4957 161.498C48.465 161.748 48.8715 162.092 48.8715 162.717C48.8715 163.499 48.2149 163.937 47.0267 163.937C45.9011 163.937 45.0569 163.687 44.1814 162.999L43.7436 163.937Z" fill="white"/>
</svg>
