<svg width="87" height="165" viewBox="0 0 87 165" fill="none" xmlns="http://www.w3.org/2000/svg">
<path opacity="0.7" d="M8.14548 7.58156C7.83219 6.70436 7.36226 6.26575 6.70436 6.17177C8.17681 5.73317 8.99136 4.66799 8.99136 3.19553C8.99136 1.12784 7.61289 0 5.16925 0H0.626575V11.435H1.94238V6.45373H4.7933C5.88981 6.45373 6.45373 6.70436 6.79834 7.64422L8.20814 11.435H9.5866L8.14548 7.58156ZM1.94238 1.09651H5.04393C6.861 1.09651 7.67555 1.78574 7.67555 3.19553C7.67555 4.63666 6.79834 5.35722 5.04393 5.35722H1.94238V1.09651ZM18.9852 7.11163C18.9852 4.66799 17.7008 3.16421 15.5704 3.16421C13.3461 3.16421 11.7796 4.88729 11.7796 7.36226C11.7796 9.96255 13.2834 11.5603 15.821 11.5603C16.9489 11.5603 18.1394 11.1217 18.8599 10.4638L18.4213 9.52395C17.6381 10.1505 16.7609 10.4638 15.821 10.4638C14.0353 10.4638 13.0954 9.39863 13.0954 7.36226H18.9852V7.11163ZM13.1268 6.51638C13.3774 5.04393 14.2233 4.19806 15.5704 4.19806C16.9175 4.19806 17.7008 4.98127 17.8261 6.51638H13.1268ZM20.5203 10.4951C21.3036 11.1844 22.3687 11.5603 23.7472 11.5603C25.6896 11.5603 26.9114 10.6518 26.9114 9.24199C26.9114 8.11415 26.1909 7.42492 24.6871 7.04897L23.3399 6.70436C22.4627 6.51638 22.0868 6.14044 22.0868 5.48254C22.0868 4.69932 22.7447 4.22938 23.9039 4.22938C24.7497 4.22938 25.5643 4.54267 26.3162 5.16925L26.7548 4.22938C26.0655 3.54015 25.0317 3.16421 23.9039 3.16421C22.0241 3.16421 20.8023 4.16673 20.8023 5.57652C20.8023 6.6417 21.5542 7.42492 22.9013 7.73821L24.2798 8.05149C25.251 8.30212 25.6583 8.64674 25.6583 9.27332C25.6583 10.0565 25.0004 10.4951 23.8099 10.4951C22.682 10.4951 21.8362 10.2445 20.9589 9.55528L20.5203 10.4951ZM28.4465 7.36226C28.4465 9.89989 29.9503 11.5603 32.2373 11.5603C34.5556 11.5603 36.0594 9.89989 36.0594 7.36226C36.0594 4.82463 34.5556 3.16421 32.2373 3.16421C29.9503 3.16421 28.4465 4.82463 28.4465 7.36226ZM34.7436 7.36226C34.7436 9.39863 33.8664 10.4638 32.2373 10.4638C30.6395 10.4638 29.7623 9.39863 29.7623 7.36226C29.7623 5.38855 30.6709 4.26071 32.2373 4.26071C33.8037 4.26071 34.7436 5.38855 34.7436 7.36226ZM43.547 7.92618C43.547 9.46129 42.5758 10.4638 41.166 10.4638C39.9442 10.4638 39.3489 9.80591 39.3489 8.33345V3.35218H38.0331V8.36478C38.0331 10.4638 39.0356 11.5603 40.9467 11.5603C42.1059 11.5603 43.0771 11.0277 43.5783 10.0252V11.435H44.8315V3.35218H43.547V7.92618ZM51.7551 3.25819C51.5358 3.19553 51.2852 3.16421 51.0346 3.16421C49.8754 3.16421 48.9042 3.75945 48.4969 4.85596L48.3716 3.35218H47.1498C47.2125 4.04141 47.2751 4.7933 47.2751 5.63918V11.435H48.5596V6.82967C48.5596 6.14044 48.7789 5.54519 49.1235 5.07526C49.5308 4.574 50.0947 4.32337 50.8779 4.32337C51.1912 4.32337 51.5045 4.38603 51.7238 4.44869L51.7551 3.25819ZM53.6662 7.39359C53.6662 9.89989 55.17 11.5603 57.5196 11.5603C58.6161 11.5603 59.744 11.153 60.4332 10.4951L59.9946 9.55528C59.1801 10.1819 58.4282 10.4638 57.6449 10.4638C55.9845 10.4638 55.0133 9.33597 55.0133 7.39359C55.0133 5.41988 55.9845 4.26071 57.6449 4.26071C58.4282 4.26071 59.1801 4.54267 59.9946 5.20058L60.4332 4.22938C59.7753 3.57148 58.6788 3.16421 57.5823 3.16421C55.2013 3.16421 53.6662 4.88729 53.6662 7.39359ZM69.2053 7.11163C69.2053 4.66799 67.9208 3.16421 65.7904 3.16421C63.5661 3.16421 61.9996 4.88729 61.9996 7.36226C61.9996 9.96255 63.5034 11.5603 66.0411 11.5603C67.1689 11.5603 68.3594 11.1217 69.0799 10.4638L68.6413 9.52395C67.8581 10.1505 66.9809 10.4638 66.0411 10.4638C64.2553 10.4638 63.3154 9.39863 63.3154 7.36226H69.2053V7.11163ZM63.3468 6.51638C63.5974 5.04393 64.4433 4.19806 65.7904 4.19806C67.1376 4.19806 67.9208 4.98127 68.0461 6.51638H63.3468ZM70.7404 10.4951C71.5236 11.1844 72.5888 11.5603 73.9672 11.5603C75.9096 11.5603 77.1314 10.6518 77.1314 9.24199C77.1314 8.11415 76.4109 7.42492 74.9071 7.04897L73.56 6.70436C72.6828 6.51638 72.3068 6.14044 72.3068 5.48254C72.3068 4.69932 72.9647 4.22938 74.1239 4.22938C74.9698 4.22938 75.7843 4.54267 76.5362 5.16925L76.9748 4.22938C76.2856 3.54015 75.2517 3.16421 74.1239 3.16421C72.2441 3.16421 71.0223 4.16673 71.0223 5.57652C71.0223 6.6417 71.7742 7.42492 73.1214 7.73821L74.4998 8.05149C75.471 8.30212 75.8783 8.64674 75.8783 9.27332C75.8783 10.0565 75.2204 10.4951 74.0299 10.4951C72.9021 10.4951 72.0562 10.2445 71.179 9.55528L70.7404 10.4951Z" fill="#964ECE"/>
<path opacity="0.7" d="M1.94238 44.1736V39.0983H0.626575V50.5333H1.94238V45.3014H8.77206V50.5333H10.0879V39.0983H8.77206V44.1736H1.94238ZM19.4865 46.2099C19.4865 43.7663 18.202 42.2625 16.0717 42.2625C13.8473 42.2625 12.2809 43.9856 12.2809 46.4606C12.2809 49.0609 13.7847 50.6586 16.3223 50.6586C17.4501 50.6586 18.6406 50.22 19.3612 49.5621L18.9226 48.6223C18.1394 49.2488 17.2622 49.5621 16.3223 49.5621C14.5366 49.5621 13.5967 48.4969 13.5967 46.4606H19.4865V46.2099ZM13.628 45.6147C13.8786 44.1422 14.7245 43.2964 16.0717 43.2964C17.4188 43.2964 18.202 44.0796 18.3273 45.6147H13.628ZM22.8073 38.7224H21.5229V50.5333H22.8073V38.7224ZM32.9265 46.4919C32.9265 43.9856 31.4854 42.2625 29.3237 42.2625C28.0079 42.2625 27.0054 42.9204 26.5355 44.0169L26.4102 42.4505H25.1883C25.251 43.1397 25.3136 43.8916 25.3136 44.7375V54.0108H26.5981V49.0295C27.0994 50.0634 28.0706 50.6586 29.3237 50.6586C31.4854 50.6586 32.9265 48.9982 32.9265 46.4919ZM31.5794 46.4919C31.5794 48.4656 30.6709 49.5621 29.1044 49.5621C27.5067 49.5621 26.5981 48.4343 26.5981 46.4606C26.5981 44.4555 27.5067 43.359 29.1044 43.359C30.6395 43.359 31.5794 44.5182 31.5794 46.4919ZM41.1033 46.4919C41.1033 48.9982 42.6071 50.6586 44.9568 50.6586C46.0533 50.6586 47.1811 50.2514 47.8704 49.5934L47.4318 48.6536C46.6172 49.2802 45.8653 49.5621 45.0821 49.5621C43.4217 49.5621 42.4505 48.4343 42.4505 46.4919C42.4505 44.5182 43.4217 43.359 45.0821 43.359C45.8653 43.359 46.6172 43.641 47.4318 44.2989L47.8704 43.3277C47.2125 42.6698 46.116 42.2625 45.0194 42.2625C42.6385 42.2625 41.1033 43.9856 41.1033 46.4919ZM56.6424 46.2099C56.6424 43.7663 55.3579 42.2625 53.2276 42.2625C51.0032 42.2625 49.4368 43.9856 49.4368 46.4606C49.4368 49.0609 50.9406 50.6586 53.4782 50.6586C54.606 50.6586 55.7965 50.22 56.5171 49.5621L56.0785 48.6223C55.2953 49.2488 54.4181 49.5621 53.4782 49.5621C51.6925 49.5621 50.7526 48.4969 50.7526 46.4606H56.6424V46.2099ZM50.7839 45.6147C51.0346 44.1422 51.8804 43.2964 53.2276 43.2964C54.5747 43.2964 55.3579 44.0796 55.4833 45.6147H50.7839ZM65.6024 45.458C65.6024 43.3277 64.6313 42.2625 62.6889 42.2625C61.4357 42.2625 60.4019 42.8578 59.9006 43.9229L59.7753 42.4505H58.5535C58.6161 43.1397 58.6788 43.8916 58.6788 44.7375V50.5333H59.9633V45.928C59.9633 44.3615 60.9658 43.359 62.4382 43.359C63.7227 43.359 64.318 44.0483 64.318 45.5207V50.5333H65.6024V45.458ZM72.0248 42.4505H69.7065V39.9442L68.422 40.3828V42.4505H66.8556V43.4843H68.422V48.0897C68.422 49.7501 69.3306 50.6586 70.8657 50.6586C71.273 50.6586 71.6489 50.596 71.9935 50.4707V49.3741C71.7116 49.4681 71.4296 49.5308 71.1163 49.5308C70.2391 49.5308 69.7065 49.0922 69.7065 47.9017V43.4843H72.0248V42.4505ZM77.8833 42.3565C77.664 42.2938 77.4134 42.2625 77.1628 42.2625C76.0036 42.2625 75.0324 42.8578 74.6251 43.9543L74.4998 42.4505H73.278C73.3407 43.1397 73.4033 43.8916 73.4033 44.7375V50.5333H74.6878V45.928C74.6878 45.2387 74.9071 44.6435 75.2517 44.1736C75.659 43.6723 76.2229 43.4217 77.0061 43.4217C77.3194 43.4217 77.6327 43.4843 77.852 43.547L77.8833 42.3565ZM87 46.2099C87 43.7663 85.7155 42.2625 83.5852 42.2625C81.3608 42.2625 79.7944 43.9856 79.7944 46.4606C79.7944 49.0609 81.2982 50.6586 83.8358 50.6586C84.9636 50.6586 86.1541 50.22 86.8747 49.5621L86.4361 48.6223C85.6529 49.2488 84.7757 49.5621 83.8358 49.5621C82.0501 49.5621 81.1102 48.4969 81.1102 46.4606H87V46.2099ZM81.1415 45.6147C81.3921 44.1422 82.238 43.2964 83.5852 43.2964C84.9323 43.2964 85.7155 44.0796 85.8408 45.6147H81.1415Z" fill="white"/>
<path opacity="0.7" d="M0 125.409C1.03385 126.38 2.47497 126.85 4.26071 126.85C6.82967 126.85 8.45877 125.566 8.45877 123.623C8.45877 122.308 7.64422 121.524 6.48506 121.148C5.92114 120.96 5.16925 120.71 4.19806 120.49C2.38099 120.052 1.50378 119.582 1.50378 118.423C1.50378 117.107 2.56896 116.292 4.3547 116.292C5.63918 116.292 6.70436 116.731 7.76954 117.64L8.30212 116.606C7.36226 115.666 5.95247 115.165 4.3547 115.165C1.8484 115.165 0.187973 116.512 0.187973 118.485C0.187973 119.833 0.971192 120.647 2.09903 121.117C2.66295 121.336 3.38351 121.524 4.26071 121.744C6.14044 122.182 7.11163 122.464 7.14296 123.686C7.17429 124.97 6.10911 125.722 4.26071 125.722C2.7256 125.722 1.6291 125.346 0.469932 124.407L0 125.409ZM15.9463 123.216C15.9463 124.751 14.9752 125.754 13.5654 125.754C12.3435 125.754 11.7483 125.096 11.7483 123.623V118.642H10.4325V123.655C10.4325 125.754 11.435 126.85 13.3461 126.85C14.5052 126.85 15.4764 126.318 15.9777 125.315V126.725H17.2308V118.642H15.9463V123.216ZM24.0292 121.681L23.2146 122.464L25.6269 124.876L24.0292 126.474L20.0191 122.464L24.0292 118.454L24.6244 119.081L25.439 118.266L24.0292 116.856L18.4213 122.464L24.0292 128.103L27.2247 124.876L24.0292 121.681ZM28.8225 116.856L25.6269 120.083L28.8225 123.279L29.637 122.464L27.2247 120.083L28.8225 118.454L32.8326 122.464L28.8225 126.474L28.2272 125.879L27.444 126.694L28.8225 128.103L34.4616 122.464L28.8225 116.856ZM42.4505 122.402C42.4505 119.958 41.166 118.454 39.0356 118.454C36.8113 118.454 35.2449 120.177 35.2449 122.652C35.2449 125.252 36.7486 126.85 39.2863 126.85C40.4141 126.85 41.6046 126.412 42.3252 125.754L41.8866 124.814C41.1033 125.44 40.2261 125.754 39.2863 125.754C37.5005 125.754 36.5607 124.689 36.5607 122.652H42.4505V122.402ZM36.592 121.806C36.8426 120.334 37.6885 119.488 39.0356 119.488C40.3828 119.488 41.166 120.271 41.2913 121.806H36.592ZM43.9856 125.785C44.7688 126.474 45.834 126.85 47.2125 126.85C49.1548 126.85 50.3767 125.942 50.3767 124.532C50.3767 123.404 49.6561 122.715 48.1523 122.339L46.8052 121.994C45.928 121.806 45.552 121.43 45.552 120.772C45.552 119.989 46.2099 119.519 47.3691 119.519C48.215 119.519 49.0295 119.833 49.7814 120.459L50.22 119.519C49.5308 118.83 48.4969 118.454 47.3691 118.454C45.4894 118.454 44.2676 119.457 44.2676 120.866C44.2676 121.932 45.0194 122.715 46.3666 123.028L47.745 123.341C48.7162 123.592 49.1235 123.937 49.1235 124.563C49.1235 125.346 48.4656 125.785 47.2751 125.785C46.1473 125.785 45.3014 125.534 44.4242 124.845L43.9856 125.785ZM56.4231 118.642H54.1048V116.136L52.8203 116.574V118.642H51.2539V119.676H52.8203V124.281C52.8203 125.942 53.7288 126.85 55.264 126.85C55.6712 126.85 56.0472 126.788 56.3918 126.662V125.566C56.1098 125.66 55.8279 125.722 55.5146 125.722C54.6374 125.722 54.1048 125.284 54.1048 124.093V119.676H56.4231V118.642ZM59.2427 116.7V115.227H57.6763V116.7H59.2427ZM59.0861 118.642H57.8016V126.725H59.0861V118.642ZM61.1538 122.652C61.1538 125.19 62.6575 126.85 64.9445 126.85C67.2629 126.85 68.7667 125.19 68.7667 122.652C68.7667 120.115 67.2629 118.454 64.9445 118.454C62.6575 118.454 61.1538 120.115 61.1538 122.652ZM67.4508 122.652C67.4508 124.689 66.5736 125.754 64.9445 125.754C63.3468 125.754 62.4696 124.689 62.4696 122.652C62.4696 120.678 63.3781 119.551 64.9445 119.551C66.511 119.551 67.4508 120.678 67.4508 122.652ZM77.7267 121.65C77.7267 119.519 76.7555 118.454 74.8131 118.454C73.56 118.454 72.5261 119.049 72.0248 120.115L71.8995 118.642H70.6777C70.7404 119.331 70.803 120.083 70.803 120.929V126.725H72.0875V122.12C72.0875 120.553 73.09 119.551 74.5625 119.551C75.847 119.551 76.4422 120.24 76.4422 121.712V126.725H77.7267V121.65ZM79.6064 125.785C80.3896 126.474 81.4548 126.85 82.8333 126.85C84.7757 126.85 85.9975 125.942 85.9975 124.532C85.9975 123.404 85.2769 122.715 83.7731 122.339L82.426 121.994C81.5488 121.806 81.1728 121.43 81.1728 120.772C81.1728 119.989 81.8308 119.519 82.9899 119.519C83.8358 119.519 84.6503 119.833 85.4022 120.459L85.8408 119.519C85.1516 118.83 84.1178 118.454 82.9899 118.454C81.1102 118.454 79.8884 119.457 79.8884 120.866C79.8884 121.932 80.6403 122.715 81.9874 123.028L83.3659 123.341C84.3371 123.592 84.7443 123.937 84.7443 124.563C84.7443 125.346 84.0864 125.785 82.8959 125.785C81.7681 125.785 80.9222 125.534 80.045 124.845L79.6064 125.785Z" fill="white"/>
<path opacity="0.7" d="M1.94238 88.6291V83.6165H5.16925C7.51891 83.6165 8.9287 82.3947 8.9287 80.3896C8.9287 78.4159 7.55023 77.1941 5.16925 77.1941H0.626575V88.6291H1.94238ZM1.94238 78.2906H5.07526C6.76701 78.2906 7.61289 79.0425 7.61289 80.3896C7.61289 81.7681 6.76701 82.52 5.07526 82.52H1.94238V78.2906ZM17.4188 81.9561C16.9175 80.9535 15.9463 80.3583 14.6932 80.3583C12.5628 80.3583 11.1217 82.0814 11.1217 84.5877C11.1217 87.094 12.5315 88.7544 14.6932 88.7544C15.9463 88.7544 16.9489 88.1905 17.4188 87.1566V88.6291H18.7033V80.5463H17.4188V81.9561ZM17.4188 84.5564C17.4188 86.5301 16.5416 87.6579 14.9438 87.6579C13.3461 87.6579 12.4375 86.5614 12.4375 84.5877C12.4375 82.614 13.3461 81.4548 14.9438 81.4548C16.5416 81.4548 17.4188 82.5513 17.4188 84.5564ZM25.2197 80.4523C25.0004 80.3896 24.7497 80.3583 24.4991 80.3583C23.3399 80.3583 22.3687 80.9535 21.9615 82.0501L21.8362 80.5463H20.6143C20.677 81.2355 20.7396 81.9874 20.7396 82.8333V88.6291H22.0241V84.0238C22.0241 83.3345 22.2434 82.7393 22.588 82.2694C22.9953 81.7681 23.5592 81.5175 24.3425 81.5175C24.6557 81.5175 24.969 81.5801 25.1883 81.6428L25.2197 80.4523ZM31.6421 80.5463H29.3237V78.04L28.0393 78.4786V80.5463H26.4728V81.5801H28.0393V86.1855C28.0393 87.8459 28.9478 88.7544 30.4829 88.7544C30.8902 88.7544 31.2661 88.6918 31.6107 88.5664V87.4699C31.3288 87.5639 31.0468 87.6266 30.7335 87.6266C29.8563 87.6266 29.3237 87.188 29.3237 85.9975V81.5801H31.6421V80.5463ZM39.9442 83.5538C39.9442 81.4235 38.973 80.3583 37.0306 80.3583C35.7775 80.3583 34.7436 80.9535 34.2423 82.0187L34.117 80.5463H32.8952C32.9579 81.2355 33.0205 81.9874 33.0205 82.8333V88.6291H34.305V84.0238C34.305 82.4573 35.3075 81.4548 36.78 81.4548C38.0645 81.4548 38.6597 82.144 38.6597 83.6165V88.6291H39.9442V83.5538ZM49.0609 84.3057C49.0609 81.8621 47.7764 80.3583 45.646 80.3583C43.4217 80.3583 41.8552 82.0814 41.8552 84.5564C41.8552 87.1566 43.359 88.7544 45.8967 88.7544C47.0245 88.7544 48.215 88.3158 48.9355 87.6579L48.4969 86.718C47.7137 87.3446 46.8365 87.6579 45.8967 87.6579C44.1109 87.6579 43.171 86.5927 43.171 84.5564H49.0609V84.3057ZM43.2024 83.7105C43.453 82.238 44.2989 81.3921 45.646 81.3921C46.9932 81.3921 47.7764 82.1754 47.9017 83.7105H43.2024ZM55.5772 80.4523C55.3579 80.3896 55.1073 80.3583 54.8567 80.3583C53.6975 80.3583 52.7263 80.9535 52.319 82.0501L52.1937 80.5463H50.9719C51.0346 81.2355 51.0972 81.9874 51.0972 82.8333V88.6291H52.3817V84.0238C52.3817 83.3345 52.601 82.7393 52.9456 82.2694C53.3529 81.7681 53.9168 81.5175 54.7 81.5175C55.0133 81.5175 55.3266 81.5801 55.5459 81.6428L55.5772 80.4523ZM57.457 87.6892C58.2402 88.3785 59.3054 88.7544 60.6838 88.7544C62.6262 88.7544 63.848 87.8459 63.848 86.4361C63.848 85.3082 63.1275 84.619 61.6237 84.2431L60.2766 83.8985C59.3994 83.7105 59.0234 83.3345 59.0234 82.6766C59.0234 81.8934 59.6813 81.4235 60.8405 81.4235C61.6864 81.4235 62.5009 81.7368 63.2528 82.3633L63.6914 81.4235C63.0022 80.7342 61.9683 80.3583 60.8405 80.3583C58.9607 80.3583 57.7389 81.3608 57.7389 82.7706C57.7389 83.8358 58.4908 84.619 59.838 84.9323L61.2164 85.2456C62.1876 85.4962 62.5949 85.8408 62.5949 86.4674C62.5949 87.2506 61.937 87.6892 60.7465 87.6892C59.6187 87.6892 58.7728 87.4386 57.8956 86.7494L57.457 87.6892Z" fill="white"/>
<path opacity="0.7" d="M1.6291 153.386H0.626575V164.821H1.8484V155.641L8.77206 164.821H9.77458V153.386H8.52143V162.596L1.6291 153.386ZM19.1732 160.497C19.1732 158.054 17.8887 156.55 15.7584 156.55C13.534 156.55 11.9676 158.273 11.9676 160.748C11.9676 163.348 13.4714 164.946 16.009 164.946C17.1368 164.946 18.3273 164.507 19.0479 163.849L18.6093 162.91C17.8261 163.536 16.9489 163.849 16.009 163.849C14.2233 163.849 13.2834 162.784 13.2834 160.748H19.1732V160.497ZM13.3147 159.902C13.5654 158.43 14.4112 157.584 15.7584 157.584C17.1055 157.584 17.8887 158.367 18.014 159.902H13.3147ZM27.538 156.738H26.3788L24.0292 163.254L21.7422 156.738H20.395L23.3713 164.821H24.6244L26.9114 158.524L29.2297 164.821H30.4829L33.4591 156.738H32.1746L29.8563 163.286L27.538 156.738ZM34.6496 163.881C35.4328 164.57 36.498 164.946 37.8765 164.946C39.8189 164.946 41.0407 164.037 41.0407 162.628C41.0407 161.5 40.3201 160.811 38.8163 160.435L37.4692 160.09C36.592 159.902 36.2161 159.526 36.2161 158.868C36.2161 158.085 36.874 157.615 38.0331 157.615C38.879 157.615 39.6936 157.928 40.4454 158.555L40.884 157.615C40.1948 156.926 39.161 156.55 38.0331 156.55C36.1534 156.55 34.9316 157.552 34.9316 158.962C34.9316 160.027 35.6835 160.811 37.0306 161.124L38.4091 161.437C39.3803 161.688 39.7875 162.032 39.7875 162.659C39.7875 163.442 39.1296 163.881 37.9391 163.881C36.8113 163.881 35.9654 163.63 35.0882 162.941L34.6496 163.881ZM44.3302 153.01H43.0457V164.821H44.3302V153.01ZM53.5722 160.497C53.5722 158.054 52.2877 156.55 50.1574 156.55C47.933 156.55 46.3666 158.273 46.3666 160.748C46.3666 163.348 47.8704 164.946 50.408 164.946C51.5358 164.946 52.7263 164.507 53.4469 163.849L53.0083 162.91C52.2251 163.536 51.3479 163.849 50.408 163.849C48.6223 163.849 47.6824 162.784 47.6824 160.748H53.5722V160.497ZM47.7137 159.902C47.9644 158.43 48.8102 157.584 50.1574 157.584C51.5045 157.584 52.2877 158.367 52.413 159.902H47.7137ZM59.65 156.738H57.3317V154.232L56.0472 154.67V156.738H54.4807V157.772H56.0472V162.377C56.0472 164.037 56.9557 164.946 58.4908 164.946C58.8981 164.946 59.274 164.883 59.6187 164.758V163.662C59.3367 163.755 59.0547 163.818 58.7414 163.818C57.8642 163.818 57.3317 163.38 57.3317 162.189V157.772H59.65V156.738ZM65.0699 156.738H62.7515V154.232L61.4671 154.67V156.738H59.9006V157.772H61.4671V162.377C61.4671 164.037 62.3756 164.946 63.9107 164.946C64.318 164.946 64.6939 164.883 65.0385 164.758V163.662C64.7566 163.755 64.4746 163.818 64.1613 163.818C63.2841 163.818 62.7515 163.38 62.7515 162.189V157.772H65.0699V156.738ZM73.184 160.497C73.184 158.054 71.8995 156.55 69.7692 156.55C67.5448 156.55 65.9784 158.273 65.9784 160.748C65.9784 163.348 67.4822 164.946 70.0198 164.946C71.1476 164.946 72.3381 164.507 73.0587 163.849L72.6201 162.91C71.8369 163.536 70.9597 163.849 70.0198 163.849C68.2341 163.849 67.2942 162.784 67.2942 160.748H73.184V160.497ZM67.3255 159.902C67.5762 158.43 68.422 157.584 69.7692 157.584C71.1163 157.584 71.8995 158.367 72.0248 159.902H67.3255ZM79.7004 156.644C79.4811 156.581 79.2305 156.55 78.9798 156.55C77.8207 156.55 76.8495 157.145 76.4422 158.242L76.3169 156.738H75.0951C75.1577 157.427 75.2204 158.179 75.2204 159.025V164.821H76.5049V160.215C76.5049 159.526 76.7242 158.931 77.0688 158.461C77.4761 157.96 78.04 157.709 78.8232 157.709C79.1365 157.709 79.4498 157.772 79.6691 157.834L79.7004 156.644Z" fill="white"/>
</svg>
