<svg width="71" height="169" viewBox="0 0 71 169" fill="none" xmlns="http://www.w3.org/2000/svg">
<path opacity="0.7" d="M0.721927 5.8382C0.721927 9.44783 2.76216 11.7078 6.02653 11.7078C7.59593 11.7078 8.94562 11.237 9.91866 10.2639L9.41645 9.2595C8.31786 10.2011 7.31344 10.5778 6.02653 10.5778C3.51547 10.5778 2.07162 8.85146 2.07162 5.8382C2.07162 2.82493 3.51547 1.16136 6.02653 1.16136C7.31344 1.16136 8.31786 1.50663 9.41645 2.47966L9.91866 1.44385C8.94562 0.50221 7.59593 0 6.02653 0C2.76216 0 0.721927 2.25995 0.721927 5.8382ZM11.7078 7.50177C11.7078 10.0442 13.2144 11.7078 15.5057 11.7078C17.8285 11.7078 19.3351 10.0442 19.3351 7.50177C19.3351 4.95933 17.8285 3.29576 15.5057 3.29576C13.2144 3.29576 11.7078 4.95933 11.7078 7.50177ZM18.0168 7.50177C18.0168 9.542 17.1379 10.6092 15.5057 10.6092C13.905 10.6092 13.0261 9.542 13.0261 7.50177C13.0261 5.52431 13.9363 4.39434 15.5057 4.39434C17.0752 4.39434 18.0168 5.52431 18.0168 7.50177ZM33.0203 6.49735C33.0203 4.36295 32.1101 3.29576 30.3523 3.29576C29.1282 3.29576 28.1238 3.92352 27.653 4.86516C27.2449 3.79797 26.4602 3.29576 25.1733 3.29576C23.9805 3.29576 23.0703 3.89213 22.5995 4.92794L22.4739 3.48408H21.2498C21.3126 4.17462 21.3753 4.92794 21.3753 5.77542V11.5822H22.6622V6.96817C22.6622 5.36737 23.5097 4.39434 24.8908 4.39434C26.0522 4.39434 26.5544 5.08488 26.5544 6.56012V11.5822H27.8727V6.96817C27.8727 5.36737 28.6888 4.39434 30.0385 4.39434C31.2312 4.39434 31.7334 5.05349 31.7334 6.56012V11.5822H33.0203V6.49735ZM43.0332 7.53316C43.0332 5.0221 41.5893 3.29576 39.4235 3.29576C38.1052 3.29576 37.1008 3.95491 36.63 5.05349L36.5044 3.48408H35.2803C35.3431 4.17462 35.4058 4.92794 35.4058 5.77542V15.0663H36.6927V10.0756C37.195 11.1114 38.168 11.7078 39.4235 11.7078C41.5893 11.7078 43.0332 10.0442 43.0332 7.53316ZM41.6835 7.53316C41.6835 9.51061 40.7732 10.6092 39.2038 10.6092C37.603 10.6092 36.6927 9.47922 36.6927 7.50177C36.6927 5.49293 37.603 4.39434 39.2038 4.39434C40.7418 4.39434 41.6835 5.5557 41.6835 7.53316ZM51.2569 4.89655C50.7546 3.89213 49.7816 3.29576 48.5261 3.29576C46.3917 3.29576 44.9478 5.0221 44.9478 7.53316C44.9478 10.0442 46.3603 11.7078 48.5261 11.7078C49.7816 11.7078 50.786 11.1428 51.2569 10.107V11.5822H52.5438V3.48408H51.2569V4.89655ZM51.2569 7.50177C51.2569 9.47922 50.378 10.6092 48.7772 10.6092C47.1764 10.6092 46.2661 9.51061 46.2661 7.53316C46.2661 5.5557 47.1764 4.39434 48.7772 4.39434C50.378 4.39434 51.2569 5.49293 51.2569 7.50177ZM61.5208 6.49735C61.5208 4.36295 60.5477 3.29576 58.6017 3.29576C57.3462 3.29576 56.3103 3.89213 55.8081 4.95933L55.6826 3.48408H54.4584C54.5212 4.17462 54.584 4.92794 54.584 5.77542V11.5822H55.8709V6.96817C55.8709 5.39876 56.8753 4.39434 58.3506 4.39434C59.6375 4.39434 60.2339 5.08488 60.2339 6.56012V11.5822H61.5208V6.49735ZM66.9509 10.1698L64.2202 3.48408H62.8391L66.2604 11.4881L65.9465 12.21C65.6954 12.8064 65.3501 13.2458 64.9735 13.5283C64.5654 13.8108 64.0004 14.0305 63.2471 14.2188L63.5296 15.2233C65.256 14.9094 66.4487 14.1561 67.2334 12.3355L71 3.48408H69.7131L66.9509 10.1698Z" fill="#964ECE"/>
<path opacity="0.7" d="M6.18347 39.298H5.0221L0 50.7546H1.38108L2.6366 47.8042H8.63174L9.88727 50.7546H11.237L6.18347 39.298ZM8.16092 46.7056H3.10743L5.61848 40.836L8.16092 46.7056ZM20.4023 46.6428C20.4023 44.1317 18.9584 42.4682 16.7927 42.4682C15.5371 42.4682 14.5327 43.0645 14.0619 44.1004V38.9213H12.775V50.7546H14.0619V49.248C14.5641 50.2838 15.5371 50.8802 16.7927 50.8802C18.9584 50.8802 20.4023 49.1538 20.4023 46.6428ZM19.0526 46.6428C19.0526 48.6202 18.111 49.7816 16.5729 49.7816C14.9721 49.7816 14.0619 48.6516 14.0619 46.6742C14.0619 44.6653 14.9721 43.5668 16.5729 43.5668C18.1424 43.5668 19.0526 44.6967 19.0526 46.6428ZM22.4425 46.6742C22.4425 49.2166 23.9492 50.8802 26.2405 50.8802C28.5632 50.8802 30.0698 49.2166 30.0698 46.6742C30.0698 44.1317 28.5632 42.4682 26.2405 42.4682C23.9492 42.4682 22.4425 44.1317 22.4425 46.6742ZM28.7515 46.6742C28.7515 48.7144 27.8727 49.7816 26.2405 49.7816C24.6397 49.7816 23.7608 48.7144 23.7608 46.6742C23.7608 44.6967 24.6711 43.5668 26.2405 43.5668C27.8099 43.5668 28.7515 44.6967 28.7515 46.6742ZM37.5716 47.2392C37.5716 48.7772 36.5986 49.7816 35.1861 49.7816C33.962 49.7816 33.3656 49.1225 33.3656 47.6472V42.6565H32.0473V47.6786C32.0473 49.7816 33.0517 50.8802 34.9664 50.8802C36.1278 50.8802 37.1008 50.3466 37.603 49.3422V50.7546H38.8585V42.6565H37.5716V47.2392ZM45.3559 42.6565H43.0332V40.1454L41.7462 40.5849V42.6565H40.1768V43.6923H41.7462V48.3064C41.7462 49.9699 42.6565 50.8802 44.1945 50.8802C44.6026 50.8802 44.9792 50.8174 45.3245 50.6919V49.5933C45.042 49.6874 44.7595 49.7502 44.4456 49.7502C43.5668 49.7502 43.0332 49.3108 43.0332 48.118V43.6923H45.3559V42.6565Z" fill="white"/>
<path opacity="0.7" d="M8.66313 123.23C8.34925 122.351 7.87843 121.912 7.21927 121.817C8.69452 121.378 9.51061 120.311 9.51061 118.836C9.51061 116.764 8.12953 115.634 5.68126 115.634H1.12997V127.091H2.44828V122.1H5.3046C6.40318 122.1 6.96817 122.351 7.31344 123.293L8.72591 127.091H10.107L8.66313 123.23ZM2.44828 116.733H5.5557C7.37622 116.733 8.19231 117.423 8.19231 118.836C8.19231 120.279 7.31344 121.001 5.5557 121.001H2.44828V116.733ZM18.6132 120.405C18.111 119.401 17.1379 118.804 15.8824 118.804C13.748 118.804 12.3042 120.531 12.3042 123.042C12.3042 125.553 13.7166 127.216 15.8824 127.216C17.1379 127.216 18.1424 126.651 18.6132 125.615V127.091H19.9001V118.992H18.6132V120.405ZM18.6132 123.01C18.6132 124.988 17.7343 126.118 16.1335 126.118C14.5327 126.118 13.6225 125.019 13.6225 123.042C13.6225 121.064 14.5327 119.903 16.1335 119.903C17.7343 119.903 18.6132 121.001 18.6132 123.01ZM28.8771 122.006C28.8771 119.871 27.9041 118.804 25.958 118.804C24.7025 118.804 23.6667 119.401 23.1645 120.468L23.0389 118.992H21.8148C21.8775 119.683 21.9403 120.436 21.9403 121.284V127.091H23.2272V122.477C23.2272 120.907 24.2317 119.903 25.7069 119.903C26.9938 119.903 27.5902 120.593 27.5902 122.069V127.091H28.8771V122.006ZM38.0111 119.024H36.3789L32.5495 122.728V115.257H31.2626V127.091H32.5495V123.198L36.7241 127.091H38.4191L33.962 122.885L38.0111 119.024ZM42.374 117.046V115.571H40.8046V117.046H42.374ZM42.2171 118.992H40.9302V127.091H42.2171V118.992ZM51.6963 122.006C51.6963 119.871 50.7233 118.804 48.7772 118.804C47.5217 118.804 46.4859 119.401 45.9836 120.468L45.8581 118.992H44.634C44.6967 119.683 44.7595 120.436 44.7595 121.284V127.091H46.0464V122.477C46.0464 120.907 47.0508 119.903 48.5261 119.903C49.813 119.903 50.4094 120.593 50.4094 122.069V127.091H51.6963V122.006ZM59.9828 120.405C59.4805 119.401 58.5075 118.804 57.2206 118.804C55.0548 118.804 53.611 120.436 53.611 122.822C53.611 125.239 55.0548 126.84 57.2206 126.84C58.5075 126.84 59.4805 126.243 59.9828 125.239V127.153C59.9828 128.754 59.1981 129.602 57.6286 129.602C56.5301 129.602 55.714 129.351 54.6782 128.786L54.4584 129.853C55.3373 130.386 56.4045 130.669 57.6286 130.669C60.0141 130.669 61.2697 129.413 61.2697 127.028V118.992H59.9828V120.405ZM59.9828 122.822C59.9828 124.642 59.0411 125.772 57.4717 125.772C55.8709 125.772 54.9293 124.642 54.9293 122.822C54.9293 121.001 55.8709 119.903 57.4717 119.903C59.0411 119.903 59.9828 121.001 59.9828 122.822ZM62.8077 126.149C63.5924 126.84 64.6596 127.216 66.0407 127.216C67.9867 127.216 69.2109 126.306 69.2109 124.893C69.2109 123.763 68.4889 123.073 66.9823 122.696L65.6326 122.351C64.7538 122.163 64.3771 121.786 64.3771 121.127C64.3771 120.342 65.0363 119.871 66.1976 119.871C67.0451 119.871 67.8612 120.185 68.6145 120.813L69.0539 119.871C68.3634 119.181 67.3276 118.804 66.1976 118.804C64.3143 118.804 63.0902 119.809 63.0902 121.221C63.0902 122.288 63.8435 123.073 65.1932 123.387L66.5743 123.701C67.5473 123.952 67.9553 124.297 67.9553 124.925C67.9553 125.71 67.2962 126.149 66.1034 126.149C64.9735 126.149 64.126 125.898 63.2471 125.207L62.8077 126.149Z" fill="white"/>
<path opacity="0.7" d="M0.721927 83.1786C0.721927 86.7882 2.76216 89.0482 6.02653 89.0482C7.59593 89.0482 8.94562 88.5774 9.91866 87.6043L9.41645 86.5999C8.31786 87.5416 7.31344 87.9182 6.02653 87.9182C3.51547 87.9182 2.07162 86.1919 2.07162 83.1786C2.07162 80.1653 3.51547 78.5018 6.02653 78.5018C7.31344 78.5018 8.31786 78.847 9.41645 79.8201L9.91866 78.7843C8.94562 77.8426 7.59593 77.3404 6.02653 77.3404C2.76216 77.3404 0.721927 79.6004 0.721927 83.1786ZM18.0168 82.237C17.5146 81.2325 16.5416 80.6362 15.286 80.6362C13.1516 80.6362 11.7078 82.3625 11.7078 84.8736C11.7078 87.3846 13.1202 89.0482 15.286 89.0482C16.5416 89.0482 17.546 88.4832 18.0168 87.4474V88.9226H19.3037V80.8245H18.0168V82.237ZM18.0168 84.8422C18.0168 86.8196 17.1379 87.9496 15.5371 87.9496C13.9363 87.9496 13.0261 86.851 13.0261 84.8736C13.0261 82.8961 13.9363 81.7347 15.5371 81.7347C17.1379 81.7347 18.0168 82.8333 18.0168 84.8422ZM25.8324 80.7303C25.6127 80.6676 25.3616 80.6362 25.1105 80.6362C23.9492 80.6362 22.9761 81.2325 22.5681 82.3311L22.4425 80.8245H21.2184C21.2812 81.515 21.3439 82.2683 21.3439 83.1158V88.9226H22.6309V84.3086C22.6309 83.618 22.8506 83.0217 23.1958 82.5508C23.6039 82.0486 24.1689 81.7975 24.9536 81.7975C25.2675 81.7975 25.5813 81.8603 25.8011 81.9231L25.8324 80.7303ZM34.9664 84.5911C34.9664 82.1428 33.6795 80.6362 31.5451 80.6362C29.3165 80.6362 27.7471 82.3625 27.7471 84.8422C27.7471 87.4474 29.2538 89.0482 31.7962 89.0482C32.9262 89.0482 34.1189 88.6088 34.8408 87.9496L34.4014 87.008C33.6167 87.6357 32.7378 87.9496 31.7962 87.9496C30.0071 87.9496 29.0654 86.8824 29.0654 84.8422H34.9664V84.5911ZM29.0968 83.9947C29.3479 82.5195 30.1954 81.672 31.5451 81.672C32.8948 81.672 33.6795 82.4567 33.805 83.9947H29.0968ZM43.7551 84.5911C43.7551 82.1428 42.4682 80.6362 40.3338 80.6362C38.1052 80.6362 36.5358 82.3625 36.5358 84.8422C36.5358 87.4474 38.0424 89.0482 40.5849 89.0482C41.7149 89.0482 42.9076 88.6088 43.6295 87.9496L43.1901 87.008C42.4054 87.6357 41.5265 87.9496 40.5849 87.9496C38.7958 87.9496 37.8541 86.8824 37.8541 84.8422H43.7551V84.5911ZM37.8855 83.9947C38.1366 82.5195 38.9841 81.672 40.3338 81.672C41.6835 81.672 42.4682 82.4567 42.5937 83.9947H37.8855ZM50.2838 80.7303C50.0641 80.6676 49.813 80.6362 49.5619 80.6362C48.4005 80.6362 47.4275 81.2325 47.0195 82.3311L46.8939 80.8245H45.6698C45.7325 81.515 45.7953 82.2683 45.7953 83.1158V88.9226H47.0822V84.3086C47.0822 83.618 47.3019 83.0217 47.6472 82.5508C48.0553 82.0486 48.6202 81.7975 49.405 81.7975C49.7188 81.7975 50.0327 81.8603 50.2524 81.9231L50.2838 80.7303ZM52.1671 87.981C52.9518 88.6715 54.019 89.0482 55.4001 89.0482C57.3462 89.0482 58.5703 88.1379 58.5703 86.7255C58.5703 85.5955 57.8484 84.905 56.3417 84.5283L54.992 84.183C54.1132 83.9947 53.7365 83.618 53.7365 82.9589C53.7365 82.1742 54.3957 81.7034 55.557 81.7034C56.4045 81.7034 57.2206 82.0172 57.9739 82.645L58.4134 81.7034C57.7228 81.0128 56.687 80.6362 55.557 80.6362C53.6737 80.6362 52.4496 81.6406 52.4496 83.0531C52.4496 84.1202 53.2029 84.905 54.5526 85.2188L55.9337 85.5327C56.9067 85.7838 57.3148 86.1291 57.3148 86.7569C57.3148 87.5416 56.6556 87.981 55.4629 87.981C54.3329 87.981 53.4854 87.7299 52.6065 87.0393L52.1671 87.981Z" fill="white"/>
<path opacity="0.7" d="M6.18347 153.802H5.0221L0 165.259H1.38108L2.6366 162.308H8.63174L9.88727 165.259H11.237L6.18347 153.802ZM8.16092 161.21H3.10743L5.61848 155.34L8.16092 161.21ZM12.3042 161.21C12.3042 163.721 13.8108 165.384 16.1649 165.384C17.2635 165.384 18.3935 164.976 19.084 164.317L18.6446 163.375C17.8285 164.003 17.0752 164.286 16.2905 164.286C14.6269 164.286 13.6538 163.156 13.6538 161.21C13.6538 159.232 14.6269 158.071 16.2905 158.071C17.0752 158.071 17.8285 158.353 18.6446 159.012L19.084 158.039C18.4248 157.38 17.3263 156.972 16.2277 156.972C13.8422 156.972 12.3042 158.698 12.3042 161.21ZM25.1733 157.16H22.8506V154.649L21.5637 155.089V157.16H19.9943V158.196H21.5637V162.81C21.5637 164.474 22.4739 165.384 24.0119 165.384C24.42 165.384 24.7966 165.321 25.1419 165.196V164.097C24.8594 164.191 24.5769 164.254 24.263 164.254C23.3842 164.254 22.8506 163.815 22.8506 162.622V158.196H25.1733V157.16ZM27.9982 155.214V153.739H26.4288V155.214H27.9982ZM27.8413 157.16H26.5544V165.259H27.8413V157.16ZM30.6976 157.192H29.3165L32.7692 165.259H33.9934L37.4775 157.192H36.1905L33.4284 163.846L30.6976 157.192ZM40.3652 155.214V153.739H38.7958V155.214H40.3652ZM40.2082 157.16H38.9213V165.259H40.2082V157.16ZM46.7997 157.16H44.477V154.649L43.1901 155.089V157.16H41.6207V158.196H43.1901V162.81C43.1901 164.474 44.1004 165.384 45.6384 165.384C46.0464 165.384 46.4231 165.321 46.7683 165.196V164.097C46.4859 164.191 46.2034 164.254 45.8895 164.254C45.0106 164.254 44.477 163.815 44.477 162.622V158.196H46.7997V157.16ZM51.2255 163.846L48.4947 157.16H47.1136L50.5349 165.164L50.221 165.886C49.9699 166.483 49.6247 166.922 49.248 167.205C48.84 167.487 48.275 167.707 47.5217 167.895L47.8042 168.9C49.5305 168.586 50.7233 167.832 51.508 166.012L55.2745 157.16H53.9876L51.2255 163.846Z" fill="white"/>
</svg>
