<svg width="144" height="42" viewBox="0 0 144 42" fill="none" xmlns="http://www.w3.org/2000/svg">
<path opacity="0.4" d="M41.7812 22.9375C42.8125 23.9062 44.25 24.375 46.0312 24.375C48.5938 24.375 50.2188 23.0938 50.2188 21.1562C50.2188 19.8438 49.4062 19.0625 48.25 18.6875C47.6875 18.5 46.9375 18.25 45.9688 18.0312C44.1562 17.5938 43.2812 17.125 43.2812 15.9688C43.2812 14.6562 44.3438 13.8438 46.125 13.8438C47.4062 13.8438 48.4688 14.2812 49.5312 15.1875L50.0625 14.1562C49.125 13.2188 47.7188 12.7188 46.125 12.7188C43.625 12.7188 41.9688 14.0625 41.9688 16.0312C41.9688 17.375 42.75 18.1875 43.875 18.6562C44.4375 18.875 45.1562 19.0625 46.0312 19.2812C47.9062 19.7188 48.875 20 48.9062 21.2188C48.9375 22.5 47.875 23.25 46.0312 23.25C44.5 23.25 43.4062 22.875 42.25 21.9375L41.7812 22.9375ZM58.9688 19.9375C58.9688 17.5 57.6875 16 55.5625 16C53.3438 16 51.7812 17.7188 51.7812 20.1875C51.7812 22.7812 53.2812 24.375 55.8125 24.375C56.9375 24.375 58.125 23.9375 58.8438 23.2812L58.4062 22.3438C57.625 22.9688 56.75 23.2812 55.8125 23.2812C54.0312 23.2812 53.0938 22.2188 53.0938 20.1875H58.9688V19.9375ZM53.125 19.3438C53.375 17.875 54.2188 17.0312 55.5625 17.0312C56.9062 17.0312 57.6875 17.8125 57.8125 19.3438H53.125ZM66.8125 17.5938C66.3125 16.5938 65.3438 16 64.0938 16C61.9688 16 60.5312 17.7188 60.5312 20.2188C60.5312 22.7188 61.9375 24.375 64.0938 24.375C65.3438 24.375 66.3438 23.8125 66.8125 22.7812V24.25H68.0938V16.1875H66.8125V17.5938ZM66.8125 20.1875C66.8125 22.1562 65.9375 23.2812 64.3438 23.2812C62.75 23.2812 61.8438 22.1875 61.8438 20.2188C61.8438 18.25 62.75 17.0938 64.3438 17.0938C65.9375 17.0938 66.8125 18.1875 66.8125 20.1875ZM74.5938 16.0938C74.375 16.0312 74.125 16 73.875 16C72.7188 16 71.75 16.5938 71.3438 17.6875L71.2188 16.1875H70C70.0625 16.875 70.125 17.625 70.125 18.4688V24.25H71.4062V19.6562C71.4062 18.9688 71.625 18.375 71.9688 17.9062C72.375 17.4062 72.9375 17.1562 73.7188 17.1562C74.0312 17.1562 74.3438 17.2188 74.5625 17.2812L74.5938 16.0938ZM76.5 20.2188C76.5 22.7188 78 24.375 80.3438 24.375C81.4375 24.375 82.5625 23.9688 83.25 23.3125L82.8125 22.375C82 23 81.25 23.2812 80.4688 23.2812C78.8125 23.2812 77.8438 22.1562 77.8438 20.2188C77.8438 18.25 78.8125 17.0938 80.4688 17.0938C81.25 17.0938 82 17.375 82.8125 18.0312L83.25 17.0625C82.5938 16.4062 81.5 16 80.4062 16C78.0312 16 76.5 17.7188 76.5 20.2188ZM92.1875 19.1875C92.1875 17.0625 91.2188 16 89.2812 16C88.0938 16 87.0938 16.5312 86.5625 17.5V12.4688H85.2812V24.25H86.5625V19.6562C86.5625 18.0938 87.5625 17.0938 89.0312 17.0938C90.3125 17.0938 90.9062 17.7812 90.9062 19.25V24.25H92.1875V19.1875Z" fill="white"/>
<rect opacity="0.6" x="0.5" y="0.5" width="143" height="41" rx="20.5" stroke="white"/>
<g opacity="0.8">
<path d="M23.25 26.25C26.5637 26.25 29.25 23.5637 29.25 20.25C29.25 16.9363 26.5637 14.25 23.25 14.25C19.9363 14.25 17.25 16.9363 17.25 20.25C17.25 23.5637 19.9363 26.25 23.25 26.25Z" stroke="white" stroke-width="1.5" stroke-linecap="round" stroke-linejoin="round"/>
<path d="M30.7499 27.75L27.4874 24.4875" stroke="white" stroke-width="1.5" stroke-linecap="round" stroke-linejoin="round"/>
</g>
</svg>
