<svg width="149" height="169" viewBox="0 0 149 169" fill="none" xmlns="http://www.w3.org/2000/svg">
<path opacity="0.7" d="M1.09536 0H0V11.423H1.22054L1.18925 3.00441L4.94476 11.423H5.85234L9.57656 2.94182V11.423H10.7971V0H9.70174L5.4142 9.85822L1.09536 0ZM16.493 10.0147L13.7702 3.34867H12.3932L15.8045 11.3291L15.4915 12.0489C15.2411 12.6436 14.8969 13.0817 14.5213 13.3634C14.1145 13.645 13.5511 13.8641 12.8 14.0519L13.0817 15.0534C14.803 14.7404 15.9922 13.9893 16.7746 12.1741L20.5301 3.34867H19.247L16.493 10.0147ZM34.05 4.75698C33.5493 3.75551 32.5791 3.16089 31.3272 3.16089C29.1991 3.16089 27.7595 4.88217 27.7595 7.38584C27.7595 9.88952 29.1678 11.5482 31.3272 11.5482C32.5791 11.5482 33.5806 10.9849 34.05 9.95211V11.423H35.3331V3.34867H34.05V4.75698ZM34.05 7.35455C34.05 9.32619 33.1737 10.4528 31.5776 10.4528C29.9815 10.4528 29.0739 9.35749 29.0739 7.38584C29.0739 5.4142 29.9815 4.25625 31.5776 4.25625C33.1737 4.25625 34.05 5.35161 34.05 7.35455ZM36.8979 7.38584C36.8979 9.88952 38.4001 11.5482 40.7473 11.5482C41.8427 11.5482 42.9693 11.1414 43.6578 10.4841L43.2197 9.54526C42.406 10.1712 41.6549 10.4528 40.8725 10.4528C39.2138 10.4528 38.2436 9.32619 38.2436 7.38584C38.2436 5.4142 39.2138 4.25625 40.8725 4.25625C41.6549 4.25625 42.406 4.53791 43.2197 5.19513L43.6578 4.22495C43.0006 3.56774 41.9053 3.16089 40.8099 3.16089C38.4314 3.16089 36.8979 4.88217 36.8979 7.38584ZM45.2226 7.38584C45.2226 9.88952 46.7248 11.5482 49.072 11.5482C50.1674 11.5482 51.2941 11.1414 51.9826 10.4841L51.5444 9.54526C50.7307 10.1712 49.9796 10.4528 49.1972 10.4528C47.5385 10.4528 46.5684 9.32619 46.5684 7.38584C46.5684 5.4142 47.5385 4.25625 49.1972 4.25625C49.9796 4.25625 50.7307 4.53791 51.5444 5.19513L51.9826 4.22495C51.3254 3.56774 50.23 3.16089 49.1346 3.16089C46.7561 3.16089 45.2226 4.88217 45.2226 7.38584ZM53.5474 7.35455C53.5474 9.88952 55.0496 11.5482 57.3342 11.5482C59.6501 11.5482 61.1523 9.88952 61.1523 7.35455C61.1523 4.81958 59.6501 3.16089 57.3342 3.16089C55.0496 3.16089 53.5474 4.81958 53.5474 7.35455ZM59.8378 7.35455C59.8378 9.38878 58.9616 10.4528 57.3342 10.4528C55.7381 10.4528 54.8618 9.38878 54.8618 7.35455C54.8618 5.3829 55.7694 4.25625 57.3342 4.25625C58.899 4.25625 59.8378 5.3829 59.8378 7.35455ZM68.632 7.91787C68.632 9.45138 67.6618 10.4528 66.2535 10.4528C65.033 10.4528 64.4384 9.79563 64.4384 8.32472V3.34867H63.1239V8.35602C63.1239 10.4528 64.1254 11.5482 66.0344 11.5482C67.1924 11.5482 68.1626 11.0162 68.6633 10.0147V11.423H69.9151V3.34867H68.632V7.91787ZM79.2726 6.35308C79.2726 4.22495 78.3025 3.16089 76.3621 3.16089C75.1103 3.16089 74.0775 3.75551 73.5768 4.81958L73.4516 3.34867H72.231C72.2936 4.03718 72.3562 4.78828 72.3562 5.63327V11.423H73.6394V6.82252C73.6394 5.25772 74.6408 4.25625 76.1117 4.25625C77.3949 4.25625 77.9895 4.94476 77.9895 6.41567V11.423H79.2726V6.35308ZM85.6883 3.34867H83.3724V0.844991L82.0893 1.28313V3.34867H80.5245V4.38143H82.0893V8.98194C82.0893 10.6406 82.9968 11.5482 84.5304 11.5482C84.9372 11.5482 85.3127 11.4856 85.657 11.3604V10.2651C85.3753 10.359 85.0937 10.4216 84.7807 10.4216C83.9044 10.4216 83.3724 9.98341 83.3724 8.79416V4.38143H85.6883V3.34867Z" fill="#964ECE"/>
<path opacity="0.7" d="M1.09536 39.0573H0V50.4804H1.22054L1.18925 42.0618L4.94476 50.4804H5.85234L9.57656 41.9992V50.4804H10.7971V39.0573H9.70174L5.4142 48.9156L1.09536 39.0573ZM16.493 49.072L13.7702 42.406H12.3932L15.8045 50.3865L15.4915 51.1063C15.2411 51.7009 14.8969 52.139 14.5213 52.4207C14.1145 52.7024 13.5511 52.9214 12.8 53.1092L13.0817 54.1107C14.803 53.7977 15.9922 53.0466 16.7746 51.2315L20.5301 42.406H19.247L16.493 49.072ZM35.8339 46.4432C35.8339 43.9395 34.3942 42.2182 32.2348 42.2182C30.9204 42.2182 29.9189 42.8754 29.4495 43.9708L29.3243 42.406H28.1038C28.1664 43.0945 28.2289 43.8456 28.2289 44.6906V53.9542H29.5121V48.9782C30.0128 50.0109 30.983 50.6055 32.2348 50.6055C34.3942 50.6055 35.8339 48.9469 35.8339 46.4432ZM34.4881 46.4432C34.4881 48.4148 33.5806 49.5102 32.0158 49.5102C30.4197 49.5102 29.5121 48.3835 29.5121 46.4119C29.5121 44.4089 30.4197 43.3136 32.0158 43.3136C33.5493 43.3136 34.4881 44.4715 34.4881 46.4432ZM42.6877 42.3121C42.4686 42.2495 42.2182 42.2182 41.9679 42.2182C40.8099 42.2182 39.8397 42.8129 39.4329 43.9082L39.3077 42.406H38.0872C38.1498 43.0945 38.2124 43.8456 38.2124 44.6906V50.4804H39.4955V45.8799C39.4955 45.1913 39.7146 44.5967 40.0588 44.1273C40.4657 43.6265 41.029 43.3762 41.8114 43.3762C42.1243 43.3762 42.4373 43.4388 42.6564 43.5014L42.6877 42.3121ZM44.5967 46.4119C44.5967 48.9469 46.0989 50.6055 48.3835 50.6055C50.6994 50.6055 52.2016 48.9469 52.2016 46.4119C52.2016 43.8769 50.6994 42.2182 48.3835 42.2182C46.0989 42.2182 44.5967 43.8769 44.5967 46.4119ZM50.8872 46.4119C50.8872 48.4461 50.0109 49.5102 48.3835 49.5102C46.7874 49.5102 45.9112 48.4461 45.9112 46.4119C45.9112 44.4402 46.8187 43.3136 48.3835 43.3136C49.9483 43.3136 50.8872 44.4402 50.8872 46.4119ZM55.9572 41.3419C55.9572 40.184 56.4892 39.7459 57.3342 39.7459C57.5845 39.7459 57.8662 39.7771 58.1479 39.871V38.7757C57.8036 38.6818 57.4281 38.6192 57.0838 38.6192C55.5503 38.6192 54.674 39.4955 54.674 41.1855V42.406H53.1092V43.4388H54.674V50.4804H55.9572V43.4388H57.9288V42.406H55.9572V41.3419ZM60.9645 40.4657V38.9947H59.3997V40.4657H60.9645ZM60.808 42.406H59.5249V50.4804H60.808V42.406ZM64.6261 38.6818H63.343V50.4804H64.6261V38.6818ZM73.8584 46.1615C73.8584 43.7204 72.5753 42.2182 70.4472 42.2182C68.2252 42.2182 66.6604 43.9395 66.6604 46.4119C66.6604 49.0095 68.1626 50.6055 70.6975 50.6055C71.8242 50.6055 73.0134 50.1674 73.7332 49.5102L73.2951 48.5713C72.5127 49.1972 71.6364 49.5102 70.6975 49.5102C68.9137 49.5102 67.9748 48.4461 67.9748 46.4119H73.8584V46.1615ZM68.0061 45.5669C68.2565 44.096 69.1014 43.251 70.4472 43.251C71.7929 43.251 72.5753 44.0334 72.7005 45.5669H68.0061Z" fill="white"/>
<path opacity="0.7" d="M1.09536 115.169H0V126.592H1.22054L1.18925 118.173L4.94476 126.592H5.85234L9.57656 118.111V126.592H10.7971V115.169H9.70174L5.4142 125.027L1.09536 115.169ZM16.493 125.184L13.7702 118.518H12.3932L15.8045 126.498L15.4915 127.218C15.2411 127.813 14.8969 128.251 14.5213 128.532C14.1145 128.814 13.5511 129.033 12.8 129.221L13.0817 130.222C14.803 129.909 15.9922 129.158 16.7746 127.343L20.5301 118.518H19.247L16.493 125.184ZM29.9502 117.454C29.9502 116.296 30.4823 115.858 31.3272 115.858C31.5776 115.858 31.8593 115.889 32.1409 115.983V114.887C31.7967 114.794 31.4211 114.731 31.0769 114.731C29.5434 114.731 28.6671 115.607 28.6671 117.297V118.518H27.1023V119.551H28.6671V126.592H29.9502V119.551H31.9219V118.518H29.9502V117.454ZM39.339 119.926C38.8383 118.925 37.8681 118.33 36.6163 118.33C34.4881 118.33 33.0485 120.051 33.0485 122.555C33.0485 125.059 34.4568 126.717 36.6163 126.717C37.8681 126.717 38.8696 126.154 39.339 125.121V126.592H40.6221V118.518H39.339V119.926ZM39.339 122.524C39.339 124.495 38.4627 125.622 36.8666 125.622C35.2705 125.622 34.3629 124.527 34.3629 122.555C34.3629 120.583 35.2705 119.425 36.8666 119.425C38.4627 119.425 39.339 120.521 39.339 122.524ZM42.9693 118.549H41.5923L45.0349 126.592H46.2554L49.7293 118.549H48.4461L45.6921 125.184L42.9693 118.549ZM50.6994 122.524C50.6994 125.059 52.2016 126.717 54.4862 126.717C56.8021 126.717 58.3043 125.059 58.3043 122.524C58.3043 119.989 56.8021 118.33 54.4862 118.33C52.2016 118.33 50.6994 119.989 50.6994 122.524ZM56.9899 122.524C56.9899 124.558 56.1136 125.622 54.4862 125.622C52.8901 125.622 52.0139 124.558 52.0139 122.524C52.0139 120.552 52.9214 119.425 54.4862 119.425C56.051 119.425 56.9899 120.552 56.9899 122.524ZM65.7841 123.087C65.7841 124.62 64.8139 125.622 63.4056 125.622C62.185 125.622 61.5904 124.965 61.5904 123.494V118.518H60.276V123.525C60.276 125.622 61.2775 126.717 63.1865 126.717C64.3445 126.717 65.3146 126.185 65.8154 125.184V126.592H67.0672V118.518H65.7841V123.087ZM73.9836 118.424C73.7645 118.361 73.5142 118.33 73.2638 118.33C72.1059 118.33 71.1357 118.925 70.7288 120.02L70.6037 118.518H69.3831C69.4457 119.206 69.5083 119.957 69.5083 120.802V126.592H70.7914V121.992C70.7914 121.303 71.0105 120.708 71.3548 120.239C71.7616 119.738 72.3249 119.488 73.1073 119.488C73.4203 119.488 73.7332 119.551 73.9523 119.613L73.9836 118.424ZM77.8017 116.577V115.106H76.2369V116.577H77.8017ZM77.6452 118.518H76.3621V126.592H77.6452V118.518ZM84.2174 118.518H81.9015V116.014L80.6184 116.452V118.518H79.0536V119.551H80.6184V124.151C80.6184 125.81 81.5259 126.717 83.0594 126.717C83.4663 126.717 83.8418 126.655 84.1861 126.53V125.434C83.9044 125.528 83.6228 125.591 83.3098 125.591C82.4335 125.591 81.9015 125.152 81.9015 123.963V119.551H84.2174V118.518ZM92.323 122.273C92.323 119.832 91.0399 118.33 88.9118 118.33C86.6898 118.33 85.125 120.051 85.125 122.524C85.125 125.121 86.6272 126.717 89.1622 126.717C90.2888 126.717 91.4781 126.279 92.1979 125.622L91.7597 124.683C90.9773 125.309 90.101 125.622 89.1622 125.622C87.3783 125.622 86.4394 124.558 86.4394 122.524H92.323V122.273ZM86.4707 121.679C86.7211 120.208 87.5661 119.363 88.9118 119.363C90.2575 119.363 91.0399 120.145 91.1651 121.679H86.4707Z" fill="white"/>
<path opacity="0.7" d="M1.09536 77.1132H0V88.5362H1.22054L1.18925 80.1176L4.94476 88.5362H5.85234L9.57656 80.055V88.5362H10.7971V77.1132H9.70174L5.4142 86.9714L1.09536 77.1132ZM16.493 87.1279L13.7702 80.4619H12.3932L15.8045 88.4423L15.4915 89.1622C15.2411 89.7568 14.8969 90.1949 14.5213 90.4766C14.1145 90.7582 13.5511 90.9773 12.8 91.1651L13.0817 92.1666C14.803 91.8536 15.9922 91.1025 16.7746 89.2873L20.5301 80.4619H19.247L16.493 87.1279ZM27.7595 84.4991C27.7595 87.0027 29.2617 88.6614 31.6089 88.6614C32.7043 88.6614 33.8309 88.2546 34.5194 87.5974L34.0813 86.6585C33.2676 87.2844 32.5165 87.5661 31.7341 87.5661C30.0754 87.5661 29.1052 86.4394 29.1052 84.4991C29.1052 82.5274 30.0754 81.3695 31.7341 81.3695C32.5165 81.3695 33.2676 81.6511 34.0813 82.3083L34.5194 81.3382C33.8622 80.6809 32.7669 80.2741 31.6715 80.2741C29.293 80.2741 27.7595 81.9954 27.7595 84.4991ZM36.0842 84.4678C36.0842 87.0027 37.5864 88.6614 39.871 88.6614C42.1869 88.6614 43.6891 87.0027 43.6891 84.4678C43.6891 81.9328 42.1869 80.2741 39.871 80.2741C37.5864 80.2741 36.0842 81.9328 36.0842 84.4678ZM42.3747 84.4678C42.3747 86.502 41.4984 87.5661 39.871 87.5661C38.2749 87.5661 37.3987 86.502 37.3987 84.4678C37.3987 82.4961 38.3062 81.3695 39.871 81.3695C41.4358 81.3695 42.3747 82.4961 42.3747 84.4678ZM47.0065 76.7377H45.7234V88.5362H47.0065V76.7377ZM50.7933 76.7377H49.5102V88.5362H50.7933V76.7377ZM60.0256 84.2174C60.0256 81.7763 58.7425 80.2741 56.6144 80.2741C54.3924 80.2741 52.8276 81.9954 52.8276 84.4678C52.8276 87.0653 54.3298 88.6614 56.8647 88.6614C57.9914 88.6614 59.1806 88.2233 59.9004 87.5661L59.4623 86.6272C58.6799 87.2531 57.8036 87.5661 56.8647 87.5661C55.0809 87.5661 54.142 86.502 54.142 84.4678H60.0256V84.2174ZM54.1733 83.6228C54.4237 82.1519 55.2686 81.3069 56.6144 81.3069C57.9601 81.3069 58.7425 82.0893 58.8677 83.6228H54.1733ZM61.5904 84.4991C61.5904 87.0027 63.0926 88.6614 65.4398 88.6614C66.5352 88.6614 67.6618 88.2546 68.3503 87.5974L67.9122 86.6585C67.0985 87.2844 66.3474 87.5661 65.565 87.5661C63.9063 87.5661 62.9361 86.4394 62.9361 84.4991C62.9361 82.5274 63.9063 81.3695 65.565 81.3695C66.3474 81.3695 67.0985 81.6511 67.9122 82.3083L68.3503 81.3382C67.6931 80.6809 66.5978 80.2741 65.5024 80.2741C63.1239 80.2741 61.5904 81.9954 61.5904 84.4991ZM74.4218 80.4619H72.1059V77.9582L70.8227 78.3963V80.4619H69.2579V81.4946H70.8227V86.0951C70.8227 87.7538 71.7303 88.6614 73.2638 88.6614C73.6707 88.6614 74.0462 88.5988 74.3905 88.4736V87.3783C74.1088 87.4722 73.8271 87.5348 73.5142 87.5348C72.6379 87.5348 72.1059 87.0966 72.1059 85.9074V81.4946H74.4218V80.4619ZM77.2384 78.5215V77.0506H75.6736V78.5215H77.2384ZM77.0819 80.4619H75.7988V88.5362H77.0819V80.4619ZM79.1474 84.4678C79.1474 87.0027 80.6497 88.6614 82.9343 88.6614C85.2502 88.6614 86.7524 87.0027 86.7524 84.4678C86.7524 81.9328 85.2502 80.2741 82.9343 80.2741C80.6497 80.2741 79.1474 81.9328 79.1474 84.4678ZM85.4379 84.4678C85.4379 86.502 84.5616 87.5661 82.9343 87.5661C81.3382 87.5661 80.4619 86.502 80.4619 84.4678C80.4619 82.4961 81.3695 81.3695 82.9343 81.3695C84.4991 81.3695 85.4379 82.4961 85.4379 84.4678ZM95.703 83.4663C95.703 81.3382 94.7328 80.2741 92.7925 80.2741C91.5406 80.2741 90.5079 80.8687 90.0071 81.9328L89.882 80.4619H88.6614C88.724 81.1504 88.7866 81.9015 88.7866 82.7465V88.5362H90.0697V83.9357C90.0697 82.3709 91.0712 81.3695 92.5421 81.3695C93.8252 81.3695 94.4199 82.058 94.4199 83.5289V88.5362H95.703V83.4663Z" fill="white"/>
<path opacity="0.7" d="M1.09536 153.225H0V164.648H1.22054L1.18925 156.229L4.94476 164.648H5.85234L9.57656 156.167V164.648H10.7971V153.225H9.70174L5.4142 163.083L1.09536 153.225ZM16.493 163.24L13.7702 156.574H12.3932L15.8045 164.554L15.4915 165.274C15.2411 165.869 14.8969 166.307 14.5213 166.588C14.1145 166.87 13.5511 167.089 12.8 167.277L13.0817 168.278C14.803 167.965 15.9922 167.214 16.7746 165.399L20.5301 156.574H19.247L16.493 163.24ZM34.05 157.982C33.5493 156.98 32.5791 156.386 31.3272 156.386C29.1991 156.386 27.7595 158.107 27.7595 160.611C27.7595 163.114 29.1678 164.773 31.3272 164.773C32.5791 164.773 33.5806 164.21 34.05 163.177V164.648H35.3331V156.574H34.05V157.982ZM34.05 160.58C34.05 162.551 33.1737 163.678 31.5776 163.678C29.9815 163.678 29.0739 162.582 29.0739 160.611C29.0739 158.639 29.9815 157.481 31.5776 157.481C33.1737 157.481 34.05 158.577 34.05 160.58ZM36.8979 160.611C36.8979 163.114 38.4001 164.773 40.7473 164.773C41.8427 164.773 42.9693 164.366 43.6578 163.709L43.2197 162.77C42.406 163.396 41.6549 163.678 40.8725 163.678C39.2138 163.678 38.2436 162.551 38.2436 160.611C38.2436 158.639 39.2138 157.481 40.8725 157.481C41.6549 157.481 42.406 157.763 43.2197 158.42L43.6578 157.45C43.0006 156.793 41.9053 156.386 40.8099 156.386C38.4314 156.386 36.8979 158.107 36.8979 160.611ZM45.2226 160.611C45.2226 163.114 46.7248 164.773 49.072 164.773C50.1674 164.773 51.2941 164.366 51.9826 163.709L51.5444 162.77C50.7307 163.396 49.9796 163.678 49.1972 163.678C47.5385 163.678 46.5684 162.551 46.5684 160.611C46.5684 158.639 47.5385 157.481 49.1972 157.481C49.9796 157.481 50.7307 157.763 51.5444 158.42L51.9826 157.45C51.3254 156.793 50.23 156.386 49.1346 156.386C46.7561 156.386 45.2226 158.107 45.2226 160.611ZM53.5474 160.58C53.5474 163.114 55.0496 164.773 57.3342 164.773C59.6501 164.773 61.1523 163.114 61.1523 160.58C61.1523 158.045 59.6501 156.386 57.3342 156.386C55.0496 156.386 53.5474 158.045 53.5474 160.58ZM59.8378 160.58C59.8378 162.614 58.9616 163.678 57.3342 163.678C55.7381 163.678 54.8618 162.614 54.8618 160.58C54.8618 158.608 55.7694 157.481 57.3342 157.481C58.899 157.481 59.8378 158.608 59.8378 160.58ZM68.632 161.143C68.632 162.676 67.6618 163.678 66.2535 163.678C65.033 163.678 64.4384 163.021 64.4384 161.55V156.574H63.1239V161.581C63.1239 163.678 64.1254 164.773 66.0344 164.773C67.1924 164.773 68.1626 164.241 68.6633 163.24V164.648H69.9151V156.574H68.632V161.143ZM79.2726 159.578C79.2726 157.45 78.3025 156.386 76.3621 156.386C75.1103 156.386 74.0775 156.98 73.5768 158.045L73.4516 156.574H72.231C72.2936 157.262 72.3562 158.013 72.3562 158.858V164.648H73.6394V160.047C73.6394 158.483 74.6408 157.481 76.1117 157.481C77.3949 157.481 77.9895 158.17 77.9895 159.641V164.648H79.2726V159.578ZM85.6883 156.574H83.3724V154.07L82.0893 154.508V156.574H80.5245V157.606H82.0893V162.207C82.0893 163.866 82.9968 164.773 84.5304 164.773C84.9372 164.773 85.3127 164.711 85.657 164.585V163.49C85.3753 163.584 85.0937 163.647 84.7807 163.647C83.9044 163.647 83.3724 163.208 83.3724 162.019V157.606H85.6883V156.574ZM92.8238 163.709C93.6062 164.398 94.6702 164.773 96.0473 164.773C97.9876 164.773 99.2081 163.866 99.2081 162.457C99.2081 161.331 98.4883 160.642 96.9861 160.267L95.6404 159.922C94.7641 159.735 94.3886 159.359 94.3886 158.702C94.3886 157.919 95.0458 157.45 96.2037 157.45C97.0487 157.45 97.8624 157.763 98.6135 158.389L99.0517 157.45C98.3632 156.761 97.3304 156.386 96.2037 156.386C94.326 156.386 93.1054 157.387 93.1054 158.796C93.1054 159.86 93.8565 160.642 95.2023 160.955L96.5793 161.268C97.5495 161.518 97.9563 161.863 97.9563 162.489C97.9563 163.271 97.2991 163.709 96.1099 163.709C94.9832 163.709 94.1382 163.459 93.2619 162.77L92.8238 163.709ZM107.94 160.329C107.94 157.888 106.657 156.386 104.528 156.386C102.306 156.386 100.742 158.107 100.742 160.58C100.742 163.177 102.244 164.773 104.779 164.773C105.905 164.773 107.095 164.335 107.815 163.678L107.376 162.739C106.594 163.365 105.718 163.678 104.779 163.678C102.995 163.678 102.056 162.614 102.056 160.58H107.94V160.329ZM102.087 159.735C102.338 158.264 103.183 157.419 104.528 157.419C105.874 157.419 106.657 158.201 106.782 159.735H102.087ZM114.011 156.574H111.695V154.07L110.412 154.508V156.574H108.847V157.606H110.412V162.207C110.412 163.866 111.32 164.773 112.853 164.773C113.26 164.773 113.636 164.711 113.98 164.585V163.49C113.698 163.584 113.417 163.647 113.104 163.647C112.227 163.647 111.695 163.208 111.695 162.019V157.606H114.011V156.574ZM119.425 156.574H117.109V154.07L115.826 154.508V156.574H114.261V157.606H115.826V162.207C115.826 163.866 116.734 164.773 118.267 164.773C118.674 164.773 119.05 164.711 119.394 164.585V163.49C119.112 163.584 118.831 163.647 118.518 163.647C117.641 163.647 117.109 163.208 117.109 162.019V157.606H119.425V156.574ZM122.242 154.633V153.162H120.677V154.633H122.242ZM122.085 156.574H120.802V164.648H122.085V156.574ZM131.537 159.578C131.537 157.45 130.567 156.386 128.626 156.386C127.375 156.386 126.342 156.98 125.841 158.045L125.716 156.574H124.495C124.558 157.262 124.62 158.013 124.62 158.858V164.648H125.904V160.047C125.904 158.483 126.905 157.481 128.376 157.481C129.659 157.481 130.254 158.17 130.254 159.641V164.648H131.537V159.578ZM139.799 157.982C139.298 156.98 138.328 156.386 137.045 156.386C134.886 156.386 133.446 158.013 133.446 160.392C133.446 162.802 134.886 164.398 137.045 164.398C138.328 164.398 139.298 163.803 139.799 162.802V164.711C139.799 166.307 139.017 167.152 137.452 167.152C136.356 167.152 135.543 166.901 134.51 166.338L134.291 167.402C135.167 167.934 136.231 168.216 137.452 168.216C139.83 168.216 141.082 166.964 141.082 164.585V156.574H139.799V157.982ZM139.799 160.392C139.799 162.207 138.86 163.334 137.295 163.334C135.699 163.334 134.76 162.207 134.76 160.392C134.76 158.577 135.699 157.481 137.295 157.481C138.86 157.481 139.799 158.577 139.799 160.392ZM142.616 163.709C143.398 164.398 144.462 164.773 145.839 164.773C147.779 164.773 149 163.866 149 162.457C149 161.331 148.28 160.642 146.778 160.267L145.432 159.922C144.556 159.735 144.18 159.359 144.18 158.702C144.18 157.919 144.838 157.45 145.996 157.45C146.841 157.45 147.654 157.763 148.405 158.389L148.844 157.45C148.155 156.761 147.122 156.386 145.996 156.386C144.118 156.386 142.897 157.387 142.897 158.796C142.897 159.86 143.648 160.642 144.994 160.955L146.371 161.268C147.341 161.518 147.748 161.863 147.748 162.489C147.748 163.271 147.091 163.709 145.902 163.709C144.775 163.709 143.93 163.459 143.054 162.77L142.616 163.709Z" fill="white"/>
</svg>
