<svg width="120" height="120" viewBox="0 0 120 120" fill="none" xmlns="http://www.w3.org/2000/svg">
<path fill-rule="evenodd" clip-rule="evenodd" d="M60 0C93.1394 0 120 26.8606 120 60C120 93.1394 93.1394 120 60 120C26.8606 120 0 93.1394 0 60C0 26.8606 26.8606 0 60 0Z" fill="#F0B90B"/>
<path d="M32.976 59.9999L33.0192 75.8653L46.5 83.798V93.0865L25.1298 80.5528V55.3605L32.976 59.9999ZM32.976 44.1345V53.3797L25.125 48.7355V39.4903L32.976 34.8461L40.8654 39.4903L32.976 44.1345ZM52.1298 39.4903L59.9808 34.8461L67.8702 39.4903L59.9808 44.1345L52.1298 39.4903Z" fill="white"/>
<path d="M38.649 72.5768V63.2884L46.5 67.9326V77.1778L38.649 72.5768ZM52.1298 87.1249L59.9808 91.7691L67.8702 87.1249V96.3701L59.9808 101.014L52.1298 96.3701V87.1249ZM79.1298 39.4903L86.9808 34.8461L94.8702 39.4903V48.7355L86.9808 53.3797V44.1345L79.1298 39.4903ZM86.9808 75.8653L87.024 59.9999L94.875 55.3557V80.548L73.5048 93.0816V83.7932L86.9808 75.8653Z" fill="white"/>
<path d="M81.351 72.5769L73.5 77.1779V67.9327L81.351 63.2885V72.5769Z" fill="white"/>
<path d="M81.351 47.4231L81.3942 56.7116L67.875 64.6442V80.5481L60.024 85.1491L52.1731 80.5481V64.6442L38.6539 56.7116V47.4231L46.5385 42.7789L59.976 50.75L73.4952 42.7789L81.3846 47.4231H81.351ZM38.649 31.5625L59.9808 18.9856L81.351 31.5625L73.5 36.2067L59.9808 28.2356L46.5 36.2067L38.649 31.5625Z" fill="white"/>
</svg>
