<svg width="276" height="276" viewBox="0 0 276 276" fill="none" xmlns="http://www.w3.org/2000/svg">
<g opacity="0.02">
<circle cx="269.429" cy="134.715" r="6.57143" transform="rotate(90 269.429 134.715)" fill="white"/>
<circle cx="230" cy="134.715" r="6.57143" transform="rotate(90 230 134.715)" fill="white"/>
<circle cx="190.571" cy="134.715" r="6.57143" transform="rotate(90 190.571 134.715)" fill="white"/>
<circle cx="233.257" cy="228.611" r="6.57143" transform="rotate(135 233.257 228.611)" fill="white"/>
<circle cx="205.377" cy="200.731" r="6.57143" transform="rotate(135 205.377 200.731)" fill="white"/>
<circle cx="177.497" cy="172.851" r="6.57143" transform="rotate(135 177.497 172.851)" fill="white"/>
<circle cx="141.286" cy="269.429" r="6.57143" transform="rotate(-180 141.286 269.429)" fill="white"/>
<circle cx="141.286" cy="230" r="6.57143" transform="rotate(-180 141.286 230)" fill="white"/>
<circle cx="141.286" cy="190.571" r="6.57143" transform="rotate(-180 141.286 190.571)" fill="white"/>
<circle cx="47.3892" cy="233.258" r="6.57143" transform="rotate(-135 47.3892 233.258)" fill="white"/>
<circle cx="75.27" cy="205.377" r="6.57143" transform="rotate(-135 75.27 205.377)" fill="white"/>
<circle cx="103.149" cy="177.497" r="6.57143" transform="rotate(-135 103.149 177.497)" fill="white"/>
<circle cx="6.57143" cy="141.286" r="6.57143" transform="rotate(-90 6.57143 141.286)" fill="white"/>
<circle cx="45.9999" cy="141.286" r="6.57143" transform="rotate(-90 45.9999 141.286)" fill="white"/>
<circle cx="85.4284" cy="141.286" r="6.57143" transform="rotate(-90 85.4284 141.286)" fill="white"/>
<circle cx="42.7433" cy="47.3892" r="6.57143" transform="rotate(-45 42.7433 47.3892)" fill="white"/>
<circle cx="70.6235" cy="75.2697" r="6.57143" transform="rotate(-45 70.6235 75.2697)" fill="white"/>
<circle cx="98.5036" cy="103.15" r="6.57143" transform="rotate(-45 98.5036 103.15)" fill="white"/>
<circle cx="134.714" cy="6.57143" r="6.57143" fill="white"/>
<circle cx="134.714" cy="45.9999" r="6.57143" fill="white"/>
<circle cx="134.714" cy="85.4284" r="6.57143" fill="white"/>
<circle cx="228.61" cy="42.7432" r="6.57143" transform="rotate(45 228.61 42.7432)" fill="white"/>
<circle cx="200.73" cy="70.6234" r="6.57143" transform="rotate(45 200.73 70.6234)" fill="white"/>
<circle cx="172.85" cy="98.5035" r="6.57143" transform="rotate(45 172.85 98.5035)" fill="white"/>
</g>
</svg>
