<svg width="54" height="15" viewBox="0 0 54 15" fill="none" xmlns="http://www.w3.org/2000/svg">
<path d="M10 13.0625C10 13.625 9.53125 14.0625 9 14.0625H1C0.4375 14.0625 0 13.625 0 13.0625V1.0625C0 0.53125 0.4375 0.09375 1 0.09375H9C9.53125 0.09375 10 0.53125 10 1.09375C10 1.625 9.53125 2.09375 9 2.09375H2V6.09375H7C7.53125 6.09375 8 6.53125 8 7.0625C8 7.625 7.53125 8.09375 7 8.09375H2V12.0938H9C9.53125 12.0625 10 12.5312 10 13.0625ZM24 1.09375V13.0938C24 13.625 23.5312 14.0938 23 14.0938C22.4375 14.0938 22 13.625 22 13.0938V4.375L17.8125 10.625C17.4375 11.1875 16.5312 11.1875 16.1562 10.625L12 4.375V13.0625C12 13.625 11.5312 14.0625 11 14.0625C10.4375 14.0625 10 13.625 10 13.0625V1.0625C10 0.625 10.2812 0.25 10.6875 0.125C11.125 0 11.5625 0.15625 11.8125 0.53125L17 8.28125L22.1562 0.53125C22.4062 0.15625 22.8438 0 23.2812 0.125C23.6875 0.25 24 0.625 24 1.09375ZM34 13.0625C34 13.625 33.5312 14.0625 33 14.0625H25C24.4375 14.0625 24 13.625 24 13.0625C24 12.5312 24.4375 12.0625 25 12.0625H28V2.0625H25C24.4375 2.0625 24 1.625 24 1.0625C24 0.53125 24.4375 0.0625 25 0.0625H33C33.5312 0.0625 34 0.53125 34 1.0625C34 1.625 33.5312 2.0625 33 2.0625H30V12.0625H33C33.5312 12.0625 34 12.5312 34 13.0625ZM44 13.0625C44 13.625 43.5312 14.0625 43 14.0625H36C35.4375 14.0625 35 13.625 35 13.0625V1.0625C35 0.53125 35.4375 0.09375 36 0.09375C36.5312 0.09375 37 0.53125 37 1.09375V12.0938H43C43.5312 12.0625 44 12.5312 44 13.0625ZM54 13.0625C54 13.625 53.5312 14.0625 53 14.0625H45C44.4375 14.0625 44 13.625 44 13.0625V1.0625C44 0.53125 44.4375 0.09375 45 0.09375H53C53.5312 0.09375 54 0.53125 54 1.09375C54 1.625 53.5312 2.09375 53 2.09375H46V6.09375H51C51.5312 6.09375 52 6.53125 52 7.0625C52 7.625 51.5312 8.09375 51 8.09375H46V12.0938H53C53.5312 12.0625 54 12.5312 54 13.0625Z" fill="white"/>
</svg>
