<svg width="136" height="136" viewBox="0 0 136 136" fill="none" xmlns="http://www.w3.org/2000/svg">
<circle cx="111.84" cy="21.3316" r="3.49999" transform="rotate(45 111.84 21.3316)" stroke="white"/>
<circle cx="126.363" cy="41.661" r="3.49999" transform="rotate(67.5 126.363 41.661)" stroke="white"/>
<circle cx="132" cy="66.0004" r="3.49999" transform="rotate(90 132 66.0004)" stroke="white"/>
<circle cx="127.894" cy="90.6441" r="3.49999" transform="rotate(112.5 127.894 90.6441)" stroke="white"/>
<circle cx="114.669" cy="111.841" r="3.49999" transform="rotate(135 114.669 111.841)" stroke="white"/>
<circle cx="94.3394" cy="126.363" r="3.49999" transform="rotate(157.5 94.3394 126.363)" stroke="white"/>
<circle cx="70" cy="132" r="3.49999" transform="rotate(180 70 132)" stroke="white"/>
<circle cx="45.356" cy="127.894" r="3.49999" transform="rotate(-157.5 45.356 127.894)" stroke="white"/>
<circle cx="24.1593" cy="114.669" r="3.49999" transform="rotate(-135 24.1593 114.669)" stroke="white"/>
<circle cx="9.63706" cy="94.3395" r="3.49999" transform="rotate(-112.5 9.63706 94.3395)" stroke="white"/>
<circle cx="3.99999" cy="70.0001" r="3.49999" transform="rotate(-90 3.99999 70.0001)" stroke="white"/>
<circle cx="8.10636" cy="45.3561" r="3.49999" transform="rotate(-67.5 8.10636 45.3561)" stroke="white"/>
<circle cx="21.3309" cy="24.1596" r="3.49999" transform="rotate(-45 21.3309 24.1596)" stroke="white"/>
<circle cx="41.6604" cy="9.63742" r="3.49999" transform="rotate(-22.5 41.6604 9.63742)" stroke="white"/>
<circle cx="65.9999" cy="4.00024" r="3.49999" stroke="white"/>
<circle cx="90.644" cy="8.1071" r="3.49999" transform="rotate(22.5 90.644 8.1071)" stroke="white"/>
</svg>
