<svg width="59" height="14" viewBox="0 0 59 14" fill="none" xmlns="http://www.w3.org/2000/svg">
<path d="M1.24548 0.427021H0V13.4156H1.38782L1.35223 3.84318L5.62244 13.4156H6.6544L10.889 3.77201V13.4156H12.2768V0.427021H11.0314L6.15621 11.6363L1.24548 0.427021ZM21.9204 5.83595C21.351 4.69723 20.2479 4.02111 18.8245 4.02111C16.4047 4.02111 14.7678 5.97829 14.7678 8.82509C14.7678 11.6719 16.3691 13.5579 18.8245 13.5579C20.2479 13.5579 21.3866 12.9174 21.9204 11.7431V13.4156H23.3794V4.23462H21.9204V5.83595ZM21.9204 8.78951C21.9204 11.0314 20.924 12.3124 19.1092 12.3124C17.2943 12.3124 16.2624 11.0669 16.2624 8.82509C16.2624 6.58323 17.2943 5.26659 19.1092 5.26659C20.924 5.26659 21.9204 6.51206 21.9204 8.78951ZM30.7811 4.12786C30.532 4.05669 30.2473 4.02111 29.9626 4.02111C28.646 4.02111 27.5428 4.69723 27.0802 5.9427L26.9379 4.23462H25.5501C25.6212 5.01749 25.6924 5.87153 25.6924 6.83233V13.4156H27.1514V8.18456C27.1514 7.40169 27.4005 6.72557 27.7919 6.1918C28.2545 5.62244 28.8951 5.33776 29.7847 5.33776C30.1405 5.33776 30.4964 5.40893 30.7455 5.4801L30.7811 4.12786ZM41.1363 4.27021H39.2859L34.9445 8.46924V0H33.4855V13.4156H34.9445V9.00302L39.6773 13.4156H41.5989L36.5458 8.64717L41.1363 4.27021ZM52.0965 8.50483C52.0965 5.72919 50.6375 4.02111 48.2177 4.02111C45.6912 4.02111 43.9119 5.97829 43.9119 8.78951C43.9119 11.7431 45.62 13.5579 48.5024 13.5579C49.7835 13.5579 51.1357 13.0597 51.9542 12.3124L51.456 11.2449C50.5663 11.9566 49.57 12.3124 48.5024 12.3124C46.4741 12.3124 45.4065 11.1025 45.4065 8.78951H52.0965V8.50483ZM45.4421 7.82871C45.7268 6.15621 46.6876 5.19542 48.2177 5.19542C49.7479 5.19542 50.6375 6.08504 50.7799 7.82871H45.4421ZM59 4.23462H56.3667V1.38782L54.9077 1.88601V4.23462H53.1285V5.40893H54.9077V10.6399C54.9077 12.5259 55.9397 13.5579 57.6834 13.5579C58.146 13.5579 58.573 13.4867 58.9644 13.3444V12.0989C58.6441 12.2057 58.3239 12.2768 57.968 12.2768C56.9717 12.2768 56.3667 11.7786 56.3667 10.4264V5.40893H59V4.23462Z" fill="white"/>
</svg>
