<svg width="290" height="80" viewBox="0 0 290 80" fill="none" xmlns="http://www.w3.org/2000/svg">
<path opacity="0.7" d="M5.375 1.5H9.34375V0.375H0.0625V1.5H4.03125V11.7812H5.375V1.5ZM17.6875 6.71875C17.6875 4.59375 16.7188 3.53125 14.7812 3.53125C13.5938 3.53125 12.5938 4.0625 12.0625 5.03125V0H10.7812V11.7812H12.0625V7.1875C12.0625 5.625 13.0625 4.625 14.5312 4.625C15.8125 4.625 16.4062 5.3125 16.4062 6.78125V11.7812H17.6875V6.71875ZM26.9062 7.46875C26.9062 5.03125 25.625 3.53125 23.5 3.53125C21.2812 3.53125 19.7188 5.25 19.7188 7.71875C19.7188 10.3125 21.2188 11.9062 23.75 11.9062C24.875 11.9062 26.0625 11.4688 26.7812 10.8125L26.3438 9.875C25.5625 10.5 24.6875 10.8125 23.75 10.8125C21.9688 10.8125 21.0312 9.75 21.0312 7.71875H26.9062V7.46875ZM21.0625 6.875C21.3125 5.40625 22.1562 4.5625 23.5 4.5625C24.8438 4.5625 25.625 5.34375 25.75 6.875H21.0625ZM41.5 3.71875H40.3438L38 10.2188L35.7188 3.71875H34.375L37.3438 11.7812H38.5938L40.875 5.5L43.1875 11.7812H44.4375L47.4062 3.71875H46.125L43.8125 10.25L41.5 3.71875ZM48.625 7.71875C48.625 10.25 50.125 11.9062 52.4062 11.9062C54.7188 11.9062 56.2188 10.25 56.2188 7.71875C56.2188 5.1875 54.7188 3.53125 52.4062 3.53125C50.125 3.53125 48.625 5.1875 48.625 7.71875ZM54.9062 7.71875C54.9062 9.75 54.0312 10.8125 52.4062 10.8125C50.8125 10.8125 49.9375 9.75 49.9375 7.71875C49.9375 5.75 50.8438 4.625 52.4062 4.625C53.9688 4.625 54.9062 5.75 54.9062 7.71875ZM62.7188 3.625C62.5 3.5625 62.25 3.53125 62 3.53125C60.8438 3.53125 59.875 4.125 59.4688 5.21875L59.3438 3.71875H58.125C58.1875 4.40625 58.25 5.15625 58.25 6V11.7812H59.5312V7.1875C59.5312 6.5 59.75 5.90625 60.0938 5.4375C60.5 4.9375 61.0625 4.6875 61.8438 4.6875C62.1562 4.6875 62.4688 4.75 62.6875 4.8125L62.7188 3.625ZM66.375 0H65.0938V11.7812H66.375V0ZM74.6562 5.09375C74.1875 4.125 73.2188 3.53125 71.9688 3.53125C69.8125 3.53125 68.4062 5.1875 68.4062 7.6875C68.4062 10.1875 69.8438 11.9062 71.9688 11.9062C73.2188 11.9062 74.2188 11.3438 74.6875 10.3125V11.7812H75.9688V0H74.6562V5.09375ZM74.6875 7.71875C74.6875 9.6875 73.8125 10.8125 72.2188 10.8125C70.625 10.8125 69.7188 9.65625 69.7188 7.6875C69.7188 5.75 70.625 4.625 72.2188 4.625C73.8125 4.625 74.6875 5.75 74.6875 7.71875ZM77.5 10.8438C78.2812 11.5312 79.3438 11.9062 80.7188 11.9062C82.6562 11.9062 83.875 11 83.875 9.59375C83.875 8.46875 83.1562 7.78125 81.6562 7.40625L80.3125 7.0625C79.4375 6.875 79.0625 6.5 79.0625 5.84375C79.0625 5.0625 79.7188 4.59375 80.875 4.59375C81.7188 4.59375 82.5312 4.90625 83.2812 5.53125L83.7188 4.59375C83.0312 3.90625 82 3.53125 80.875 3.53125C79 3.53125 77.7812 4.53125 77.7812 5.9375C77.7812 7 78.5312 7.78125 79.875 8.09375L81.25 8.40625C82.2188 8.65625 82.625 9 82.625 9.625C82.625 10.4062 81.9688 10.8438 80.7812 10.8438C79.6562 10.8438 78.8125 10.5938 77.9375 9.90625L77.5 10.8438ZM93.4062 0H92.125V11.7812H93.4062V0ZM101.719 5.125C101.219 4.125 100.25 3.53125 99 3.53125C96.875 3.53125 95.4375 5.25 95.4375 7.75C95.4375 10.25 96.8438 11.9062 99 11.9062C100.25 11.9062 101.25 11.3438 101.719 10.3125V11.7812H103V3.71875H101.719V5.125ZM101.719 7.71875C101.719 9.6875 100.844 10.8125 99.25 10.8125C97.6562 10.8125 96.75 9.71875 96.75 7.75C96.75 5.78125 97.6562 4.625 99.25 4.625C100.844 4.625 101.719 5.71875 101.719 7.71875ZM109.5 3.625C109.281 3.5625 109.031 3.53125 108.781 3.53125C107.625 3.53125 106.656 4.125 106.25 5.21875L106.125 3.71875H104.906C104.969 4.40625 105.031 5.15625 105.031 6V11.7812H106.312V7.1875C106.312 6.5 106.531 5.90625 106.875 5.4375C107.281 4.9375 107.844 4.6875 108.625 4.6875C108.938 4.6875 109.25 4.75 109.469 4.8125L109.5 3.625ZM117.75 5.125C117.25 4.125 116.281 3.53125 115 3.53125C112.844 3.53125 111.406 5.15625 111.406 7.53125C111.406 9.9375 112.844 11.5312 115 11.5312C116.281 11.5312 117.25 10.9375 117.75 9.9375V11.8438C117.75 13.4375 116.969 14.2812 115.406 14.2812C114.312 14.2812 113.5 14.0312 112.469 13.4688L112.25 14.5312C113.125 15.0625 114.188 15.3438 115.406 15.3438C117.781 15.3438 119.031 14.0938 119.031 11.7188V3.71875H117.75V5.125ZM117.75 7.53125C117.75 9.34375 116.812 10.4688 115.25 10.4688C113.656 10.4688 112.719 9.34375 112.719 7.53125C112.719 5.71875 113.656 4.625 115.25 4.625C116.812 4.625 117.75 5.71875 117.75 7.53125ZM127.781 7.46875C127.781 5.03125 126.5 3.53125 124.375 3.53125C122.156 3.53125 120.594 5.25 120.594 7.71875C120.594 10.3125 122.094 11.9062 124.625 11.9062C125.75 11.9062 126.938 11.4688 127.656 10.8125L127.219 9.875C126.438 10.5 125.562 10.8125 124.625 10.8125C122.844 10.8125 121.906 9.75 121.906 7.71875H127.781V7.46875ZM121.938 6.875C122.188 5.40625 123.031 4.5625 124.375 4.5625C125.719 4.5625 126.5 5.34375 126.625 6.875H121.938ZM129.312 10.8438C130.094 11.5312 131.156 11.9062 132.531 11.9062C134.469 11.9062 135.688 11 135.688 9.59375C135.688 8.46875 134.969 7.78125 133.469 7.40625L132.125 7.0625C131.25 6.875 130.875 6.5 130.875 5.84375C130.875 5.0625 131.531 4.59375 132.688 4.59375C133.531 4.59375 134.344 4.90625 135.094 5.53125L135.531 4.59375C134.844 3.90625 133.812 3.53125 132.688 3.53125C130.812 3.53125 129.594 4.53125 129.594 5.9375C129.594 7 130.344 7.78125 131.688 8.09375L133.062 8.40625C134.031 8.65625 134.438 9 134.438 9.625C134.438 10.4062 133.781 10.8438 132.594 10.8438C131.469 10.8438 130.625 10.5938 129.75 9.90625L129.312 10.8438ZM141.719 3.71875H139.406V1.21875L138.125 1.65625V3.71875H136.562V4.75H138.125V9.34375C138.125 11 139.031 11.9062 140.562 11.9062C140.969 11.9062 141.344 11.8438 141.688 11.7188V10.625C141.406 10.7188 141.125 10.7812 140.812 10.7812C139.938 10.7812 139.406 10.3438 139.406 9.15625V4.75H141.719V3.71875ZM155.125 5.09375C154.656 4.125 153.688 3.53125 152.438 3.53125C150.281 3.53125 148.875 5.1875 148.875 7.6875C148.875 10.1875 150.312 11.9062 152.438 11.9062C153.688 11.9062 154.688 11.3438 155.156 10.3125V11.7812H156.438V0H155.125V5.09375ZM155.156 7.71875C155.156 9.6875 154.281 10.8125 152.688 10.8125C151.094 10.8125 150.188 9.65625 150.188 7.6875C150.188 5.75 151.094 4.625 152.688 4.625C154.281 4.625 155.156 5.75 155.156 7.71875ZM159.906 1.78125V0.3125H158.344V1.78125H159.906ZM159.75 3.71875H158.469V11.7812H159.75V3.71875ZM167.781 4.5H165.312C164.062 4.15625 161.219 4.25 161.219 6.84375C161.219 7.78125 161.688 8.4375 162.312 8.75C161.531 9.46875 161.156 9.8125 161.156 10.2812C161.156 10.625 161.281 10.9375 161.719 11.125C161.281 11.5312 161.031 11.8438 161.031 12.4062C161.031 13.4062 161.906 14 164.188 14C166.406 14 167.688 13.1875 167.688 11.7188C167.688 9.875 166.281 9.9375 162.938 9.75L163.375 9.0625C164.219 9.3125 167.062 9.375 167.062 6.9375C167.062 6.375 166.844 5.96875 166.594 5.65625L167.781 5.5625V4.5ZM165.781 12.0625C165.781 13.0625 162.5 13.0625 162.5 12.125C162.5 11.875 162.688 11.6562 162.844 11.4688C165.281 11.625 165.781 11.5625 165.781 12.0625ZM164.219 7.84375C162.562 7.84375 162.625 5.625 164.25 5.625C165.781 5.625 165.844 7.84375 164.219 7.84375ZM168.375 11H172V10L171.344 9.90625C171.156 9.875 171.156 9.84375 171.156 9.65625V4.375H168.5L168.375 5.40625C169.156 5.6875 169.219 5.65625 169.219 5.90625V9.65625C169.219 9.9375 169.219 9.875 168.375 10V11ZM170 3.34375C170.75 3.34375 171.156 2.9375 171.156 2.21875C171.156 1.5 170.75 1.09375 170 1.09375C169.281 1.09375 168.875 1.5 168.875 2.21875C168.875 2.9375 169.281 3.34375 170 3.34375ZM177.031 10.5L176.688 9.375C174.625 10.1562 174.781 8.75 174.781 8.53125V5.5H176.688V4.25H174.875C174.75 4.25 174.781 4.375 174.781 2.3125H173.562C173.438 3.6875 173 4.25 171.875 4.375V5.5C172.906 5.5 172.875 5.46875 172.875 5.625V8.96875C172.875 10.4062 173.438 11 174.938 11C175.656 11 176.469 10.75 177.031 10.5ZM184.094 5.125C183.594 4.125 182.625 3.53125 181.375 3.53125C179.25 3.53125 177.812 5.25 177.812 7.75C177.812 10.25 179.219 11.9062 181.375 11.9062C182.625 11.9062 183.625 11.3438 184.094 10.3125V11.7812H185.375V3.71875H184.094V5.125ZM184.094 7.71875C184.094 9.6875 183.219 10.8125 181.625 10.8125C180.031 10.8125 179.125 9.71875 179.125 7.75C179.125 5.78125 180.031 4.625 181.625 4.625C183.219 4.625 184.094 5.71875 184.094 7.71875ZM188.688 0H187.406V11.7812H188.688V0ZM209.031 6.71875C209.031 4.59375 208.125 3.53125 206.375 3.53125C205.156 3.53125 204.156 4.15625 203.688 5.09375C203.281 4.03125 202.5 3.53125 201.219 3.53125C200.031 3.53125 199.125 4.125 198.656 5.15625L198.531 3.71875H197.312C197.375 4.40625 197.438 5.15625 197.438 6V11.7812H198.719V7.1875C198.719 5.59375 199.562 4.625 200.938 4.625C202.094 4.625 202.594 5.3125 202.594 6.78125V11.7812H203.906V7.1875C203.906 5.59375 204.719 4.625 206.062 4.625C207.25 4.625 207.75 5.28125 207.75 6.78125V11.7812H209.031V6.71875ZM217.219 5.125C216.719 4.125 215.75 3.53125 214.5 3.53125C212.375 3.53125 210.938 5.25 210.938 7.75C210.938 10.25 212.344 11.9062 214.5 11.9062C215.75 11.9062 216.75 11.3438 217.219 10.3125V11.7812H218.5V3.71875H217.219V5.125ZM217.219 7.71875C217.219 9.6875 216.344 10.8125 214.75 10.8125C213.156 10.8125 212.25 9.71875 212.25 7.75C212.25 5.78125 213.156 4.625 214.75 4.625C216.344 4.625 217.219 5.71875 217.219 7.71875ZM225 3.625C224.781 3.5625 224.531 3.53125 224.281 3.53125C223.125 3.53125 222.156 4.125 221.75 5.21875L221.625 3.71875H220.406C220.469 4.40625 220.531 5.15625 220.531 6V11.7812H221.812V7.1875C221.812 6.5 222.031 5.90625 222.375 5.4375C222.781 4.9375 223.344 4.6875 224.125 4.6875C224.438 4.6875 224.75 4.75 224.969 4.8125L225 3.625ZM234.094 3.75H232.469L228.656 7.4375V0H227.375V11.7812H228.656V7.90625L232.812 11.7812H234.5L230.062 7.59375L234.094 3.75ZM243.719 7.46875C243.719 5.03125 242.438 3.53125 240.312 3.53125C238.094 3.53125 236.531 5.25 236.531 7.71875C236.531 10.3125 238.031 11.9062 240.562 11.9062C241.688 11.9062 242.875 11.4688 243.594 10.8125L243.156 9.875C242.375 10.5 241.5 10.8125 240.562 10.8125C238.781 10.8125 237.844 9.75 237.844 7.71875H243.719V7.46875ZM237.875 6.875C238.125 5.40625 238.969 4.5625 240.312 4.5625C241.656 4.5625 242.438 5.34375 242.562 6.875H237.875ZM249.781 3.71875H247.469V1.21875L246.188 1.65625V3.71875H244.625V4.75H246.188V9.34375C246.188 11 247.094 11.9062 248.625 11.9062C249.031 11.9062 249.406 11.8438 249.75 11.7188V10.625C249.469 10.7188 249.188 10.7812 248.875 10.7812C248 10.7812 247.469 10.3438 247.469 9.15625V4.75H249.781V3.71875ZM258.75 7.75C258.75 5.25 257.312 3.53125 255.156 3.53125C253.844 3.53125 252.844 4.1875 252.375 5.28125L252.25 3.71875H251.031C251.094 4.40625 251.156 5.15625 251.156 6V15.25H252.438V10.2812C252.938 11.3125 253.906 11.9062 255.156 11.9062C257.312 11.9062 258.75 10.25 258.75 7.75ZM257.406 7.75C257.406 9.71875 256.5 10.8125 254.938 10.8125C253.344 10.8125 252.438 9.6875 252.438 7.71875C252.438 5.71875 253.344 4.625 254.938 4.625C256.469 4.625 257.406 5.78125 257.406 7.75ZM266.938 5.125C266.438 4.125 265.469 3.53125 264.219 3.53125C262.094 3.53125 260.656 5.25 260.656 7.75C260.656 10.25 262.062 11.9062 264.219 11.9062C265.469 11.9062 266.469 11.3438 266.938 10.3125V11.7812H268.219V3.71875H266.938V5.125ZM266.938 7.71875C266.938 9.6875 266.062 10.8125 264.469 10.8125C262.875 10.8125 261.969 9.71875 261.969 7.75C261.969 5.78125 262.875 4.625 264.469 4.625C266.062 4.625 266.938 5.71875 266.938 7.71875ZM271.531 0H270.25V11.7812H271.531V0ZM273.562 7.75C273.562 10.25 275.062 11.9062 277.406 11.9062C278.5 11.9062 279.625 11.5 280.312 10.8438L279.875 9.90625C279.062 10.5312 278.312 10.8125 277.531 10.8125C275.875 10.8125 274.906 9.6875 274.906 7.75C274.906 5.78125 275.875 4.625 277.531 4.625C278.312 4.625 279.062 4.90625 279.875 5.5625L280.312 4.59375C279.656 3.9375 278.562 3.53125 277.469 3.53125C275.094 3.53125 273.562 5.25 273.562 7.75ZM289.062 7.46875C289.062 5.03125 287.781 3.53125 285.656 3.53125C283.438 3.53125 281.875 5.25 281.875 7.71875C281.875 10.3125 283.375 11.9062 285.906 11.9062C287.031 11.9062 288.219 11.4688 288.938 10.8125L288.5 9.875C287.719 10.5 286.844 10.8125 285.906 10.8125C284.125 10.8125 283.188 9.75 283.188 7.71875H289.062V7.46875ZM283.219 6.875C283.469 5.40625 284.312 4.5625 285.656 4.5625C287 4.5625 287.781 5.34375 287.906 6.875H283.219ZM2.84375 24.6562C2.84375 23.5 3.375 23.0625 4.21875 23.0625C4.46875 23.0625 4.75 23.0938 5.03125 23.1875V22.0938C4.6875 22 4.3125 21.9375 3.96875 21.9375C2.4375 21.9375 1.5625 22.8125 1.5625 24.5V25.7188H0V26.75H1.5625V33.7812H2.84375V26.75H4.8125V25.7188H2.84375V24.6562ZM5.9375 29.7188C5.9375 32.25 7.4375 33.9062 9.71875 33.9062C12.0312 33.9062 13.5312 32.25 13.5312 29.7188C13.5312 27.1875 12.0312 25.5312 9.71875 25.5312C7.4375 25.5312 5.9375 27.1875 5.9375 29.7188ZM12.2188 29.7188C12.2188 31.75 11.3438 32.8125 9.71875 32.8125C8.125 32.8125 7.25 31.75 7.25 29.7188C7.25 27.75 8.15625 26.625 9.71875 26.625C11.2812 26.625 12.2188 27.75 12.2188 29.7188ZM20.0312 25.625C19.8125 25.5625 19.5625 25.5312 19.3125 25.5312C18.1562 25.5312 17.1875 26.125 16.7812 27.2188L16.6562 25.7188H15.4375C15.5 26.4062 15.5625 27.1562 15.5625 28V33.7812H16.8438V29.1875C16.8438 28.5 17.0625 27.9062 17.4062 27.4375C17.8125 26.9375 18.375 26.6875 19.1562 26.6875C19.4688 26.6875 19.7812 26.75 20 26.8125L20.0312 25.625ZM28.1875 29.75C28.1875 32.25 29.6875 33.9062 32.0312 33.9062C33.125 33.9062 34.25 33.5 34.9375 32.8438L34.5 31.9062C33.6875 32.5312 32.9375 32.8125 32.1562 32.8125C30.5 32.8125 29.5312 31.6875 29.5312 29.75C29.5312 27.7812 30.5 26.625 32.1562 26.625C32.9375 26.625 33.6875 26.9062 34.5 27.5625L34.9375 26.5938C34.2812 25.9375 33.1875 25.5312 32.0938 25.5312C29.7188 25.5312 28.1875 27.25 28.1875 29.75ZM41.4375 25.625C41.2188 25.5625 40.9688 25.5312 40.7188 25.5312C39.5625 25.5312 38.5938 26.125 38.1875 27.2188L38.0625 25.7188H36.8438C36.9062 26.4062 36.9688 27.1562 36.9688 28V33.7812H38.25V29.1875C38.25 28.5 38.4688 27.9062 38.8125 27.4375C39.2188 26.9375 39.7812 26.6875 40.5625 26.6875C40.875 26.6875 41.1875 26.75 41.4062 26.8125L41.4375 25.625ZM46.8438 32.375L44.125 25.7188H42.75L46.1562 33.6875L45.8438 34.4062C45.5938 35 45.25 35.4375 44.875 35.7188C44.4688 36 43.9062 36.2188 43.1562 36.4062L43.4375 37.4062C45.1562 37.0938 46.3438 36.3438 47.125 34.5312L50.875 25.7188H49.5938L46.8438 32.375ZM59.9062 29.75C59.9062 27.25 58.4688 25.5312 56.3125 25.5312C55 25.5312 54 26.1875 53.5312 27.2812L53.4062 25.7188H52.1875C52.25 26.4062 52.3125 27.1562 52.3125 28V37.25H53.5938V32.2812C54.0938 33.3125 55.0625 33.9062 56.3125 33.9062C58.4688 33.9062 59.9062 32.25 59.9062 29.75ZM58.5625 29.75C58.5625 31.7188 57.6562 32.8125 56.0938 32.8125C54.5 32.8125 53.5938 31.6875 53.5938 29.7188C53.5938 27.7188 54.5 26.625 56.0938 26.625C57.625 26.625 58.5625 27.7812 58.5625 29.75ZM66.3125 25.7188H64V23.2188L62.7188 23.6562V25.7188H61.1562V26.75H62.7188V31.3438C62.7188 33 63.625 33.9062 65.1562 33.9062C65.5625 33.9062 65.9375 33.8438 66.2812 33.7188V32.625C66 32.7188 65.7188 32.7812 65.4062 32.7812C64.5312 32.7812 64 32.3438 64 31.1562V26.75H66.3125V25.7188ZM67.2188 29.7188C67.2188 32.25 68.7188 33.9062 71 33.9062C73.3125 33.9062 74.8125 32.25 74.8125 29.7188C74.8125 27.1875 73.3125 25.5312 71 25.5312C68.7188 25.5312 67.2188 27.1875 67.2188 29.7188ZM73.5 29.7188C73.5 31.75 72.625 32.8125 71 32.8125C69.4062 32.8125 68.5312 31.75 68.5312 29.7188C68.5312 27.75 69.4375 26.625 71 26.625C72.5625 26.625 73.5 27.75 73.5 29.7188ZM82.625 29.75C82.625 32.25 84.125 33.9062 86.4688 33.9062C87.5625 33.9062 88.6875 33.5 89.375 32.8438L88.9375 31.9062C88.125 32.5312 87.375 32.8125 86.5938 32.8125C84.9375 32.8125 83.9688 31.6875 83.9688 29.75C83.9688 27.7812 84.9375 26.625 86.5938 26.625C87.375 26.625 88.125 26.9062 88.9375 27.5625L89.375 26.5938C88.7188 25.9375 87.625 25.5312 86.5312 25.5312C84.1562 25.5312 82.625 27.25 82.625 29.75ZM90.9375 29.7188C90.9375 32.25 92.4375 33.9062 94.7188 33.9062C97.0312 33.9062 98.5312 32.25 98.5312 29.7188C98.5312 27.1875 97.0312 25.5312 94.7188 25.5312C92.4375 25.5312 90.9375 27.1875 90.9375 29.7188ZM97.2188 29.7188C97.2188 31.75 96.3438 32.8125 94.7188 32.8125C93.125 32.8125 92.25 31.75 92.25 29.7188C92.25 27.75 93.1562 26.625 94.7188 26.625C96.2812 26.625 97.2188 27.75 97.2188 29.7188ZM101.844 22H100.562V33.7812H101.844V22ZM105.625 22H104.344V33.7812H105.625V22ZM114.844 29.4688C114.844 27.0312 113.562 25.5312 111.438 25.5312C109.219 25.5312 107.656 27.25 107.656 29.7188C107.656 32.3125 109.156 33.9062 111.688 33.9062C112.812 33.9062 114 33.4688 114.719 32.8125L114.281 31.875C113.5 32.5 112.625 32.8125 111.688 32.8125C109.906 32.8125 108.969 31.75 108.969 29.7188H114.844V29.4688ZM109 28.875C109.25 27.4062 110.094 26.5625 111.438 26.5625C112.781 26.5625 113.562 27.3438 113.688 28.875H109ZM116.406 29.75C116.406 32.25 117.906 33.9062 120.25 33.9062C121.344 33.9062 122.469 33.5 123.156 32.8438L122.719 31.9062C121.906 32.5312 121.156 32.8125 120.375 32.8125C118.719 32.8125 117.75 31.6875 117.75 29.75C117.75 27.7812 118.719 26.625 120.375 26.625C121.156 26.625 121.906 26.9062 122.719 27.5625L123.156 26.5938C122.5 25.9375 121.406 25.5312 120.312 25.5312C117.938 25.5312 116.406 27.25 116.406 29.75ZM129.219 25.7188H126.906V23.2188L125.625 23.6562V25.7188H124.062V26.75H125.625V31.3438C125.625 33 126.531 33.9062 128.062 33.9062C128.469 33.9062 128.844 33.8438 129.188 33.7188V32.625C128.906 32.7188 128.625 32.7812 128.312 32.7812C127.438 32.7812 126.906 32.3438 126.906 31.1562V26.75H129.219V25.7188ZM132.031 23.7812V22.3125H130.469V23.7812H132.031ZM131.875 25.7188H130.594V33.7812H131.875V25.7188ZM142 29.6875C142 27.1875 140.562 25.5312 138.406 25.5312C137.156 25.5312 136.156 26.125 135.688 27.1562V22H134.406V33.7812H135.688V32.2812C136.188 33.3125 137.156 33.9062 138.406 33.9062C140.562 33.9062 142 32.1875 142 29.6875ZM140.656 29.6875C140.656 31.6562 139.719 32.8125 138.188 32.8125C136.594 32.8125 135.688 31.6875 135.688 29.7188C135.688 27.7188 136.594 26.625 138.188 26.625C139.75 26.625 140.656 27.75 140.656 29.6875ZM145.938 23.7812V22.3125H144.375V23.7812H145.938ZM145.781 25.7188H144.5V33.7812H145.781V25.7188ZM152.344 25.7188H150.031V23.2188L148.75 23.6562V25.7188H147.188V26.75H148.75V31.3438C148.75 33 149.656 33.9062 151.188 33.9062C151.594 33.9062 151.969 33.8438 152.312 33.7188V32.625C152.031 32.7188 151.75 32.7812 151.438 32.7812C150.562 32.7812 150.031 32.3438 150.031 31.1562V26.75H152.344V25.7188ZM155.156 23.7812V22.3125H153.594V23.7812H155.156ZM155 25.7188H153.719V33.7812H155V25.7188ZM164.25 29.4688C164.25 27.0312 162.969 25.5312 160.844 25.5312C158.625 25.5312 157.062 27.25 157.062 29.7188C157.062 32.3125 158.562 33.9062 161.094 33.9062C162.219 33.9062 163.406 33.4688 164.125 32.8125L163.688 31.875C162.906 32.5 162.031 32.8125 161.094 32.8125C159.312 32.8125 158.375 31.75 158.375 29.7188H164.25V29.4688ZM158.406 28.875C158.656 27.4062 159.5 26.5625 160.844 26.5625C162.188 26.5625 162.969 27.3438 163.094 28.875H158.406ZM165.781 32.8438C166.562 33.5312 167.625 33.9062 169 33.9062C170.938 33.9062 172.156 33 172.156 31.5938C172.156 30.4688 171.438 29.7812 169.938 29.4062L168.594 29.0625C167.719 28.875 167.344 28.5 167.344 27.8438C167.344 27.0625 168 26.5938 169.156 26.5938C170 26.5938 170.812 26.9062 171.562 27.5312L172 26.5938C171.312 25.9062 170.281 25.5312 169.156 25.5312C167.281 25.5312 166.062 26.5312 166.062 27.9375C166.062 29 166.812 29.7812 168.156 30.0938L169.531 30.4062C170.5 30.6562 170.906 31 170.906 31.625C170.906 32.4062 170.25 32.8438 169.062 32.8438C167.938 32.8438 167.094 32.5938 166.219 31.9062L165.781 32.8438ZM186.219 27.125C185.719 26.125 184.75 25.5312 183.5 25.5312C181.375 25.5312 179.938 27.25 179.938 29.75C179.938 32.25 181.344 33.9062 183.5 33.9062C184.75 33.9062 185.75 33.3438 186.219 32.3125V33.7812H187.5V25.7188H186.219V27.125ZM186.219 29.7188C186.219 31.6875 185.344 32.8125 183.75 32.8125C182.156 32.8125 181.25 31.7188 181.25 29.75C181.25 27.7812 182.156 26.625 183.75 26.625C185.344 26.625 186.219 27.7188 186.219 29.7188ZM196.438 28.7188C196.438 26.5938 195.469 25.5312 193.531 25.5312C192.281 25.5312 191.25 26.125 190.75 27.1875L190.625 25.7188H189.406C189.469 26.4062 189.531 27.1562 189.531 28V33.7812H190.812V29.1875C190.812 27.625 191.812 26.625 193.281 26.625C194.562 26.625 195.156 27.3125 195.156 28.7812V33.7812H196.438V28.7188ZM204.594 27.0938C204.125 26.125 203.156 25.5312 201.906 25.5312C199.75 25.5312 198.344 27.1875 198.344 29.6875C198.344 32.1875 199.781 33.9062 201.906 33.9062C203.156 33.9062 204.156 33.3438 204.625 32.3125V33.7812H205.906V22H204.594V27.0938ZM204.625 29.7188C204.625 31.6875 203.75 32.8125 202.156 32.8125C200.562 32.8125 199.656 31.6562 199.656 29.6875C199.656 27.75 200.562 26.625 202.156 26.625C203.75 26.625 204.625 27.75 204.625 29.7188ZM221.094 28.7188C221.094 26.5938 220.125 25.5312 218.188 25.5312C216.938 25.5312 215.906 26.125 215.406 27.1875L215.281 25.7188H214.062C214.125 26.4062 214.188 27.1562 214.188 28V33.7812H215.469V29.1875C215.469 27.625 216.469 26.625 217.938 26.625C219.219 26.625 219.812 27.3125 219.812 28.7812V33.7812H221.094V28.7188ZM223 29.7188C223 32.25 224.5 33.9062 226.781 33.9062C229.094 33.9062 230.594 32.25 230.594 29.7188C230.594 27.1875 229.094 25.5312 226.781 25.5312C224.5 25.5312 223 27.1875 223 29.7188ZM229.281 29.7188C229.281 31.75 228.406 32.8125 226.781 32.8125C225.188 32.8125 224.312 31.75 224.312 29.7188C224.312 27.75 225.219 26.625 226.781 26.625C228.344 26.625 229.281 27.75 229.281 29.7188ZM239.531 28.7188C239.531 26.5938 238.562 25.5312 236.625 25.5312C235.375 25.5312 234.344 26.125 233.844 27.1875L233.719 25.7188H232.5C232.562 26.4062 232.625 27.1562 232.625 28V33.7812H233.906V29.1875C233.906 27.625 234.906 26.625 236.375 26.625C237.656 26.625 238.25 27.3125 238.25 28.7812V33.7812H239.531V28.7188ZM246.344 28.9375H241.812V30.0312H246.344V28.9375ZM2.84375 46.6562C2.84375 45.5 3.375 45.0625 4.21875 45.0625C4.46875 45.0625 4.75 45.0938 5.03125 45.1875V44.0938C4.6875 44 4.3125 43.9375 3.96875 43.9375C2.4375 43.9375 1.5625 44.8125 1.5625 46.5V47.7188H0V48.75H1.5625V55.7812H2.84375V48.75H4.8125V47.7188H2.84375V46.6562ZM11.8438 52.2812C11.8438 53.8125 10.875 54.8125 9.46875 54.8125C8.25 54.8125 7.65625 54.1562 7.65625 52.6875V47.7188H6.34375V52.7188C6.34375 54.8125 7.34375 55.9062 9.25 55.9062C10.4062 55.9062 11.375 55.375 11.875 54.375V55.7812H13.125V47.7188H11.8438V52.2812ZM22.4688 50.7188C22.4688 48.5938 21.5 47.5312 19.5625 47.5312C18.3125 47.5312 17.2812 48.125 16.7812 49.1875L16.6562 47.7188H15.4375C15.5 48.4062 15.5625 49.1562 15.5625 50V55.7812H16.8438V51.1875C16.8438 49.625 17.8438 48.625 19.3125 48.625C20.5938 48.625 21.1875 49.3125 21.1875 50.7812V55.7812H22.4688V50.7188ZM30.7188 49.125C30.2188 48.125 29.25 47.5312 27.9688 47.5312C25.8125 47.5312 24.375 49.1562 24.375 51.5312C24.375 53.9375 25.8125 55.5312 27.9688 55.5312C29.25 55.5312 30.2188 54.9375 30.7188 53.9375V55.8438C30.7188 57.4375 29.9375 58.2812 28.375 58.2812C27.2812 58.2812 26.4688 58.0312 25.4375 57.4688L25.2188 58.5312C26.0938 59.0625 27.1562 59.3438 28.375 59.3438C30.75 59.3438 32 58.0938 32 55.7188V47.7188H30.7188V49.125ZM30.7188 51.5312C30.7188 53.3438 29.7812 54.4688 28.2188 54.4688C26.625 54.4688 25.6875 53.3438 25.6875 51.5312C25.6875 49.7188 26.625 48.625 28.2188 48.625C29.7812 48.625 30.7188 49.7188 30.7188 51.5312ZM35.4688 45.7812V44.3125H33.9062V45.7812H35.4688ZM35.3125 47.7188H34.0312V55.7812H35.3125V47.7188ZM45.4375 51.6875C45.4375 49.1875 44 47.5312 41.8438 47.5312C40.5938 47.5312 39.5938 48.125 39.125 49.1562V44H37.8438V55.7812H39.125V54.2812C39.625 55.3125 40.5938 55.9062 41.8438 55.9062C44 55.9062 45.4375 54.1875 45.4375 51.6875ZM44.0938 51.6875C44.0938 53.6562 43.1562 54.8125 41.625 54.8125C40.0312 54.8125 39.125 53.6875 39.125 51.7188C39.125 49.7188 40.0312 48.625 41.625 48.625C43.1875 48.625 44.0938 49.75 44.0938 51.6875ZM49.2188 44H47.9375V55.7812H49.2188V44ZM58.4375 51.4688C58.4375 49.0312 57.1562 47.5312 55.0312 47.5312C52.8125 47.5312 51.25 49.25 51.25 51.7188C51.25 54.3125 52.75 55.9062 55.2812 55.9062C56.4062 55.9062 57.5938 55.4688 58.3125 54.8125L57.875 53.875C57.0938 54.5 56.2188 54.8125 55.2812 54.8125C53.5 54.8125 52.5625 53.75 52.5625 51.7188H58.4375V51.4688ZM52.5938 50.875C52.8438 49.4062 53.6875 48.5625 55.0312 48.5625C56.375 48.5625 57.1562 49.3438 57.2812 50.875H52.5938ZM70.75 47.7188H68.4375V45.2188L67.1562 45.6562V47.7188H65.5938V48.75H67.1562V53.3438C67.1562 55 68.0625 55.9062 69.5938 55.9062C70 55.9062 70.375 55.8438 70.7188 55.7188V54.625C70.4375 54.7188 70.1562 54.7812 69.8438 54.7812C68.9688 54.7812 68.4375 54.3438 68.4375 53.1562V48.75H70.75V47.7188ZM71.6562 51.7188C71.6562 54.25 73.1562 55.9062 75.4375 55.9062C77.75 55.9062 79.25 54.25 79.25 51.7188C79.25 49.1875 77.75 47.5312 75.4375 47.5312C73.1562 47.5312 71.6562 49.1875 71.6562 51.7188ZM77.9375 51.7188C77.9375 53.75 77.0625 54.8125 75.4375 54.8125C73.8438 54.8125 72.9688 53.75 72.9688 51.7188C72.9688 49.75 73.875 48.625 75.4375 48.625C77 48.625 77.9375 49.75 77.9375 51.7188ZM88 47.75H86.375L82.5625 51.4375V44H81.2812V55.7812H82.5625V51.9062L86.7188 55.7812H88.4062L83.9688 51.5938L88 47.75ZM97.625 51.4688C97.625 49.0312 96.3438 47.5312 94.2188 47.5312C92 47.5312 90.4375 49.25 90.4375 51.7188C90.4375 54.3125 91.9375 55.9062 94.4688 55.9062C95.5938 55.9062 96.7812 55.4688 97.5 54.8125L97.0625 53.875C96.2812 54.5 95.4062 54.8125 94.4688 54.8125C92.6875 54.8125 91.75 53.75 91.75 51.7188H97.625V51.4688ZM91.7812 50.875C92.0312 49.4062 92.875 48.5625 94.2188 48.5625C95.5625 48.5625 96.3438 49.3438 96.4688 50.875H91.7812ZM106.562 50.7188C106.562 48.5938 105.594 47.5312 103.656 47.5312C102.406 47.5312 101.375 48.125 100.875 49.1875L100.75 47.7188H99.5312C99.5938 48.4062 99.6562 49.1562 99.6562 50V55.7812H100.938V51.1875C100.938 49.625 101.938 48.625 103.406 48.625C104.688 48.625 105.281 49.3125 105.281 50.7812V55.7812H106.562V50.7188ZM108.438 54.8438C109.219 55.5312 110.281 55.9062 111.656 55.9062C113.594 55.9062 114.812 55 114.812 53.5938C114.812 52.4688 114.094 51.7812 112.594 51.4062L111.25 51.0625C110.375 50.875 110 50.5 110 49.8438C110 49.0625 110.656 48.5938 111.812 48.5938C112.656 48.5938 113.469 48.9062 114.219 49.5312L114.656 48.5938C113.969 47.9062 112.938 47.5312 111.812 47.5312C109.938 47.5312 108.719 48.5312 108.719 49.9375C108.719 51 109.469 51.7812 110.812 52.0938L112.188 52.4062C113.156 52.6562 113.562 53 113.562 53.625C113.562 54.4062 112.906 54.8438 111.719 54.8438C110.594 54.8438 109.75 54.5938 108.875 53.9062L108.438 54.8438ZM116.203 53.1472C116.203 52.2726 116.283 51.4192 116.443 50.5872C116.613 49.7552 116.875 48.9606 117.227 48.2032C117.579 47.4459 118.021 46.7472 118.555 46.1072H119.883C119.392 46.7686 118.976 47.4832 118.635 48.2512C118.304 49.0192 118.053 49.8139 117.883 50.6352C117.712 51.4566 117.627 52.2886 117.627 53.1312C117.627 53.9526 117.712 54.7686 117.883 55.5792C118.053 56.3899 118.304 57.1686 118.635 57.9153C118.965 58.6726 119.376 59.3873 119.867 60.0593H118.555C118.021 59.4299 117.579 58.7419 117.227 57.9953C116.875 57.2592 116.613 56.4806 116.443 55.6592C116.283 54.8379 116.203 54.0006 116.203 53.1472ZM122.766 44.375H121.766V55.7812H122.984V46.625L129.891 55.7812H130.891V44.375H129.641V53.5625L122.766 44.375ZM135.016 50.5625H140.422V49.4375H135.016V45.5H140.734V44.375H133.703V55.7812H135.016V50.5625ZM147.641 45.5H151.609V44.375H142.328V45.5H146.297V55.7812H147.641V45.5ZM152.547 54.8438C153.328 55.5312 154.391 55.9062 155.766 55.9062C157.703 55.9062 158.922 55 158.922 53.5938C158.922 52.4688 158.203 51.7812 156.703 51.4062L155.359 51.0625C154.484 50.875 154.109 50.5 154.109 49.8438C154.109 49.0625 154.766 48.5938 155.922 48.5938C156.766 48.5938 157.578 48.9062 158.328 49.5312L158.766 48.5938C158.078 47.9062 157.047 47.5312 155.922 47.5312C154.047 47.5312 152.828 48.5312 152.828 49.9375C152.828 51 153.578 51.7812 154.922 52.0938L156.297 52.4062C157.266 52.6562 157.672 53 157.672 53.625C157.672 54.4062 157.016 54.8438 155.828 54.8438C154.703 54.8438 153.859 54.5938 152.984 53.9062L152.547 54.8438ZM163.832 53.1472C163.832 54.0006 163.747 54.8379 163.576 55.6592C163.416 56.4806 163.16 57.2592 162.808 57.9953C162.467 58.7419 162.024 59.4299 161.48 60.0593H160.168C160.659 59.3873 161.069 58.6726 161.4 57.9153C161.731 57.1686 161.981 56.3899 162.152 55.5792C162.323 54.7686 162.408 53.9526 162.408 53.1312C162.408 52.2886 162.323 51.4566 162.152 50.6352C161.981 49.8139 161.731 49.0192 161.4 48.2512C161.069 47.4832 160.653 46.7686 160.152 46.1072H161.48C162.024 46.7472 162.467 47.4459 162.808 48.2032C163.16 48.9606 163.416 49.7552 163.576 50.5872C163.747 51.4192 163.832 52.2726 163.832 53.1472ZM180.656 52.6875C180.656 51.2812 179.875 50.2812 178.594 49.9375C179.719 49.5 180.375 48.5938 180.375 47.375C180.375 45.4688 179.031 44.375 176.688 44.375H172.125V55.7812H176.875C179.281 55.7812 180.656 54.6562 180.656 52.6875ZM176.5 45.4688C178.219 45.4688 179.094 46.125 179.094 47.4375C179.094 48.75 178.219 49.4375 176.5 49.4375H173.438V45.4688H176.5ZM179.344 52.6562C179.344 54.0312 178.531 54.6875 176.75 54.6875H173.438V50.5625H176.75C178.5 50.5625 179.344 51.25 179.344 52.6562ZM188.75 52.2812C188.75 53.8125 187.781 54.8125 186.375 54.8125C185.156 54.8125 184.562 54.1562 184.562 52.6875V47.7188H183.25V52.7188C183.25 54.8125 184.25 55.9062 186.156 55.9062C187.312 55.9062 188.281 55.375 188.781 54.375V55.7812H190.031V47.7188H188.75V52.2812ZM195.5 54.375L192.781 47.7188H191.406L194.812 55.6875L194.5 56.4062C194.25 57 193.906 57.4375 193.531 57.7188C193.125 58 192.562 58.2188 191.812 58.4062L192.094 59.4062C193.812 59.0938 195 58.3438 195.781 56.5312L199.531 47.7188H198.25L195.5 54.375ZM202.791 55.8512C202.695 56.2246 202.572 56.6299 202.423 57.0672C202.273 57.5046 202.108 57.9366 201.927 58.3633C201.756 58.8006 201.585 59.2113 201.415 59.5953H200.375C200.481 59.1899 200.583 58.7526 200.679 58.2833C200.785 57.8246 200.881 57.3712 200.967 56.9232C201.052 56.4646 201.121 56.0486 201.175 55.6752H202.679L202.791 55.8512ZM211.031 54.4688C212.062 55.4375 213.5 55.9062 215.281 55.9062C217.844 55.9062 219.469 54.625 219.469 52.6875C219.469 51.375 218.656 50.5938 217.5 50.2188C216.938 50.0312 216.188 49.7812 215.219 49.5625C213.406 49.125 212.531 48.6562 212.531 47.5C212.531 46.1875 213.594 45.375 215.375 45.375C216.656 45.375 217.719 45.8125 218.781 46.7188L219.312 45.6875C218.375 44.75 216.969 44.25 215.375 44.25C212.875 44.25 211.219 45.5938 211.219 47.5625C211.219 48.9062 212 49.7188 213.125 50.1875C213.688 50.4062 214.406 50.5938 215.281 50.8125C217.156 51.25 218.125 51.5312 218.156 52.75C218.188 54.0312 217.125 54.7812 215.281 54.7812C213.75 54.7812 212.656 54.4062 211.5 53.4688L211.031 54.4688ZM228.219 51.4688C228.219 49.0312 226.938 47.5312 224.812 47.5312C222.594 47.5312 221.031 49.25 221.031 51.7188C221.031 54.3125 222.531 55.9062 225.062 55.9062C226.188 55.9062 227.375 55.4688 228.094 54.8125L227.656 53.875C226.875 54.5 226 54.8125 225.062 54.8125C223.281 54.8125 222.344 53.75 222.344 51.7188H228.219V51.4688ZM222.375 50.875C222.625 49.4062 223.469 48.5625 224.812 48.5625C226.156 48.5625 226.938 49.3438 227.062 50.875H222.375ZM231.531 44H230.25V55.7812H231.531V44ZM235.312 44H234.031V55.7812H235.312V44ZM249.875 49.125C249.375 48.125 248.406 47.5312 247.156 47.5312C245.031 47.5312 243.594 49.25 243.594 51.75C243.594 54.25 245 55.9062 247.156 55.9062C248.406 55.9062 249.406 55.3438 249.875 54.3125V55.7812H251.156V47.7188H249.875V49.125ZM249.875 51.7188C249.875 53.6875 249 54.8125 247.406 54.8125C245.812 54.8125 244.906 53.7188 244.906 51.75C244.906 49.7812 245.812 48.625 247.406 48.625C249 48.625 249.875 49.7188 249.875 51.7188ZM260.094 50.7188C260.094 48.5938 259.125 47.5312 257.188 47.5312C255.938 47.5312 254.906 48.125 254.406 49.1875L254.281 47.7188H253.062C253.125 48.4062 253.188 49.1562 253.188 50V55.7812H254.469V51.1875C254.469 49.625 255.469 48.625 256.938 48.625C258.219 48.625 258.812 49.3125 258.812 50.7812V55.7812H260.094V50.7188ZM268.25 49.0938C267.781 48.125 266.812 47.5312 265.562 47.5312C263.406 47.5312 262 49.1875 262 51.6875C262 54.1875 263.438 55.9062 265.562 55.9062C266.812 55.9062 267.812 55.3438 268.281 54.3125V55.7812H269.562V44H268.25V49.0938ZM268.281 51.7188C268.281 53.6875 267.406 54.8125 265.812 54.8125C264.219 54.8125 263.312 53.6562 263.312 51.6875C263.312 49.75 264.219 48.625 265.812 48.625C267.406 48.625 268.281 49.75 268.281 51.7188ZM6.90625 71.0938C6.4375 70.125 5.46875 69.5312 4.21875 69.5312C2.0625 69.5312 0.65625 71.1875 0.65625 73.6875C0.65625 76.1875 2.09375 77.9062 4.21875 77.9062C5.46875 77.9062 6.46875 77.3438 6.9375 76.3125V77.7812H8.21875V66H6.90625V71.0938ZM6.9375 73.7188C6.9375 75.6875 6.0625 76.8125 4.46875 76.8125C2.875 76.8125 1.96875 75.6562 1.96875 73.6875C1.96875 71.75 2.875 70.625 4.46875 70.625C6.0625 70.625 6.9375 71.75 6.9375 73.7188ZM11.6875 67.7812V66.3125H10.125V67.7812H11.6875ZM11.5312 69.7188H10.25V77.7812H11.5312V69.7188ZM13.5625 76.8438C14.3438 77.5312 15.4062 77.9062 16.7812 77.9062C18.7188 77.9062 19.9375 77 19.9375 75.5938C19.9375 74.4688 19.2188 73.7812 17.7188 73.4062L16.375 73.0625C15.5 72.875 15.125 72.5 15.125 71.8438C15.125 71.0625 15.7812 70.5938 16.9375 70.5938C17.7812 70.5938 18.5938 70.9062 19.3438 71.5312L19.7812 70.5938C19.0938 69.9062 18.0625 69.5312 16.9375 69.5312C15.0625 69.5312 13.8438 70.5312 13.8438 71.9375C13.8438 73 14.5938 73.7812 15.9375 74.0938L17.3125 74.4062C18.2812 74.6562 18.6875 75 18.6875 75.625C18.6875 76.4062 18.0312 76.8438 16.8438 76.8438C15.7188 76.8438 14.875 76.5938 14 75.9062L13.5625 76.8438ZM21.4688 73.75C21.4688 76.25 22.9688 77.9062 25.3125 77.9062C26.4062 77.9062 27.5312 77.5 28.2188 76.8438L27.7812 75.9062C26.9688 76.5312 26.2188 76.8125 25.4375 76.8125C23.7812 76.8125 22.8125 75.6875 22.8125 73.75C22.8125 71.7812 23.7812 70.625 25.4375 70.625C26.2188 70.625 26.9688 70.9062 27.7812 71.5625L28.2188 70.5938C27.5625 69.9375 26.4688 69.5312 25.375 69.5312C23 69.5312 21.4688 71.25 21.4688 73.75ZM29.7812 73.7188C29.7812 76.25 31.2812 77.9062 33.5625 77.9062C35.875 77.9062 37.375 76.25 37.375 73.7188C37.375 71.1875 35.875 69.5312 33.5625 69.5312C31.2812 69.5312 29.7812 71.1875 29.7812 73.7188ZM36.0625 73.7188C36.0625 75.75 35.1875 76.8125 33.5625 76.8125C31.9688 76.8125 31.0938 75.75 31.0938 73.7188C31.0938 71.75 32 70.625 33.5625 70.625C35.125 70.625 36.0625 71.75 36.0625 73.7188ZM39.7188 69.75H38.3438L41.7812 77.7812H43L46.4688 69.75H45.1875L42.4375 76.375L39.7188 69.75ZM54.625 73.4688C54.625 71.0312 53.3438 69.5312 51.2188 69.5312C49 69.5312 47.4375 71.25 47.4375 73.7188C47.4375 76.3125 48.9375 77.9062 51.4688 77.9062C52.5938 77.9062 53.7812 77.4688 54.5 76.8125L54.0625 75.875C53.2812 76.5 52.4062 76.8125 51.4688 76.8125C49.6875 76.8125 48.75 75.75 48.75 73.7188H54.625V73.4688ZM48.7812 72.875C49.0312 71.4062 49.875 70.5625 51.2188 70.5625C52.5625 70.5625 53.3438 71.3438 53.4688 72.875H48.7812ZM61.125 69.625C60.9062 69.5625 60.6562 69.5312 60.4062 69.5312C59.25 69.5312 58.2812 70.125 57.875 71.2188L57.75 69.7188H56.5312C56.5938 70.4062 56.6562 71.1562 56.6562 72V77.7812H57.9375V73.1875C57.9375 72.5 58.1562 71.9062 58.5 71.4375C58.9062 70.9375 59.4688 70.6875 60.25 70.6875C60.5625 70.6875 60.875 70.75 61.0938 70.8125L61.125 69.625ZM76.4688 73.4688C76.4688 71.0312 75.1875 69.5312 73.0625 69.5312C70.8438 69.5312 69.2812 71.25 69.2812 73.7188C69.2812 76.3125 70.7812 77.9062 73.3125 77.9062C74.4375 77.9062 75.625 77.4688 76.3438 76.8125L75.9062 75.875C75.125 76.5 74.25 76.8125 73.3125 76.8125C71.5312 76.8125 70.5938 75.75 70.5938 73.7188H76.4688V73.4688ZM70.625 72.875C70.875 71.4062 71.7188 70.5625 73.0625 70.5625C74.4062 70.5625 75.1875 71.3438 75.3125 72.875H70.625ZM83.8438 69.7188L81.5312 72.6875L79.1875 69.7188H77.625L80.7812 73.625L77.4375 77.7812H79L81.5312 74.625L84.0625 77.7812H85.625L82.3125 73.625L85.4375 69.7188H83.8438ZM86.5938 73.75C86.5938 76.25 88.0938 77.9062 90.4375 77.9062C91.5312 77.9062 92.6562 77.5 93.3438 76.8438L92.9062 75.9062C92.0938 76.5312 91.3438 76.8125 90.5625 76.8125C88.9062 76.8125 87.9375 75.6875 87.9375 73.75C87.9375 71.7812 88.9062 70.625 90.5625 70.625C91.3438 70.625 92.0938 70.9062 92.9062 71.5625L93.3438 70.5938C92.6875 69.9375 91.5938 69.5312 90.5 69.5312C88.125 69.5312 86.5938 71.25 86.5938 73.75ZM96.6562 66H95.375V77.7812H96.6562V66ZM104.594 74.2812C104.594 75.8125 103.625 76.8125 102.219 76.8125C101 76.8125 100.406 76.1562 100.406 74.6875V69.7188H99.0938V74.7188C99.0938 76.8125 100.094 77.9062 102 77.9062C103.156 77.9062 104.125 77.375 104.625 76.375V77.7812H105.875V69.7188H104.594V74.2812ZM107.812 76.8438C108.594 77.5312 109.656 77.9062 111.031 77.9062C112.969 77.9062 114.188 77 114.188 75.5938C114.188 74.4688 113.469 73.7812 111.969 73.4062L110.625 73.0625C109.75 72.875 109.375 72.5 109.375 71.8438C109.375 71.0625 110.031 70.5938 111.188 70.5938C112.031 70.5938 112.844 70.9062 113.594 71.5312L114.031 70.5938C113.344 69.9062 112.312 69.5312 111.188 69.5312C109.312 69.5312 108.094 70.5312 108.094 71.9375C108.094 73 108.844 73.7812 110.188 74.0938L111.562 74.4062C112.531 74.6562 112.938 75 112.938 75.625C112.938 76.4062 112.281 76.8438 111.094 76.8438C109.969 76.8438 109.125 76.5938 108.25 75.9062L107.812 76.8438ZM117.625 67.7812V66.3125H116.062V67.7812H117.625ZM117.469 69.7188H116.188V77.7812H117.469V69.7188ZM120.312 69.75H118.938L122.375 77.7812H123.594L127.062 69.75H125.781L123.031 76.375L120.312 69.75ZM135.219 73.4688C135.219 71.0312 133.938 69.5312 131.812 69.5312C129.594 69.5312 128.031 71.25 128.031 73.7188C128.031 76.3125 129.531 77.9062 132.062 77.9062C133.188 77.9062 134.375 77.4688 135.094 76.8125L134.656 75.875C133.875 76.5 133 76.8125 132.062 76.8125C130.281 76.8125 129.344 75.75 129.344 73.7188H135.219V73.4688ZM129.375 72.875C129.625 71.4062 130.469 70.5625 131.812 70.5625C133.156 70.5625 133.938 71.3438 134.062 72.875H129.375ZM149.281 71.0938C148.812 70.125 147.844 69.5312 146.594 69.5312C144.438 69.5312 143.031 71.1875 143.031 73.6875C143.031 76.1875 144.469 77.9062 146.594 77.9062C147.844 77.9062 148.844 77.3438 149.312 76.3125V77.7812H150.594V66H149.281V71.0938ZM149.312 73.7188C149.312 75.6875 148.438 76.8125 146.844 76.8125C145.25 76.8125 144.344 75.6562 144.344 73.6875C144.344 71.75 145.25 70.625 146.844 70.625C148.438 70.625 149.312 71.75 149.312 73.7188ZM154.062 67.7812V66.3125H152.5V67.7812H154.062ZM153.906 69.7188H152.625V77.7812H153.906V69.7188ZM161.938 70.5H159.469C158.219 70.1562 155.375 70.25 155.375 72.8438C155.375 73.7812 155.844 74.4375 156.469 74.75C155.688 75.4688 155.312 75.8125 155.312 76.2812C155.312 76.625 155.438 76.9375 155.875 77.125C155.438 77.5312 155.188 77.8438 155.188 78.4062C155.188 79.4062 156.062 80 158.344 80C160.562 80 161.844 79.1875 161.844 77.7188C161.844 75.875 160.438 75.9375 157.094 75.75L157.531 75.0625C158.375 75.3125 161.219 75.375 161.219 72.9375C161.219 72.375 161 71.9688 160.75 71.6562L161.938 71.5625V70.5ZM159.938 78.0625C159.938 79.0625 156.656 79.0625 156.656 78.125C156.656 77.875 156.844 77.6562 157 77.4688C159.438 77.625 159.938 77.5625 159.938 78.0625ZM158.375 73.8438C156.719 73.8438 156.781 71.625 158.406 71.625C159.938 71.625 160 73.8438 158.375 73.8438ZM162.531 77H166.156V76L165.5 75.9062C165.312 75.875 165.312 75.8438 165.312 75.6562V70.375H162.656L162.531 71.4062C163.312 71.6875 163.375 71.6562 163.375 71.9062V75.6562C163.375 75.9375 163.375 75.875 162.531 76V77ZM164.156 69.3438C164.906 69.3438 165.312 68.9375 165.312 68.2188C165.312 67.5 164.906 67.0938 164.156 67.0938C163.438 67.0938 163.031 67.5 163.031 68.2188C163.031 68.9375 163.438 69.3438 164.156 69.3438ZM171.188 76.5L170.844 75.375C168.781 76.1562 168.938 74.75 168.938 74.5312V71.5H170.844V70.25H169.031C168.906 70.25 168.938 70.375 168.938 68.3125H167.719C167.594 69.6875 167.156 70.25 166.031 70.375V71.5C167.062 71.5 167.031 71.4688 167.031 71.625V74.9688C167.031 76.4062 167.594 77 169.094 77C169.812 77 170.625 76.75 171.188 76.5ZM178.25 71.125C177.75 70.125 176.781 69.5312 175.531 69.5312C173.406 69.5312 171.969 71.25 171.969 73.75C171.969 76.25 173.375 77.9062 175.531 77.9062C176.781 77.9062 177.781 77.3438 178.25 76.3125V77.7812H179.531V69.7188H178.25V71.125ZM178.25 73.7188C178.25 75.6875 177.375 76.8125 175.781 76.8125C174.188 76.8125 173.281 75.7188 173.281 73.75C173.281 71.7812 174.188 70.625 175.781 70.625C177.375 70.625 178.25 71.7188 178.25 73.7188ZM182.844 66H181.562V77.7812H182.844V66ZM197.406 71.125C196.906 70.125 195.938 69.5312 194.688 69.5312C192.562 69.5312 191.125 71.25 191.125 73.75C191.125 76.25 192.531 77.9062 194.688 77.9062C195.938 77.9062 196.938 77.3438 197.406 76.3125V77.7812H198.688V69.7188H197.406V71.125ZM197.406 73.7188C197.406 75.6875 196.531 76.8125 194.938 76.8125C193.344 76.8125 192.438 75.7188 192.438 73.75C192.438 71.7812 193.344 70.625 194.938 70.625C196.531 70.625 197.406 71.7188 197.406 73.7188ZM200.219 76.8438C201 77.5312 202.062 77.9062 203.438 77.9062C205.375 77.9062 206.594 77 206.594 75.5938C206.594 74.4688 205.875 73.7812 204.375 73.4062L203.031 73.0625C202.156 72.875 201.781 72.5 201.781 71.8438C201.781 71.0625 202.438 70.5938 203.594 70.5938C204.438 70.5938 205.25 70.9062 206 71.5312L206.438 70.5938C205.75 69.9062 204.719 69.5312 203.594 69.5312C201.719 69.5312 200.5 70.5312 200.5 71.9375C200.5 73 201.25 73.7812 202.594 74.0938L203.969 74.4062C204.938 74.6562 205.344 75 205.344 75.625C205.344 76.4062 204.688 76.8438 203.5 76.8438C202.375 76.8438 201.531 76.5938 200.656 75.9062L200.219 76.8438ZM208.094 76.8438C208.875 77.5312 209.938 77.9062 211.312 77.9062C213.25 77.9062 214.469 77 214.469 75.5938C214.469 74.4688 213.75 73.7812 212.25 73.4062L210.906 73.0625C210.031 72.875 209.656 72.5 209.656 71.8438C209.656 71.0625 210.312 70.5938 211.469 70.5938C212.312 70.5938 213.125 70.9062 213.875 71.5312L214.312 70.5938C213.625 69.9062 212.594 69.5312 211.469 69.5312C209.594 69.5312 208.375 70.5312 208.375 71.9375C208.375 73 209.125 73.7812 210.469 74.0938L211.844 74.4062C212.812 74.6562 213.219 75 213.219 75.625C213.219 76.4062 212.562 76.8438 211.375 76.8438C210.25 76.8438 209.406 76.5938 208.531 75.9062L208.094 76.8438ZM223.188 73.4688C223.188 71.0312 221.906 69.5312 219.781 69.5312C217.562 69.5312 216 71.25 216 73.7188C216 76.3125 217.5 77.9062 220.031 77.9062C221.156 77.9062 222.344 77.4688 223.062 76.8125L222.625 75.875C221.844 76.5 220.969 76.8125 220.031 76.8125C218.25 76.8125 217.312 75.75 217.312 73.7188H223.188V73.4688ZM217.344 72.875C217.594 71.4062 218.438 70.5625 219.781 70.5625C221.125 70.5625 221.906 71.3438 222.031 72.875H217.344ZM229.25 69.7188H226.938V67.2188L225.656 67.6562V69.7188H224.094V70.75H225.656V75.3438C225.656 77 226.562 77.9062 228.094 77.9062C228.5 77.9062 228.875 77.8438 229.219 77.7188V76.625C228.938 76.7188 228.656 76.7812 228.344 76.7812C227.469 76.7812 226.938 76.3438 226.938 75.1562V70.75H229.25V69.7188ZM230.125 76.8438C230.906 77.5312 231.969 77.9062 233.344 77.9062C235.281 77.9062 236.5 77 236.5 75.5938C236.5 74.4688 235.781 73.7812 234.281 73.4062L232.938 73.0625C232.062 72.875 231.688 72.5 231.688 71.8438C231.688 71.0625 232.344 70.5938 233.5 70.5938C234.344 70.5938 235.156 70.9062 235.906 71.5312L236.344 70.5938C235.656 69.9062 234.625 69.5312 233.5 69.5312C231.625 69.5312 230.406 70.5312 230.406 71.9375C230.406 73 231.156 73.7812 232.5 74.0938L233.875 74.4062C234.844 74.6562 235.25 75 235.25 75.625C235.25 76.4062 234.594 76.8438 233.406 76.8438C232.281 76.8438 231.438 76.5938 230.562 75.9062L230.125 76.8438ZM239.938 77.7812V76.125H238.281V77.7812H239.938Z" fill="white"/>
</svg>
