<svg width="776" height="175" viewBox="0 0 776 175" fill="none" xmlns="http://www.w3.org/2000/svg">
<path opacity="0.7" d="M8.59375 14.1562H2.71875V10.0312H8.28125V8.90625H2.71875V4.9375H8.59375V3.84375H1.40625V15.25H8.59375V14.1562ZM16.5938 7.1875L14.2812 10.1562L11.9375 7.1875H10.375L13.5312 11.0938L10.1875 15.25H11.75L14.2812 12.0938L16.8125 15.25H18.375L15.0625 11.0938L18.1875 7.1875H16.5938ZM27.4062 11.2188C27.4062 8.71875 25.9688 7 23.8125 7C22.5 7 21.5 7.65625 21.0312 8.75L20.9062 7.1875H19.6875C19.75 7.875 19.8125 8.625 19.8125 9.46875V18.7188H21.0938V13.75C21.5938 14.7812 22.5625 15.375 23.8125 15.375C25.9688 15.375 27.4062 13.7188 27.4062 11.2188ZM26.0625 11.2188C26.0625 13.1875 25.1562 14.2812 23.5938 14.2812C22 14.2812 21.0938 13.1562 21.0938 11.1875C21.0938 9.1875 22 8.09375 23.5938 8.09375C25.125 8.09375 26.0625 9.25 26.0625 11.2188ZM31.0625 3.46875H29.7812V15.25H31.0625V3.46875ZM33.0938 11.1875C33.0938 13.7188 34.5938 15.375 36.875 15.375C39.1875 15.375 40.6875 13.7188 40.6875 11.1875C40.6875 8.65625 39.1875 7 36.875 7C34.5938 7 33.0938 8.65625 33.0938 11.1875ZM39.375 11.1875C39.375 13.2188 38.5 14.2812 36.875 14.2812C35.2812 14.2812 34.4062 13.2188 34.4062 11.1875C34.4062 9.21875 35.3125 8.09375 36.875 8.09375C38.4375 8.09375 39.375 9.21875 39.375 11.1875ZM47.1875 7.09375C46.9688 7.03125 46.7188 7 46.4688 7C45.3125 7 44.3438 7.59375 43.9375 8.6875L43.8125 7.1875H42.5938C42.6562 7.875 42.7188 8.625 42.7188 9.46875V15.25H44V10.6562C44 9.96875 44.2188 9.375 44.5625 8.90625C44.9688 8.40625 45.5312 8.15625 46.3125 8.15625C46.625 8.15625 46.9375 8.21875 47.1562 8.28125L47.1875 7.09375ZM56.2812 10.9375C56.2812 8.5 55 7 52.875 7C50.6562 7 49.0938 8.71875 49.0938 11.1875C49.0938 13.7812 50.5938 15.375 53.125 15.375C54.25 15.375 55.4375 14.9375 56.1562 14.2812L55.7188 13.3438C54.9375 13.9688 54.0625 14.2812 53.125 14.2812C51.3438 14.2812 50.4062 13.2188 50.4062 11.1875H56.2812V10.9375ZM50.4375 10.3438C50.6875 8.875 51.5312 8.03125 52.875 8.03125C54.2188 8.03125 55 8.8125 55.125 10.3438H50.4375Z" fill="#964ECE"/>
<path opacity="0.7" d="M6.4375 42.8438H5.28125L0.28125 54.25H1.65625L2.90625 51.3125H8.875L10.125 54.25H11.4688L6.4375 42.8438ZM8.40625 50.2188H3.375L5.875 44.375L8.40625 50.2188ZM17.4688 46.0938C17.25 46.0312 17 46 16.75 46C15.5938 46 14.625 46.5938 14.2188 47.6875L14.0938 46.1875H12.875C12.9375 46.875 13 47.625 13 48.4688V54.25H14.2812V49.6562C14.2812 48.9688 14.5 48.375 14.8438 47.9062C15.25 47.4062 15.8125 47.1562 16.5938 47.1562C16.9062 47.1562 17.2188 47.2188 17.4375 47.2812L17.4688 46.0938ZM23.875 46.1875H21.5625V43.6875L20.2812 44.125V46.1875H18.7188V47.2188H20.2812V51.8125C20.2812 53.4688 21.1875 54.375 22.7188 54.375C23.125 54.375 23.5 54.3125 23.8438 54.1875V53.0938C23.5625 53.1875 23.2812 53.25 22.9688 53.25C22.0938 53.25 21.5625 52.8125 21.5625 51.625V47.2188H23.875V46.1875Z" fill="white"/>
<path opacity="0.7" d="M2.5 118.844H1.40625V130.25H2.625L2.59375 121.844L6.34375 130.25H7.25L10.9688 121.781V130.25H12.1875V118.844H11.0938L6.8125 128.688L2.5 118.844ZM20.2812 126.75C20.2812 128.281 19.3125 129.281 17.9062 129.281C16.6875 129.281 16.0938 128.625 16.0938 127.156V122.188H14.7812V127.188C14.7812 129.281 15.7812 130.375 17.6875 130.375C18.8438 130.375 19.8125 129.844 20.3125 128.844V130.25H21.5625V122.188H20.2812V126.75ZM23.5 129.312C24.2812 130 25.3438 130.375 26.7188 130.375C28.6562 130.375 29.875 129.469 29.875 128.062C29.875 126.938 29.1562 126.25 27.6562 125.875L26.3125 125.531C25.4375 125.344 25.0625 124.969 25.0625 124.312C25.0625 123.531 25.7188 123.062 26.875 123.062C27.7188 123.062 28.5312 123.375 29.2812 124L29.7188 123.062C29.0312 122.375 28 122 26.875 122C25 122 23.7812 123 23.7812 124.406C23.7812 125.469 24.5312 126.25 25.875 126.562L27.25 126.875C28.2188 127.125 28.625 127.469 28.625 128.094C28.625 128.875 27.9688 129.312 26.7812 129.312C25.6562 129.312 24.8125 129.062 23.9375 128.375L23.5 129.312ZM33.3125 120.25V118.781H31.75V120.25H33.3125ZM33.1562 122.188H31.875V130.25H33.1562V122.188ZM35.2188 126.219C35.2188 128.719 36.7188 130.375 39.0625 130.375C40.1562 130.375 41.2812 129.969 41.9688 129.312L41.5312 128.375C40.7188 129 39.9688 129.281 39.1875 129.281C37.5312 129.281 36.5625 128.156 36.5625 126.219C36.5625 124.25 37.5312 123.094 39.1875 123.094C39.9688 123.094 40.7188 123.375 41.5312 124.031L41.9688 123.062C41.3125 122.406 40.2188 122 39.125 122C36.75 122 35.2188 123.719 35.2188 126.219Z" fill="white"/>
<path opacity="0.7" d="M2.71875 92.25V87.25H5.9375C8.28125 87.25 9.6875 86.0312 9.6875 84.0312C9.6875 82.0625 8.3125 80.8438 5.9375 80.8438H1.40625V92.25H2.71875ZM2.71875 81.9375H5.84375C7.53125 81.9375 8.375 82.6875 8.375 84.0312C8.375 85.4062 7.53125 86.1562 5.84375 86.1562H2.71875V81.9375ZM19.25 87.1875C19.25 85.0625 18.2812 84 16.3438 84C15.1562 84 14.1562 84.5312 13.625 85.5V80.4688H12.3438V92.25H13.625V87.6562C13.625 86.0938 14.625 85.0938 16.0938 85.0938C17.375 85.0938 17.9688 85.7812 17.9688 87.25V92.25H19.25V87.1875ZM21.2812 88.1875C21.2812 90.7188 22.7812 92.375 25.0625 92.375C27.375 92.375 28.875 90.7188 28.875 88.1875C28.875 85.6562 27.375 84 25.0625 84C22.7812 84 21.2812 85.6562 21.2812 88.1875ZM27.5625 88.1875C27.5625 90.2188 26.6875 91.2812 25.0625 91.2812C23.4688 91.2812 22.5938 90.2188 22.5938 88.1875C22.5938 86.2188 23.5 85.0938 25.0625 85.0938C26.625 85.0938 27.5625 86.2188 27.5625 88.1875ZM34.9375 84.1875H32.625V81.6875L31.3438 82.125V84.1875H29.7812V85.2188H31.3438V89.8125C31.3438 91.4688 32.25 92.375 33.7812 92.375C34.1875 92.375 34.5625 92.3125 34.9062 92.1875V91.0938C34.625 91.1875 34.3438 91.25 34.0312 91.25C33.1562 91.25 32.625 90.8125 32.625 89.625V85.2188H34.9375V84.1875ZM35.8438 88.1875C35.8438 90.7188 37.3438 92.375 39.625 92.375C41.9375 92.375 43.4375 90.7188 43.4375 88.1875C43.4375 85.6562 41.9375 84 39.625 84C37.3438 84 35.8438 85.6562 35.8438 88.1875ZM42.125 88.1875C42.125 90.2188 41.25 91.2812 39.625 91.2812C38.0312 91.2812 37.1562 90.2188 37.1562 88.1875C37.1562 86.2188 38.0625 85.0938 39.625 85.0938C41.1875 85.0938 42.125 86.2188 42.125 88.1875ZM51.3438 85.5938C50.8438 84.5938 49.875 84 48.5938 84C46.4375 84 45 85.625 45 88C45 90.4062 46.4375 92 48.5938 92C49.875 92 50.8438 91.4062 51.3438 90.4062V92.3125C51.3438 93.9062 50.5625 94.75 49 94.75C47.9062 94.75 47.0938 94.5 46.0625 93.9375L45.8438 95C46.7188 95.5312 47.7812 95.8125 49 95.8125C51.375 95.8125 52.625 94.5625 52.625 92.1875V84.1875H51.3438V85.5938ZM51.3438 88C51.3438 89.8125 50.4062 90.9375 48.8438 90.9375C47.25 90.9375 46.3125 89.8125 46.3125 88C46.3125 86.1875 47.25 85.0938 48.8438 85.0938C50.4062 85.0938 51.3438 86.1875 51.3438 88ZM59.125 84.0938C58.9062 84.0312 58.6562 84 58.4062 84C57.25 84 56.2812 84.5938 55.875 85.6875L55.75 84.1875H54.5312C54.5938 84.875 54.6562 85.625 54.6562 86.4688V92.25H55.9375V87.6562C55.9375 86.9688 56.1562 86.375 56.5 85.9062C56.9062 85.4062 57.4688 85.1562 58.25 85.1562C58.5625 85.1562 58.875 85.2188 59.0938 85.2812L59.125 84.0938ZM67.3125 85.5938C66.8125 84.5938 65.8438 84 64.5938 84C62.4688 84 61.0312 85.7188 61.0312 88.2188C61.0312 90.7188 62.4375 92.375 64.5938 92.375C65.8438 92.375 66.8438 91.8125 67.3125 90.7812V92.25H68.5938V84.1875H67.3125V85.5938ZM67.3125 88.1875C67.3125 90.1562 66.4375 91.2812 64.8438 91.2812C63.25 91.2812 62.3438 90.1875 62.3438 88.2188C62.3438 86.25 63.25 85.0938 64.8438 85.0938C66.4375 85.0938 67.3125 86.1875 67.3125 88.1875ZM78.2188 88.2188C78.2188 85.7188 76.7812 84 74.625 84C73.3125 84 72.3125 84.6562 71.8438 85.75L71.7188 84.1875H70.5C70.5625 84.875 70.625 85.625 70.625 86.4688V95.7188H71.9062V90.75C72.4062 91.7812 73.375 92.375 74.625 92.375C76.7812 92.375 78.2188 90.7188 78.2188 88.2188ZM76.875 88.2188C76.875 90.1875 75.9688 91.2812 74.4062 91.2812C72.8125 91.2812 71.9062 90.1562 71.9062 88.1875C71.9062 86.1875 72.8125 85.0938 74.4062 85.0938C75.9375 85.0938 76.875 86.25 76.875 88.2188ZM87.5 87.1875C87.5 85.0625 86.5312 84 84.5938 84C83.4062 84 82.4062 84.5312 81.875 85.5V80.4688H80.5938V92.25H81.875V87.6562C81.875 86.0938 82.875 85.0938 84.3438 85.0938C85.625 85.0938 86.2188 85.7812 86.2188 87.25V92.25H87.5V87.1875ZM93.0312 90.8438L90.3125 84.1875H88.9375L92.3438 92.1562L92.0312 92.875C91.7812 93.4688 91.4375 93.9062 91.0625 94.1875C90.6562 94.4688 90.0938 94.6875 89.3438 94.875L89.625 95.875C91.3438 95.5625 92.5312 94.8125 93.3125 93L97.0625 84.1875H95.7812L93.0312 90.8438Z" fill="white"/>
<path opacity="0.7" d="M6.375 163.344H9.21875V166.812C8.34375 167.125 7.4375 167.281 6.46875 167.281C3.78125 167.281 2.34375 165.625 2.34375 162.531C2.34375 159.5 3.78125 157.844 6.34375 157.844C7.6875 157.844 8.65625 158.219 9.75 159.188L10.2812 158.156C9.3125 157.219 7.9375 156.719 6.34375 156.719C3.03125 156.719 1 158.938 1 162.531C1 166.188 3.03125 168.375 6.4375 168.375C7.9375 168.375 9.53125 168.062 10.4062 167.594V162.312H6.375V163.344ZM18.4688 161.594C17.9688 160.594 17 160 15.75 160C13.625 160 12.1875 161.719 12.1875 164.219C12.1875 166.719 13.5938 168.375 15.75 168.375C17 168.375 18 167.812 18.4688 166.781V168.25H19.75V160.188H18.4688V161.594ZM18.4688 164.188C18.4688 166.156 17.5938 167.281 16 167.281C14.4062 167.281 13.5 166.188 13.5 164.219C13.5 162.25 14.4062 161.094 16 161.094C17.5938 161.094 18.4688 162.188 18.4688 164.188ZM33.375 163.188C33.375 161.062 32.4688 160 30.7188 160C29.5 160 28.5 160.625 28.0312 161.562C27.625 160.5 26.8438 160 25.5625 160C24.375 160 23.4688 160.594 23 161.625L22.875 160.188H21.6562C21.7188 160.875 21.7812 161.625 21.7812 162.469V168.25H23.0625V163.656C23.0625 162.062 23.9062 161.094 25.2812 161.094C26.4375 161.094 26.9375 161.781 26.9375 163.25V168.25H28.25V163.656C28.25 162.062 29.0625 161.094 30.4062 161.094C31.5938 161.094 32.0938 161.75 32.0938 163.25V168.25H33.375V163.188ZM42.4688 163.938C42.4688 161.5 41.1875 160 39.0625 160C36.8438 160 35.2812 161.719 35.2812 164.188C35.2812 166.781 36.7812 168.375 39.3125 168.375C40.4375 168.375 41.625 167.938 42.3438 167.281L41.9062 166.344C41.125 166.969 40.25 167.281 39.3125 167.281C37.5312 167.281 36.5938 166.219 36.5938 164.188H42.4688V163.938ZM36.625 163.344C36.875 161.875 37.7188 161.031 39.0625 161.031C40.4062 161.031 41.1875 161.812 41.3125 163.344H36.625ZM44 167.312C44.7812 168 45.8438 168.375 47.2188 168.375C49.1562 168.375 50.375 167.469 50.375 166.062C50.375 164.938 49.6562 164.25 48.1562 163.875L46.8125 163.531C45.9375 163.344 45.5625 162.969 45.5625 162.312C45.5625 161.531 46.2188 161.062 47.375 161.062C48.2188 161.062 49.0312 161.375 49.7812 162L50.2188 161.062C49.5312 160.375 48.5 160 47.375 160C45.5 160 44.2812 161 44.2812 162.406C44.2812 163.469 45.0312 164.25 46.375 164.562L47.75 164.875C48.7188 165.125 49.125 165.469 49.125 166.094C49.125 166.875 48.4688 167.312 47.2812 167.312C46.1562 167.312 45.3125 167.062 44.4375 166.375L44 167.312Z" fill="white"/>
<path opacity="0.7" d="M205.5 3.84375H204.406V15.25H205.625L205.594 6.84375L209.344 15.25H210.25L213.969 6.78125V15.25H215.188V3.84375H214.094L209.812 13.6875L205.5 3.84375ZM220.875 13.8438L218.156 7.1875H216.781L220.188 15.1562L219.875 15.875C219.625 16.4688 219.281 16.9062 218.906 17.1875C218.5 17.4688 217.938 17.6875 217.188 17.875L217.469 18.875C219.188 18.5625 220.375 17.8125 221.156 16L224.906 7.1875H223.625L220.875 13.8438ZM238.406 8.59375C237.906 7.59375 236.938 7 235.688 7C233.562 7 232.125 8.71875 232.125 11.2188C232.125 13.7188 233.531 15.375 235.688 15.375C236.938 15.375 237.938 14.8125 238.406 13.7812V15.25H239.688V7.1875H238.406V8.59375ZM238.406 11.1875C238.406 13.1562 237.531 14.2812 235.938 14.2812C234.344 14.2812 233.438 13.1875 233.438 11.2188C233.438 9.25 234.344 8.09375 235.938 8.09375C237.531 8.09375 238.406 9.1875 238.406 11.1875ZM241.25 11.2188C241.25 13.7188 242.75 15.375 245.094 15.375C246.188 15.375 247.312 14.9688 248 14.3125L247.562 13.375C246.75 14 246 14.2812 245.219 14.2812C243.562 14.2812 242.594 13.1562 242.594 11.2188C242.594 9.25 243.562 8.09375 245.219 8.09375C246 8.09375 246.75 8.375 247.562 9.03125L248 8.0625C247.344 7.40625 246.25 7 245.156 7C242.781 7 241.25 8.71875 241.25 11.2188ZM249.562 11.2188C249.562 13.7188 251.062 15.375 253.406 15.375C254.5 15.375 255.625 14.9688 256.312 14.3125L255.875 13.375C255.062 14 254.312 14.2812 253.531 14.2812C251.875 14.2812 250.906 13.1562 250.906 11.2188C250.906 9.25 251.875 8.09375 253.531 8.09375C254.312 8.09375 255.062 8.375 255.875 9.03125L256.312 8.0625C255.656 7.40625 254.562 7 253.469 7C251.094 7 249.562 8.71875 249.562 11.2188ZM257.875 11.1875C257.875 13.7188 259.375 15.375 261.656 15.375C263.969 15.375 265.469 13.7188 265.469 11.1875C265.469 8.65625 263.969 7 261.656 7C259.375 7 257.875 8.65625 257.875 11.1875ZM264.156 11.1875C264.156 13.2188 263.281 14.2812 261.656 14.2812C260.062 14.2812 259.188 13.2188 259.188 11.1875C259.188 9.21875 260.094 8.09375 261.656 8.09375C263.219 8.09375 264.156 9.21875 264.156 11.1875ZM272.938 11.75C272.938 13.2812 271.969 14.2812 270.562 14.2812C269.344 14.2812 268.75 13.625 268.75 12.1562V7.1875H267.438V12.1875C267.438 14.2812 268.438 15.375 270.344 15.375C271.5 15.375 272.469 14.8438 272.969 13.8438V15.25H274.219V7.1875H272.938V11.75ZM283.562 10.1875C283.562 8.0625 282.594 7 280.656 7C279.406 7 278.375 7.59375 277.875 8.65625L277.75 7.1875H276.531C276.594 7.875 276.656 8.625 276.656 9.46875V15.25H277.938V10.6562C277.938 9.09375 278.938 8.09375 280.406 8.09375C281.688 8.09375 282.281 8.78125 282.281 10.25V15.25H283.562V10.1875ZM289.969 7.1875H287.656V4.6875L286.375 5.125V7.1875H284.812V8.21875H286.375V12.8125C286.375 14.4688 287.281 15.375 288.812 15.375C289.219 15.375 289.594 15.3125 289.938 15.1875V14.0938C289.656 14.1875 289.375 14.25 289.062 14.25C288.188 14.25 287.656 13.8125 287.656 12.625V8.21875H289.969V7.1875Z" fill="#964ECE"/>
<path opacity="0.7" d="M205.5 42.8438H204.406V54.25H205.625L205.594 45.8438L209.344 54.25H210.25L213.969 45.7812V54.25H215.188V42.8438H214.094L209.812 52.6875L205.5 42.8438ZM220.875 52.8438L218.156 46.1875H216.781L220.188 54.1562L219.875 54.875C219.625 55.4688 219.281 55.9062 218.906 56.1875C218.5 56.4688 217.938 56.6875 217.188 56.875L217.469 57.875C219.188 57.5625 220.375 56.8125 221.156 55L224.906 46.1875H223.625L220.875 52.8438ZM240.188 50.2188C240.188 47.7188 238.75 46 236.594 46C235.281 46 234.281 46.6562 233.812 47.75L233.688 46.1875H232.469C232.531 46.875 232.594 47.625 232.594 48.4688V57.7188H233.875V52.75C234.375 53.7812 235.344 54.375 236.594 54.375C238.75 54.375 240.188 52.7188 240.188 50.2188ZM238.844 50.2188C238.844 52.1875 237.938 53.2812 236.375 53.2812C234.781 53.2812 233.875 52.1562 233.875 50.1875C233.875 48.1875 234.781 47.0938 236.375 47.0938C237.906 47.0938 238.844 48.25 238.844 50.2188ZM247.031 46.0938C246.812 46.0312 246.562 46 246.312 46C245.156 46 244.188 46.5938 243.781 47.6875L243.656 46.1875H242.438C242.5 46.875 242.562 47.625 242.562 48.4688V54.25H243.844V49.6562C243.844 48.9688 244.062 48.375 244.406 47.9062C244.812 47.4062 245.375 47.1562 246.156 47.1562C246.469 47.1562 246.781 47.2188 247 47.2812L247.031 46.0938ZM248.938 50.1875C248.938 52.7188 250.438 54.375 252.719 54.375C255.031 54.375 256.531 52.7188 256.531 50.1875C256.531 47.6562 255.031 46 252.719 46C250.438 46 248.938 47.6562 248.938 50.1875ZM255.219 50.1875C255.219 52.2188 254.344 53.2812 252.719 53.2812C251.125 53.2812 250.25 52.2188 250.25 50.1875C250.25 48.2188 251.156 47.0938 252.719 47.0938C254.281 47.0938 255.219 48.2188 255.219 50.1875ZM260.281 45.125C260.281 43.9688 260.812 43.5312 261.656 43.5312C261.906 43.5312 262.188 43.5625 262.469 43.6562V42.5625C262.125 42.4688 261.75 42.4062 261.406 42.4062C259.875 42.4062 259 43.2812 259 44.9688V46.1875H257.438V47.2188H259V54.25H260.281V47.2188H262.25V46.1875H260.281V45.125ZM265.281 44.25V42.7812H263.719V44.25H265.281ZM265.125 46.1875H263.844V54.25H265.125V46.1875ZM268.938 42.4688H267.656V54.25H268.938V42.4688ZM278.156 49.9375C278.156 47.5 276.875 46 274.75 46C272.531 46 270.969 47.7188 270.969 50.1875C270.969 52.7812 272.469 54.375 275 54.375C276.125 54.375 277.312 53.9375 278.031 53.2812L277.594 52.3438C276.812 52.9688 275.938 53.2812 275 53.2812C273.219 53.2812 272.281 52.2188 272.281 50.1875H278.156V49.9375ZM272.312 49.3438C272.562 47.875 273.406 47.0312 274.75 47.0312C276.094 47.0312 276.875 47.8125 277 49.3438H272.312Z" fill="white"/>
<path opacity="0.7" d="M205.5 118.844H204.406V130.25H205.625L205.594 121.844L209.344 130.25H210.25L213.969 121.781V130.25H215.188V118.844H214.094L209.812 128.688L205.5 118.844ZM220.875 128.844L218.156 122.188H216.781L220.188 130.156L219.875 130.875C219.625 131.469 219.281 131.906 218.906 132.188C218.5 132.469 217.938 132.688 217.188 132.875L217.469 133.875C219.188 133.562 220.375 132.812 221.156 131L224.906 122.188H223.625L220.875 128.844ZM234.312 121.125C234.312 119.969 234.844 119.531 235.688 119.531C235.938 119.531 236.219 119.562 236.5 119.656V118.562C236.156 118.469 235.781 118.406 235.438 118.406C233.906 118.406 233.031 119.281 233.031 120.969V122.188H231.469V123.219H233.031V130.25H234.312V123.219H236.281V122.188H234.312V121.125ZM243.688 123.594C243.188 122.594 242.219 122 240.969 122C238.844 122 237.406 123.719 237.406 126.219C237.406 128.719 238.812 130.375 240.969 130.375C242.219 130.375 243.219 129.812 243.688 128.781V130.25H244.969V122.188H243.688V123.594ZM243.688 126.188C243.688 128.156 242.812 129.281 241.219 129.281C239.625 129.281 238.719 128.188 238.719 126.219C238.719 124.25 239.625 123.094 241.219 123.094C242.812 123.094 243.688 124.188 243.688 126.188ZM247.312 122.219H245.938L249.375 130.25H250.594L254.062 122.219H252.781L250.031 128.844L247.312 122.219ZM255.031 126.188C255.031 128.719 256.531 130.375 258.812 130.375C261.125 130.375 262.625 128.719 262.625 126.188C262.625 123.656 261.125 122 258.812 122C256.531 122 255.031 123.656 255.031 126.188ZM261.312 126.188C261.312 128.219 260.438 129.281 258.812 129.281C257.219 129.281 256.344 128.219 256.344 126.188C256.344 124.219 257.25 123.094 258.812 123.094C260.375 123.094 261.312 124.219 261.312 126.188ZM270.094 126.75C270.094 128.281 269.125 129.281 267.719 129.281C266.5 129.281 265.906 128.625 265.906 127.156V122.188H264.594V127.188C264.594 129.281 265.594 130.375 267.5 130.375C268.656 130.375 269.625 129.844 270.125 128.844V130.25H271.375V122.188H270.094V126.75ZM278.281 122.094C278.062 122.031 277.812 122 277.562 122C276.406 122 275.438 122.594 275.031 123.688L274.906 122.188H273.688C273.75 122.875 273.812 123.625 273.812 124.469V130.25H275.094V125.656C275.094 124.969 275.312 124.375 275.656 123.906C276.062 123.406 276.625 123.156 277.406 123.156C277.719 123.156 278.031 123.219 278.25 123.281L278.281 122.094ZM282.094 120.25V118.781H280.531V120.25H282.094ZM281.938 122.188H280.656V130.25H281.938V122.188ZM288.5 122.188H286.188V119.688L284.906 120.125V122.188H283.344V123.219H284.906V127.812C284.906 129.469 285.812 130.375 287.344 130.375C287.75 130.375 288.125 130.312 288.469 130.188V129.094C288.188 129.188 287.906 129.25 287.594 129.25C286.719 129.25 286.188 128.812 286.188 127.625V123.219H288.5V122.188ZM296.594 125.938C296.594 123.5 295.312 122 293.188 122C290.969 122 289.406 123.719 289.406 126.188C289.406 128.781 290.906 130.375 293.438 130.375C294.562 130.375 295.75 129.938 296.469 129.281L296.031 128.344C295.25 128.969 294.375 129.281 293.438 129.281C291.656 129.281 290.719 128.219 290.719 126.188H296.594V125.938ZM290.75 125.344C291 123.875 291.844 123.031 293.188 123.031C294.531 123.031 295.312 123.812 295.438 125.344H290.75Z" fill="white"/>
<path opacity="0.7" d="M205.5 80.8438H204.406V92.25H205.625L205.594 83.8438L209.344 92.25H210.25L213.969 83.7812V92.25H215.188V80.8438H214.094L209.812 90.6875L205.5 80.8438ZM220.875 90.8438L218.156 84.1875H216.781L220.188 92.1562L219.875 92.875C219.625 93.4688 219.281 93.9062 218.906 94.1875C218.5 94.4688 217.938 94.6875 217.188 94.875L217.469 95.875C219.188 95.5625 220.375 94.8125 221.156 93L224.906 84.1875H223.625L220.875 90.8438ZM232.125 88.2188C232.125 90.7188 233.625 92.375 235.969 92.375C237.062 92.375 238.188 91.9688 238.875 91.3125L238.438 90.375C237.625 91 236.875 91.2812 236.094 91.2812C234.438 91.2812 233.469 90.1562 233.469 88.2188C233.469 86.25 234.438 85.0938 236.094 85.0938C236.875 85.0938 237.625 85.375 238.438 86.0312L238.875 85.0625C238.219 84.4062 237.125 84 236.031 84C233.656 84 232.125 85.7188 232.125 88.2188ZM240.438 88.1875C240.438 90.7188 241.938 92.375 244.219 92.375C246.531 92.375 248.031 90.7188 248.031 88.1875C248.031 85.6562 246.531 84 244.219 84C241.938 84 240.438 85.6562 240.438 88.1875ZM246.719 88.1875C246.719 90.2188 245.844 91.2812 244.219 91.2812C242.625 91.2812 241.75 90.2188 241.75 88.1875C241.75 86.2188 242.656 85.0938 244.219 85.0938C245.781 85.0938 246.719 86.2188 246.719 88.1875ZM251.344 80.4688H250.062V92.25H251.344V80.4688ZM255.125 80.4688H253.844V92.25H255.125V80.4688ZM264.344 87.9375C264.344 85.5 263.062 84 260.938 84C258.719 84 257.156 85.7188 257.156 88.1875C257.156 90.7812 258.656 92.375 261.188 92.375C262.312 92.375 263.5 91.9375 264.219 91.2812L263.781 90.3438C263 90.9688 262.125 91.2812 261.188 91.2812C259.406 91.2812 258.469 90.2188 258.469 88.1875H264.344V87.9375ZM258.5 87.3438C258.75 85.875 259.594 85.0312 260.938 85.0312C262.281 85.0312 263.062 85.8125 263.188 87.3438H258.5ZM265.906 88.2188C265.906 90.7188 267.406 92.375 269.75 92.375C270.844 92.375 271.969 91.9688 272.656 91.3125L272.219 90.375C271.406 91 270.656 91.2812 269.875 91.2812C268.219 91.2812 267.25 90.1562 267.25 88.2188C267.25 86.25 268.219 85.0938 269.875 85.0938C270.656 85.0938 271.406 85.375 272.219 86.0312L272.656 85.0625C272 84.4062 270.906 84 269.812 84C267.438 84 265.906 85.7188 265.906 88.2188ZM278.719 84.1875H276.406V81.6875L275.125 82.125V84.1875H273.562V85.2188H275.125V89.8125C275.125 91.4688 276.031 92.375 277.562 92.375C277.969 92.375 278.344 92.3125 278.688 92.1875V91.0938C278.406 91.1875 278.125 91.25 277.812 91.25C276.938 91.25 276.406 90.8125 276.406 89.625V85.2188H278.719V84.1875ZM281.531 82.25V80.7812H279.969V82.25H281.531ZM281.375 84.1875H280.094V92.25H281.375V84.1875ZM283.438 88.1875C283.438 90.7188 284.938 92.375 287.219 92.375C289.531 92.375 291.031 90.7188 291.031 88.1875C291.031 85.6562 289.531 84 287.219 84C284.938 84 283.438 85.6562 283.438 88.1875ZM289.719 88.1875C289.719 90.2188 288.844 91.2812 287.219 91.2812C285.625 91.2812 284.75 90.2188 284.75 88.1875C284.75 86.2188 285.656 85.0938 287.219 85.0938C288.781 85.0938 289.719 86.2188 289.719 88.1875ZM299.969 87.1875C299.969 85.0625 299 84 297.062 84C295.812 84 294.781 84.5938 294.281 85.6562L294.156 84.1875H292.938C293 84.875 293.062 85.625 293.062 86.4688V92.25H294.344V87.6562C294.344 86.0938 295.344 85.0938 296.812 85.0938C298.094 85.0938 298.688 85.7812 298.688 87.25V92.25H299.969V87.1875Z" fill="white"/>
<path opacity="0.7" d="M205.5 156.844H204.406V168.25H205.625L205.594 159.844L209.344 168.25H210.25L213.969 159.781V168.25H215.188V156.844H214.094L209.812 166.688L205.5 156.844ZM220.875 166.844L218.156 160.188H216.781L220.188 168.156L219.875 168.875C219.625 169.469 219.281 169.906 218.906 170.188C218.5 170.469 217.938 170.688 217.188 170.875L217.469 171.875C219.188 171.562 220.375 170.812 221.156 169L224.906 160.188H223.625L220.875 166.844ZM238.406 161.594C237.906 160.594 236.938 160 235.688 160C233.562 160 232.125 161.719 232.125 164.219C232.125 166.719 233.531 168.375 235.688 168.375C236.938 168.375 237.938 167.812 238.406 166.781V168.25H239.688V160.188H238.406V161.594ZM238.406 164.188C238.406 166.156 237.531 167.281 235.938 167.281C234.344 167.281 233.438 166.188 233.438 164.219C233.438 162.25 234.344 161.094 235.938 161.094C237.531 161.094 238.406 162.188 238.406 164.188ZM241.25 164.219C241.25 166.719 242.75 168.375 245.094 168.375C246.188 168.375 247.312 167.969 248 167.312L247.562 166.375C246.75 167 246 167.281 245.219 167.281C243.562 167.281 242.594 166.156 242.594 164.219C242.594 162.25 243.562 161.094 245.219 161.094C246 161.094 246.75 161.375 247.562 162.031L248 161.062C247.344 160.406 246.25 160 245.156 160C242.781 160 241.25 161.719 241.25 164.219ZM249.562 164.219C249.562 166.719 251.062 168.375 253.406 168.375C254.5 168.375 255.625 167.969 256.312 167.312L255.875 166.375C255.062 167 254.312 167.281 253.531 167.281C251.875 167.281 250.906 166.156 250.906 164.219C250.906 162.25 251.875 161.094 253.531 161.094C254.312 161.094 255.062 161.375 255.875 162.031L256.312 161.062C255.656 160.406 254.562 160 253.469 160C251.094 160 249.562 161.719 249.562 164.219ZM257.875 164.188C257.875 166.719 259.375 168.375 261.656 168.375C263.969 168.375 265.469 166.719 265.469 164.188C265.469 161.656 263.969 160 261.656 160C259.375 160 257.875 161.656 257.875 164.188ZM264.156 164.188C264.156 166.219 263.281 167.281 261.656 167.281C260.062 167.281 259.188 166.219 259.188 164.188C259.188 162.219 260.094 161.094 261.656 161.094C263.219 161.094 264.156 162.219 264.156 164.188ZM272.938 164.75C272.938 166.281 271.969 167.281 270.562 167.281C269.344 167.281 268.75 166.625 268.75 165.156V160.188H267.438V165.188C267.438 167.281 268.438 168.375 270.344 168.375C271.5 168.375 272.469 167.844 272.969 166.844V168.25H274.219V160.188H272.938V164.75ZM283.562 163.188C283.562 161.062 282.594 160 280.656 160C279.406 160 278.375 160.594 277.875 161.656L277.75 160.188H276.531C276.594 160.875 276.656 161.625 276.656 162.469V168.25H277.938V163.656C277.938 162.094 278.938 161.094 280.406 161.094C281.688 161.094 282.281 161.781 282.281 163.25V168.25H283.562V163.188ZM289.969 160.188H287.656V157.688L286.375 158.125V160.188H284.812V161.219H286.375V165.812C286.375 167.469 287.281 168.375 288.812 168.375C289.219 168.375 289.594 168.312 289.938 168.188V167.094C289.656 167.188 289.375 167.25 289.062 167.25C288.188 167.25 287.656 166.812 287.656 165.625V161.219H289.969V160.188ZM297.094 167.312C297.875 168 298.938 168.375 300.312 168.375C302.25 168.375 303.469 167.469 303.469 166.062C303.469 164.938 302.75 164.25 301.25 163.875L299.906 163.531C299.031 163.344 298.656 162.969 298.656 162.312C298.656 161.531 299.312 161.062 300.469 161.062C301.312 161.062 302.125 161.375 302.875 162L303.312 161.062C302.625 160.375 301.594 160 300.469 160C298.594 160 297.375 161 297.375 162.406C297.375 163.469 298.125 164.25 299.469 164.562L300.844 164.875C301.812 165.125 302.219 165.469 302.219 166.094C302.219 166.875 301.562 167.312 300.375 167.312C299.25 167.312 298.406 167.062 297.531 166.375L297.094 167.312ZM312.188 163.938C312.188 161.5 310.906 160 308.781 160C306.562 160 305 161.719 305 164.188C305 166.781 306.5 168.375 309.031 168.375C310.156 168.375 311.344 167.938 312.062 167.281L311.625 166.344C310.844 166.969 309.969 167.281 309.031 167.281C307.25 167.281 306.312 166.219 306.312 164.188H312.188V163.938ZM306.344 163.344C306.594 161.875 307.438 161.031 308.781 161.031C310.125 161.031 310.906 161.812 311.031 163.344H306.344ZM318.25 160.188H315.938V157.688L314.656 158.125V160.188H313.094V161.219H314.656V165.812C314.656 167.469 315.562 168.375 317.094 168.375C317.5 168.375 317.875 168.312 318.219 168.188V167.094C317.938 167.188 317.656 167.25 317.344 167.25C316.469 167.25 315.938 166.812 315.938 165.625V161.219H318.25V160.188ZM323.656 160.188H321.344V157.688L320.062 158.125V160.188H318.5V161.219H320.062V165.812C320.062 167.469 320.969 168.375 322.5 168.375C322.906 168.375 323.281 168.312 323.625 168.188V167.094C323.344 167.188 323.062 167.25 322.75 167.25C321.875 167.25 321.344 166.812 321.344 165.625V161.219H323.656V160.188ZM326.469 158.25V156.781H324.906V158.25H326.469ZM326.312 160.188H325.031V168.25H326.312V160.188ZM335.75 163.188C335.75 161.062 334.781 160 332.844 160C331.594 160 330.562 160.594 330.062 161.656L329.938 160.188H328.719C328.781 160.875 328.844 161.625 328.844 162.469V168.25H330.125V163.656C330.125 162.094 331.125 161.094 332.594 161.094C333.875 161.094 334.469 161.781 334.469 163.25V168.25H335.75V163.188ZM344 161.594C343.5 160.594 342.531 160 341.25 160C339.094 160 337.656 161.625 337.656 164C337.656 166.406 339.094 168 341.25 168C342.531 168 343.5 167.406 344 166.406V168.312C344 169.906 343.219 170.75 341.656 170.75C340.562 170.75 339.75 170.5 338.719 169.938L338.5 171C339.375 171.531 340.438 171.812 341.656 171.812C344.031 171.812 345.281 170.562 345.281 168.188V160.188H344V161.594ZM344 164C344 165.812 343.062 166.938 341.5 166.938C339.906 166.938 338.969 165.812 338.969 164C338.969 162.188 339.906 161.094 341.5 161.094C343.062 161.094 344 162.188 344 164ZM346.812 167.312C347.594 168 348.656 168.375 350.031 168.375C351.969 168.375 353.188 167.469 353.188 166.062C353.188 164.938 352.469 164.25 350.969 163.875L349.625 163.531C348.75 163.344 348.375 162.969 348.375 162.312C348.375 161.531 349.031 161.062 350.188 161.062C351.031 161.062 351.844 161.375 352.594 162L353.031 161.062C352.344 160.375 351.312 160 350.188 160C348.312 160 347.094 161 347.094 162.406C347.094 163.469 347.844 164.25 349.188 164.562L350.562 164.875C351.531 165.125 351.938 165.469 351.938 166.094C351.938 166.875 351.281 167.312 350.094 167.312C348.969 167.312 348.125 167.062 347.25 166.375L346.812 167.312Z" fill="white"/>
<path opacity="0.7" d="M457.906 11.4062C457.594 10.5312 457.125 10.0938 456.469 10C457.938 9.5625 458.75 8.5 458.75 7.03125C458.75 4.96875 457.375 3.84375 454.938 3.84375H450.406V15.25H451.719V10.2812H454.562C455.656 10.2812 456.219 10.5312 456.562 11.4688L457.969 15.25H459.344L457.906 11.4062ZM451.719 4.9375H454.812C456.625 4.9375 457.438 5.625 457.438 7.03125C457.438 8.46875 456.562 9.1875 454.812 9.1875H451.719V4.9375ZM468.719 10.9375C468.719 8.5 467.438 7 465.312 7C463.094 7 461.531 8.71875 461.531 11.1875C461.531 13.7812 463.031 15.375 465.562 15.375C466.688 15.375 467.875 14.9375 468.594 14.2812L468.156 13.3438C467.375 13.9688 466.5 14.2812 465.562 14.2812C463.781 14.2812 462.844 13.2188 462.844 11.1875H468.719V10.9375ZM462.875 10.3438C463.125 8.875 463.969 8.03125 465.312 8.03125C466.656 8.03125 467.438 8.8125 467.562 10.3438H462.875ZM470.25 14.3125C471.031 15 472.094 15.375 473.469 15.375C475.406 15.375 476.625 14.4688 476.625 13.0625C476.625 11.9375 475.906 11.25 474.406 10.875L473.062 10.5312C472.188 10.3438 471.812 9.96875 471.812 9.3125C471.812 8.53125 472.469 8.0625 473.625 8.0625C474.469 8.0625 475.281 8.375 476.031 9L476.469 8.0625C475.781 7.375 474.75 7 473.625 7C471.75 7 470.531 8 470.531 9.40625C470.531 10.4688 471.281 11.25 472.625 11.5625L474 11.875C474.969 12.125 475.375 12.4688 475.375 13.0938C475.375 13.875 474.719 14.3125 473.531 14.3125C472.406 14.3125 471.562 14.0625 470.688 13.375L470.25 14.3125ZM478.156 11.1875C478.156 13.7188 479.656 15.375 481.938 15.375C484.25 15.375 485.75 13.7188 485.75 11.1875C485.75 8.65625 484.25 7 481.938 7C479.656 7 478.156 8.65625 478.156 11.1875ZM484.438 11.1875C484.438 13.2188 483.562 14.2812 481.938 14.2812C480.344 14.2812 479.469 13.2188 479.469 11.1875C479.469 9.21875 480.375 8.09375 481.938 8.09375C483.5 8.09375 484.438 9.21875 484.438 11.1875ZM493.219 11.75C493.219 13.2812 492.25 14.2812 490.844 14.2812C489.625 14.2812 489.031 13.625 489.031 12.1562V7.1875H487.719V12.1875C487.719 14.2812 488.719 15.375 490.625 15.375C491.781 15.375 492.75 14.8438 493.25 13.8438V15.25H494.5V7.1875H493.219V11.75ZM501.406 7.09375C501.188 7.03125 500.938 7 500.688 7C499.531 7 498.562 7.59375 498.156 8.6875L498.031 7.1875H496.812C496.875 7.875 496.938 8.625 496.938 9.46875V15.25H498.219V10.6562C498.219 9.96875 498.438 9.375 498.781 8.90625C499.188 8.40625 499.75 8.15625 500.531 8.15625C500.844 8.15625 501.156 8.21875 501.375 8.28125L501.406 7.09375ZM503.312 11.2188C503.312 13.7188 504.812 15.375 507.156 15.375C508.25 15.375 509.375 14.9688 510.062 14.3125L509.625 13.375C508.812 14 508.062 14.2812 507.281 14.2812C505.625 14.2812 504.656 13.1562 504.656 11.2188C504.656 9.25 505.625 8.09375 507.281 8.09375C508.062 8.09375 508.812 8.375 509.625 9.03125L510.062 8.0625C509.406 7.40625 508.312 7 507.219 7C504.844 7 503.312 8.71875 503.312 11.2188ZM518.812 10.9375C518.812 8.5 517.531 7 515.406 7C513.188 7 511.625 8.71875 511.625 11.1875C511.625 13.7812 513.125 15.375 515.656 15.375C516.781 15.375 517.969 14.9375 518.688 14.2812L518.25 13.3438C517.469 13.9688 516.594 14.2812 515.656 14.2812C513.875 14.2812 512.938 13.2188 512.938 11.1875H518.812V10.9375ZM512.969 10.3438C513.219 8.875 514.062 8.03125 515.406 8.03125C516.75 8.03125 517.531 8.8125 517.656 10.3438H512.969ZM520.344 14.3125C521.125 15 522.188 15.375 523.562 15.375C525.5 15.375 526.719 14.4688 526.719 13.0625C526.719 11.9375 526 11.25 524.5 10.875L523.156 10.5312C522.281 10.3438 521.906 9.96875 521.906 9.3125C521.906 8.53125 522.562 8.0625 523.719 8.0625C524.562 8.0625 525.375 8.375 526.125 9L526.562 8.0625C525.875 7.375 524.844 7 523.719 7C521.844 7 520.625 8 520.625 9.40625C520.625 10.4688 521.375 11.25 522.719 11.5625L524.094 11.875C525.062 12.125 525.469 12.4688 525.469 13.0938C525.469 13.875 524.812 14.3125 523.625 14.3125C522.5 14.3125 521.656 14.0625 520.781 13.375L520.344 14.3125Z" fill="#964ECE"/>
<path opacity="0.7" d="M451.719 47.9062V42.8438H450.406V54.25H451.719V49.0312H458.531V54.25H459.844V42.8438H458.531V47.9062H451.719ZM469.219 49.9375C469.219 47.5 467.938 46 465.812 46C463.594 46 462.031 47.7188 462.031 50.1875C462.031 52.7812 463.531 54.375 466.062 54.375C467.188 54.375 468.375 53.9375 469.094 53.2812L468.656 52.3438C467.875 52.9688 467 53.2812 466.062 53.2812C464.281 53.2812 463.344 52.2188 463.344 50.1875H469.219V49.9375ZM463.375 49.3438C463.625 47.875 464.469 47.0312 465.812 47.0312C467.156 47.0312 467.938 47.8125 468.062 49.3438H463.375ZM472.531 42.4688H471.25V54.25H472.531V42.4688ZM482.625 50.2188C482.625 47.7188 481.188 46 479.031 46C477.719 46 476.719 46.6562 476.25 47.75L476.125 46.1875H474.906C474.969 46.875 475.031 47.625 475.031 48.4688V57.7188H476.312V52.75C476.812 53.7812 477.781 54.375 479.031 54.375C481.188 54.375 482.625 52.7188 482.625 50.2188ZM481.281 50.2188C481.281 52.1875 480.375 53.2812 478.812 53.2812C477.219 53.2812 476.312 52.1562 476.312 50.1875C476.312 48.1875 477.219 47.0938 478.812 47.0938C480.344 47.0938 481.281 48.25 481.281 50.2188ZM490.781 50.2188C490.781 52.7188 492.281 54.375 494.625 54.375C495.719 54.375 496.844 53.9688 497.531 53.3125L497.094 52.375C496.281 53 495.531 53.2812 494.75 53.2812C493.094 53.2812 492.125 52.1562 492.125 50.2188C492.125 48.25 493.094 47.0938 494.75 47.0938C495.531 47.0938 496.281 47.375 497.094 48.0312L497.531 47.0625C496.875 46.4062 495.781 46 494.688 46C492.312 46 490.781 47.7188 490.781 50.2188ZM506.281 49.9375C506.281 47.5 505 46 502.875 46C500.656 46 499.094 47.7188 499.094 50.1875C499.094 52.7812 500.594 54.375 503.125 54.375C504.25 54.375 505.438 53.9375 506.156 53.2812L505.719 52.3438C504.938 52.9688 504.062 53.2812 503.125 53.2812C501.344 53.2812 500.406 52.2188 500.406 50.1875H506.281V49.9375ZM500.438 49.3438C500.688 47.875 501.531 47.0312 502.875 47.0312C504.219 47.0312 505 47.8125 505.125 49.3438H500.438ZM515.219 49.1875C515.219 47.0625 514.25 46 512.312 46C511.062 46 510.031 46.5938 509.531 47.6562L509.406 46.1875H508.188C508.25 46.875 508.312 47.625 508.312 48.4688V54.25H509.594V49.6562C509.594 48.0938 510.594 47.0938 512.062 47.0938C513.344 47.0938 513.938 47.7812 513.938 49.25V54.25H515.219V49.1875ZM521.625 46.1875H519.312V43.6875L518.031 44.125V46.1875H516.469V47.2188H518.031V51.8125C518.031 53.4688 518.938 54.375 520.469 54.375C520.875 54.375 521.25 54.3125 521.594 54.1875V53.0938C521.312 53.1875 521.031 53.25 520.719 53.25C519.844 53.25 519.312 52.8125 519.312 51.625V47.2188H521.625V46.1875ZM527.469 46.0938C527.25 46.0312 527 46 526.75 46C525.594 46 524.625 46.5938 524.219 47.6875L524.094 46.1875H522.875C522.938 46.875 523 47.625 523 48.4688V54.25H524.281V49.6562C524.281 48.9688 524.5 48.375 524.844 47.9062C525.25 47.4062 525.812 47.1562 526.594 47.1562C526.906 47.1562 527.219 47.2188 527.438 47.2812L527.469 46.0938ZM536.562 49.9375C536.562 47.5 535.281 46 533.156 46C530.938 46 529.375 47.7188 529.375 50.1875C529.375 52.7812 530.875 54.375 533.406 54.375C534.531 54.375 535.719 53.9375 536.438 53.2812L536 52.3438C535.219 52.9688 534.344 53.2812 533.406 53.2812C531.625 53.2812 530.688 52.2188 530.688 50.1875H536.562V49.9375ZM530.719 49.3438C530.969 47.875 531.812 47.0312 533.156 47.0312C534.5 47.0312 535.281 47.8125 535.406 49.3438H530.719Z" fill="white"/>
<path opacity="0.7" d="M449.781 128.938C450.812 129.906 452.25 130.375 454.031 130.375C456.594 130.375 458.219 129.094 458.219 127.156C458.219 125.844 457.406 125.062 456.25 124.688C455.688 124.5 454.938 124.25 453.969 124.031C452.156 123.594 451.281 123.125 451.281 121.969C451.281 120.656 452.344 119.844 454.125 119.844C455.406 119.844 456.469 120.281 457.531 121.188L458.062 120.156C457.125 119.219 455.719 118.719 454.125 118.719C451.625 118.719 449.969 120.062 449.969 122.031C449.969 123.375 450.75 124.188 451.875 124.656C452.438 124.875 453.156 125.062 454.031 125.281C455.906 125.719 456.875 126 456.906 127.219C456.938 128.5 455.875 129.25 454.031 129.25C452.5 129.25 451.406 128.875 450.25 127.938L449.781 128.938ZM465.688 126.75C465.688 128.281 464.719 129.281 463.312 129.281C462.094 129.281 461.5 128.625 461.5 127.156V122.188H460.188V127.188C460.188 129.281 461.188 130.375 463.094 130.375C464.25 130.375 465.219 129.844 465.719 128.844V130.25H466.969V122.188H465.688V126.75ZM473.75 125.219L472.938 126L475.344 128.406L473.75 130L469.75 126L473.75 122L474.344 122.625L475.156 121.812L473.75 120.406L468.156 126L473.75 131.625L476.938 128.406L473.75 125.219ZM478.531 120.406L475.344 123.625L478.531 126.812L479.344 126L476.938 123.625L478.531 122L482.531 126L478.531 130L477.938 129.406L477.156 130.219L478.531 131.625L484.156 126L478.531 120.406ZM492.125 125.938C492.125 123.5 490.844 122 488.719 122C486.5 122 484.938 123.719 484.938 126.188C484.938 128.781 486.438 130.375 488.969 130.375C490.094 130.375 491.281 129.938 492 129.281L491.562 128.344C490.781 128.969 489.906 129.281 488.969 129.281C487.188 129.281 486.25 128.219 486.25 126.188H492.125V125.938ZM486.281 125.344C486.531 123.875 487.375 123.031 488.719 123.031C490.062 123.031 490.844 123.812 490.969 125.344H486.281ZM493.656 129.312C494.438 130 495.5 130.375 496.875 130.375C498.812 130.375 500.031 129.469 500.031 128.062C500.031 126.938 499.312 126.25 497.812 125.875L496.469 125.531C495.594 125.344 495.219 124.969 495.219 124.312C495.219 123.531 495.875 123.062 497.031 123.062C497.875 123.062 498.688 123.375 499.438 124L499.875 123.062C499.188 122.375 498.156 122 497.031 122C495.156 122 493.938 123 493.938 124.406C493.938 125.469 494.688 126.25 496.031 126.562L497.406 126.875C498.375 127.125 498.781 127.469 498.781 128.094C498.781 128.875 498.125 129.312 496.938 129.312C495.812 129.312 494.969 129.062 494.094 128.375L493.656 129.312ZM506.062 122.188H503.75V119.688L502.469 120.125V122.188H500.906V123.219H502.469V127.812C502.469 129.469 503.375 130.375 504.906 130.375C505.312 130.375 505.688 130.312 506.031 130.188V129.094C505.75 129.188 505.469 129.25 505.156 129.25C504.281 129.25 503.75 128.812 503.75 127.625V123.219H506.062V122.188ZM508.875 120.25V118.781H507.312V120.25H508.875ZM508.719 122.188H507.438V130.25H508.719V122.188ZM510.781 126.188C510.781 128.719 512.281 130.375 514.562 130.375C516.875 130.375 518.375 128.719 518.375 126.188C518.375 123.656 516.875 122 514.562 122C512.281 122 510.781 123.656 510.781 126.188ZM517.062 126.188C517.062 128.219 516.188 129.281 514.562 129.281C512.969 129.281 512.094 128.219 512.094 126.188C512.094 124.219 513 123.094 514.562 123.094C516.125 123.094 517.062 124.219 517.062 126.188ZM527.312 125.188C527.312 123.062 526.344 122 524.406 122C523.156 122 522.125 122.594 521.625 123.656L521.5 122.188H520.281C520.344 122.875 520.406 123.625 520.406 124.469V130.25H521.688V125.656C521.688 124.094 522.688 123.094 524.156 123.094C525.438 123.094 526.031 123.781 526.031 125.25V130.25H527.312V125.188ZM529.188 129.312C529.969 130 531.031 130.375 532.406 130.375C534.344 130.375 535.562 129.469 535.562 128.062C535.562 126.938 534.844 126.25 533.344 125.875L532 125.531C531.125 125.344 530.75 124.969 530.75 124.312C530.75 123.531 531.406 123.062 532.562 123.062C533.406 123.062 534.219 123.375 534.969 124L535.406 123.062C534.719 122.375 533.688 122 532.562 122C530.688 122 529.469 123 529.469 124.406C529.469 125.469 530.219 126.25 531.562 126.562L532.938 126.875C533.906 127.125 534.312 127.469 534.312 128.094C534.312 128.875 533.656 129.312 532.469 129.312C531.344 129.312 530.5 129.062 529.625 128.375L529.188 129.312Z" fill="white"/>
<path opacity="0.7" d="M451.719 92.25V87.25H454.938C457.281 87.25 458.688 86.0312 458.688 84.0312C458.688 82.0625 457.312 80.8438 454.938 80.8438H450.406V92.25H451.719ZM451.719 81.9375H454.844C456.531 81.9375 457.375 82.6875 457.375 84.0312C457.375 85.4062 456.531 86.1562 454.844 86.1562H451.719V81.9375ZM467.156 85.5938C466.656 84.5938 465.688 84 464.438 84C462.312 84 460.875 85.7188 460.875 88.2188C460.875 90.7188 462.281 92.375 464.438 92.375C465.688 92.375 466.688 91.8125 467.156 90.7812V92.25H468.438V84.1875H467.156V85.5938ZM467.156 88.1875C467.156 90.1562 466.281 91.2812 464.688 91.2812C463.094 91.2812 462.188 90.1875 462.188 88.2188C462.188 86.25 463.094 85.0938 464.688 85.0938C466.281 85.0938 467.156 86.1875 467.156 88.1875ZM474.938 84.0938C474.719 84.0312 474.469 84 474.219 84C473.062 84 472.094 84.5938 471.688 85.6875L471.562 84.1875H470.344C470.406 84.875 470.469 85.625 470.469 86.4688V92.25H471.75V87.6562C471.75 86.9688 471.969 86.375 472.312 85.9062C472.719 85.4062 473.281 85.1562 474.062 85.1562C474.375 85.1562 474.688 85.2188 474.906 85.2812L474.938 84.0938ZM481.344 84.1875H479.031V81.6875L477.75 82.125V84.1875H476.188V85.2188H477.75V89.8125C477.75 91.4688 478.656 92.375 480.188 92.375C480.594 92.375 480.969 92.3125 481.312 92.1875V91.0938C481.031 91.1875 480.75 91.25 480.438 91.25C479.562 91.25 479.031 90.8125 479.031 89.625V85.2188H481.344V84.1875ZM489.625 87.1875C489.625 85.0625 488.656 84 486.719 84C485.469 84 484.438 84.5938 483.938 85.6562L483.812 84.1875H482.594C482.656 84.875 482.719 85.625 482.719 86.4688V92.25H484V87.6562C484 86.0938 485 85.0938 486.469 85.0938C487.75 85.0938 488.344 85.7812 488.344 87.25V92.25H489.625V87.1875ZM498.719 87.9375C498.719 85.5 497.438 84 495.312 84C493.094 84 491.531 85.7188 491.531 88.1875C491.531 90.7812 493.031 92.375 495.562 92.375C496.688 92.375 497.875 91.9375 498.594 91.2812L498.156 90.3438C497.375 90.9688 496.5 91.2812 495.562 91.2812C493.781 91.2812 492.844 90.2188 492.844 88.1875H498.719V87.9375ZM492.875 87.3438C493.125 85.875 493.969 85.0312 495.312 85.0312C496.656 85.0312 497.438 85.8125 497.562 87.3438H492.875ZM505.219 84.0938C505 84.0312 504.75 84 504.5 84C503.344 84 502.375 84.5938 501.969 85.6875L501.844 84.1875H500.625C500.688 84.875 500.75 85.625 500.75 86.4688V92.25H502.031V87.6562C502.031 86.9688 502.25 86.375 502.594 85.9062C503 85.4062 503.562 85.1562 504.344 85.1562C504.656 85.1562 504.969 85.2188 505.188 85.2812L505.219 84.0938ZM507.094 91.3125C507.875 92 508.938 92.375 510.312 92.375C512.25 92.375 513.469 91.4688 513.469 90.0625C513.469 88.9375 512.75 88.25 511.25 87.875L509.906 87.5312C509.031 87.3438 508.656 86.9688 508.656 86.3125C508.656 85.5312 509.312 85.0625 510.469 85.0625C511.312 85.0625 512.125 85.375 512.875 86L513.312 85.0625C512.625 84.375 511.594 84 510.469 84C508.594 84 507.375 85 507.375 86.4062C507.375 87.4688 508.125 88.25 509.469 88.5625L510.844 88.875C511.812 89.125 512.219 89.4688 512.219 90.0938C512.219 90.875 511.562 91.3125 510.375 91.3125C509.25 91.3125 508.406 91.0625 507.531 90.375L507.094 91.3125Z" fill="white"/>
<path opacity="0.7" d="M451.406 156.844H450.406V168.25H451.625V159.094L458.531 168.25H459.531V156.844H458.281V166.031L451.406 156.844ZM468.906 163.938C468.906 161.5 467.625 160 465.5 160C463.281 160 461.719 161.719 461.719 164.188C461.719 166.781 463.219 168.375 465.75 168.375C466.875 168.375 468.062 167.938 468.781 167.281L468.344 166.344C467.562 166.969 466.688 167.281 465.75 167.281C463.969 167.281 463.031 166.219 463.031 164.188H468.906V163.938ZM463.062 163.344C463.312 161.875 464.156 161.031 465.5 161.031C466.844 161.031 467.625 161.812 467.75 163.344H463.062ZM477.25 160.188H476.094L473.75 166.688L471.469 160.188H470.125L473.094 168.25H474.344L476.625 161.969L478.938 168.25H480.188L483.156 160.188H481.875L479.562 166.719L477.25 160.188ZM484.344 167.312C485.125 168 486.188 168.375 487.562 168.375C489.5 168.375 490.719 167.469 490.719 166.062C490.719 164.938 490 164.25 488.5 163.875L487.156 163.531C486.281 163.344 485.906 162.969 485.906 162.312C485.906 161.531 486.562 161.062 487.719 161.062C488.562 161.062 489.375 161.375 490.125 162L490.562 161.062C489.875 160.375 488.844 160 487.719 160C485.844 160 484.625 161 484.625 162.406C484.625 163.469 485.375 164.25 486.719 164.562L488.094 164.875C489.062 165.125 489.469 165.469 489.469 166.094C489.469 166.875 488.812 167.312 487.625 167.312C486.5 167.312 485.656 167.062 484.781 166.375L484.344 167.312ZM494 156.469H492.719V168.25H494V156.469ZM503.219 163.938C503.219 161.5 501.938 160 499.812 160C497.594 160 496.031 161.719 496.031 164.188C496.031 166.781 497.531 168.375 500.062 168.375C501.188 168.375 502.375 167.938 503.094 167.281L502.656 166.344C501.875 166.969 501 167.281 500.062 167.281C498.281 167.281 497.344 166.219 497.344 164.188H503.219V163.938ZM497.375 163.344C497.625 161.875 498.469 161.031 499.812 161.031C501.156 161.031 501.938 161.812 502.062 163.344H497.375ZM509.281 160.188H506.969V157.688L505.688 158.125V160.188H504.125V161.219H505.688V165.812C505.688 167.469 506.594 168.375 508.125 168.375C508.531 168.375 508.906 168.312 509.25 168.188V167.094C508.969 167.188 508.688 167.25 508.375 167.25C507.5 167.25 506.969 166.812 506.969 165.625V161.219H509.281V160.188ZM514.688 160.188H512.375V157.688L511.094 158.125V160.188H509.531V161.219H511.094V165.812C511.094 167.469 512 168.375 513.531 168.375C513.938 168.375 514.312 168.312 514.656 168.188V167.094C514.375 167.188 514.094 167.25 513.781 167.25C512.906 167.25 512.375 166.812 512.375 165.625V161.219H514.688V160.188ZM522.781 163.938C522.781 161.5 521.5 160 519.375 160C517.156 160 515.594 161.719 515.594 164.188C515.594 166.781 517.094 168.375 519.625 168.375C520.75 168.375 521.938 167.938 522.656 167.281L522.219 166.344C521.438 166.969 520.562 167.281 519.625 167.281C517.844 167.281 516.906 166.219 516.906 164.188H522.781V163.938ZM516.938 163.344C517.188 161.875 518.031 161.031 519.375 161.031C520.719 161.031 521.5 161.812 521.625 163.344H516.938ZM529.281 160.094C529.062 160.031 528.812 160 528.562 160C527.406 160 526.438 160.594 526.031 161.688L525.906 160.188H524.688C524.75 160.875 524.812 161.625 524.812 162.469V168.25H526.094V163.656C526.094 162.969 526.312 162.375 526.656 161.906C527.062 161.406 527.625 161.156 528.406 161.156C528.719 161.156 529.031 161.219 529.25 161.281L529.281 160.094Z" fill="white"/>
<path opacity="0.7" d="M690 9.53125C690 13.125 692.031 15.375 695.281 15.375C696.844 15.375 698.188 14.9062 699.156 13.9375L698.656 12.9375C697.562 13.875 696.562 14.25 695.281 14.25C692.781 14.25 691.344 12.5312 691.344 9.53125C691.344 6.53125 692.781 4.875 695.281 4.875C696.562 4.875 697.562 5.21875 698.656 6.1875L699.156 5.15625C698.188 4.21875 696.844 3.71875 695.281 3.71875C692.031 3.71875 690 5.96875 690 9.53125ZM700.938 11.1875C700.938 13.7188 702.438 15.375 704.719 15.375C707.031 15.375 708.531 13.7188 708.531 11.1875C708.531 8.65625 707.031 7 704.719 7C702.438 7 700.938 8.65625 700.938 11.1875ZM707.219 11.1875C707.219 13.2188 706.344 14.2812 704.719 14.2812C703.125 14.2812 702.25 13.2188 702.25 11.1875C702.25 9.21875 703.156 8.09375 704.719 8.09375C706.281 8.09375 707.219 9.21875 707.219 11.1875ZM722.156 10.1875C722.156 8.0625 721.25 7 719.5 7C718.281 7 717.281 7.625 716.812 8.5625C716.406 7.5 715.625 7 714.344 7C713.156 7 712.25 7.59375 711.781 8.625L711.656 7.1875H710.438C710.5 7.875 710.562 8.625 710.562 9.46875V15.25H711.844V10.6562C711.844 9.0625 712.688 8.09375 714.062 8.09375C715.219 8.09375 715.719 8.78125 715.719 10.25V15.25H717.031V10.6562C717.031 9.0625 717.844 8.09375 719.188 8.09375C720.375 8.09375 720.875 8.75 720.875 10.25V15.25H722.156V10.1875ZM732.125 11.2188C732.125 8.71875 730.688 7 728.531 7C727.219 7 726.219 7.65625 725.75 8.75L725.625 7.1875H724.406C724.469 7.875 724.531 8.625 724.531 9.46875V18.7188H725.812V13.75C726.312 14.7812 727.281 15.375 728.531 15.375C730.688 15.375 732.125 13.7188 732.125 11.2188ZM730.781 11.2188C730.781 13.1875 729.875 14.2812 728.312 14.2812C726.719 14.2812 725.812 13.1562 725.812 11.1875C725.812 9.1875 726.719 8.09375 728.312 8.09375C729.844 8.09375 730.781 9.25 730.781 11.2188ZM740.312 8.59375C739.812 7.59375 738.844 7 737.594 7C735.469 7 734.031 8.71875 734.031 11.2188C734.031 13.7188 735.438 15.375 737.594 15.375C738.844 15.375 739.844 14.8125 740.312 13.7812V15.25H741.594V7.1875H740.312V8.59375ZM740.312 11.1875C740.312 13.1562 739.438 14.2812 737.844 14.2812C736.25 14.2812 735.344 13.1875 735.344 11.2188C735.344 9.25 736.25 8.09375 737.844 8.09375C739.438 8.09375 740.312 9.1875 740.312 11.1875ZM750.531 10.1875C750.531 8.0625 749.562 7 747.625 7C746.375 7 745.344 7.59375 744.844 8.65625L744.719 7.1875H743.5C743.562 7.875 743.625 8.625 743.625 9.46875V15.25H744.906V10.6562C744.906 9.09375 745.906 8.09375 747.375 8.09375C748.656 8.09375 749.25 8.78125 749.25 10.25V15.25H750.531V10.1875ZM755.938 13.8438L753.219 7.1875H751.844L755.25 15.1562L754.938 15.875C754.688 16.4688 754.344 16.9062 753.969 17.1875C753.562 17.4688 753 17.6875 752.25 17.875L752.531 18.875C754.25 18.5625 755.438 17.8125 756.219 16L759.969 7.1875H758.688L755.938 13.8438Z" fill="#964ECE"/>
<path opacity="0.7" d="M695.438 42.8438H694.281L689.281 54.25H690.656L691.906 51.3125H697.875L699.125 54.25H700.469L695.438 42.8438ZM697.406 50.2188H692.375L694.875 44.375L697.406 50.2188ZM709.594 50.1562C709.594 47.6562 708.156 46 706 46C704.75 46 703.75 46.5938 703.281 47.625V42.4688H702V54.25H703.281V52.75C703.781 53.7812 704.75 54.375 706 54.375C708.156 54.375 709.594 52.6562 709.594 50.1562ZM708.25 50.1562C708.25 52.125 707.312 53.2812 705.781 53.2812C704.188 53.2812 703.281 52.1562 703.281 50.1875C703.281 48.1875 704.188 47.0938 705.781 47.0938C707.344 47.0938 708.25 48.2188 708.25 50.1562ZM711.625 50.1875C711.625 52.7188 713.125 54.375 715.406 54.375C717.719 54.375 719.219 52.7188 719.219 50.1875C719.219 47.6562 717.719 46 715.406 46C713.125 46 711.625 47.6562 711.625 50.1875ZM717.906 50.1875C717.906 52.2188 717.031 53.2812 715.406 53.2812C713.812 53.2812 712.938 52.2188 712.938 50.1875C712.938 48.2188 713.844 47.0938 715.406 47.0938C716.969 47.0938 717.906 48.2188 717.906 50.1875ZM726.688 50.75C726.688 52.2812 725.719 53.2812 724.312 53.2812C723.094 53.2812 722.5 52.625 722.5 51.1562V46.1875H721.188V51.1875C721.188 53.2812 722.188 54.375 724.094 54.375C725.25 54.375 726.219 53.8438 726.719 52.8438V54.25H727.969V46.1875H726.688V50.75ZM734.438 46.1875H732.125V43.6875L730.844 44.125V46.1875H729.281V47.2188H730.844V51.8125C730.844 53.4688 731.75 54.375 733.281 54.375C733.688 54.375 734.062 54.3125 734.406 54.1875V53.0938C734.125 53.1875 733.844 53.25 733.531 53.25C732.656 53.25 732.125 52.8125 732.125 51.625V47.2188H734.438V46.1875Z" fill="white"/>
<path opacity="0.7" d="M697.906 126.406C697.594 125.531 697.125 125.094 696.469 125C697.938 124.562 698.75 123.5 698.75 122.031C698.75 119.969 697.375 118.844 694.938 118.844H690.406V130.25H691.719V125.281H694.562C695.656 125.281 696.219 125.531 696.562 126.469L697.969 130.25H699.344L697.906 126.406ZM691.719 119.938H694.812C696.625 119.938 697.438 120.625 697.438 122.031C697.438 123.469 696.562 124.188 694.812 124.188H691.719V119.938ZM707.812 123.594C707.312 122.594 706.344 122 705.094 122C702.969 122 701.531 123.719 701.531 126.219C701.531 128.719 702.938 130.375 705.094 130.375C706.344 130.375 707.344 129.812 707.812 128.781V130.25H709.094V122.188H707.812V123.594ZM707.812 126.188C707.812 128.156 706.938 129.281 705.344 129.281C703.75 129.281 702.844 128.188 702.844 126.219C702.844 124.25 703.75 123.094 705.344 123.094C706.938 123.094 707.812 124.188 707.812 126.188ZM718.031 125.188C718.031 123.062 717.062 122 715.125 122C713.875 122 712.844 122.594 712.344 123.656L712.219 122.188H711C711.062 122.875 711.125 123.625 711.125 124.469V130.25H712.406V125.656C712.406 124.094 713.406 123.094 714.875 123.094C716.156 123.094 716.75 123.781 716.75 125.25V130.25H718.031V125.188ZM727.125 122.219H725.5L721.688 125.906V118.469H720.406V130.25H721.688V126.375L725.844 130.25H727.531L723.094 126.062L727.125 122.219ZM731.469 120.25V118.781H729.906V120.25H731.469ZM731.312 122.188H730.031V130.25H731.312V122.188ZM740.75 125.188C740.75 123.062 739.781 122 737.844 122C736.594 122 735.562 122.594 735.062 123.656L734.938 122.188H733.719C733.781 122.875 733.844 123.625 733.844 124.469V130.25H735.125V125.656C735.125 124.094 736.125 123.094 737.594 123.094C738.875 123.094 739.469 123.781 739.469 125.25V130.25H740.75V125.188ZM749 123.594C748.5 122.594 747.531 122 746.25 122C744.094 122 742.656 123.625 742.656 126C742.656 128.406 744.094 130 746.25 130C747.531 130 748.5 129.406 749 128.406V130.312C749 131.906 748.219 132.75 746.656 132.75C745.562 132.75 744.75 132.5 743.719 131.938L743.5 133C744.375 133.531 745.438 133.812 746.656 133.812C749.031 133.812 750.281 132.562 750.281 130.188V122.188H749V123.594ZM749 126C749 127.812 748.062 128.938 746.5 128.938C744.906 128.938 743.969 127.812 743.969 126C743.969 124.188 744.906 123.094 746.5 123.094C748.062 123.094 749 124.188 749 126ZM751.812 129.312C752.594 130 753.656 130.375 755.031 130.375C756.969 130.375 758.188 129.469 758.188 128.062C758.188 126.938 757.469 126.25 755.969 125.875L754.625 125.531C753.75 125.344 753.375 124.969 753.375 124.312C753.375 123.531 754.031 123.062 755.188 123.062C756.031 123.062 756.844 123.375 757.594 124L758.031 123.062C757.344 122.375 756.312 122 755.188 122C753.312 122 752.094 123 752.094 124.406C752.094 125.469 752.844 126.25 754.188 126.562L755.562 126.875C756.531 127.125 756.938 127.469 756.938 128.094C756.938 128.875 756.281 129.312 755.094 129.312C753.969 129.312 753.125 129.062 752.25 128.375L751.812 129.312Z" fill="white"/>
<path opacity="0.7" d="M690 86.5312C690 90.125 692.031 92.375 695.281 92.375C696.844 92.375 698.188 91.9062 699.156 90.9375L698.656 89.9375C697.562 90.875 696.562 91.25 695.281 91.25C692.781 91.25 691.344 89.5312 691.344 86.5312C691.344 83.5312 692.781 81.875 695.281 81.875C696.562 81.875 697.562 82.2188 698.656 83.1875L699.156 82.1562C698.188 81.2188 696.844 80.7188 695.281 80.7188C692.031 80.7188 690 82.9688 690 86.5312ZM707.219 85.5938C706.719 84.5938 705.75 84 704.5 84C702.375 84 700.938 85.7188 700.938 88.2188C700.938 90.7188 702.344 92.375 704.5 92.375C705.75 92.375 706.75 91.8125 707.219 90.7812V92.25H708.5V84.1875H707.219V85.5938ZM707.219 88.1875C707.219 90.1562 706.344 91.2812 704.75 91.2812C703.156 91.2812 702.25 90.1875 702.25 88.2188C702.25 86.25 703.156 85.0938 704.75 85.0938C706.344 85.0938 707.219 86.1875 707.219 88.1875ZM715 84.0938C714.781 84.0312 714.531 84 714.281 84C713.125 84 712.156 84.5938 711.75 85.6875L711.625 84.1875H710.406C710.469 84.875 710.531 85.625 710.531 86.4688V92.25H711.812V87.6562C711.812 86.9688 712.031 86.375 712.375 85.9062C712.781 85.4062 713.344 85.1562 714.125 85.1562C714.438 85.1562 714.75 85.2188 714.969 85.2812L715 84.0938ZM724.094 87.9375C724.094 85.5 722.812 84 720.688 84C718.469 84 716.906 85.7188 716.906 88.1875C716.906 90.7812 718.406 92.375 720.938 92.375C722.062 92.375 723.25 91.9375 723.969 91.2812L723.531 90.3438C722.75 90.9688 721.875 91.2812 720.938 91.2812C719.156 91.2812 718.219 90.2188 718.219 88.1875H724.094V87.9375ZM718.25 87.3438C718.5 85.875 719.344 85.0312 720.688 85.0312C722.031 85.0312 722.812 85.8125 722.938 87.3438H718.25ZM732.844 87.9375C732.844 85.5 731.562 84 729.438 84C727.219 84 725.656 85.7188 725.656 88.1875C725.656 90.7812 727.156 92.375 729.688 92.375C730.812 92.375 732 91.9375 732.719 91.2812L732.281 90.3438C731.5 90.9688 730.625 91.2812 729.688 91.2812C727.906 91.2812 726.969 90.2188 726.969 88.1875H732.844V87.9375ZM727 87.3438C727.25 85.875 728.094 85.0312 729.438 85.0312C730.781 85.0312 731.562 85.8125 731.688 87.3438H727ZM739.344 84.0938C739.125 84.0312 738.875 84 738.625 84C737.469 84 736.5 84.5938 736.094 85.6875L735.969 84.1875H734.75C734.812 84.875 734.875 85.625 734.875 86.4688V92.25H736.156V87.6562C736.156 86.9688 736.375 86.375 736.719 85.9062C737.125 85.4062 737.688 85.1562 738.469 85.1562C738.781 85.1562 739.094 85.2188 739.312 85.2812L739.344 84.0938ZM741.219 91.3125C742 92 743.062 92.375 744.438 92.375C746.375 92.375 747.594 91.4688 747.594 90.0625C747.594 88.9375 746.875 88.25 745.375 87.875L744.031 87.5312C743.156 87.3438 742.781 86.9688 742.781 86.3125C742.781 85.5312 743.438 85.0625 744.594 85.0625C745.438 85.0625 746.25 85.375 747 86L747.438 85.0625C746.75 84.375 745.719 84 744.594 84C742.719 84 741.5 85 741.5 86.4062C741.5 87.4688 742.25 88.25 743.594 88.5625L744.969 88.875C745.938 89.125 746.344 89.4688 746.344 90.0938C746.344 90.875 745.688 91.3125 744.5 91.3125C743.375 91.3125 742.531 91.0625 741.656 90.375L741.219 91.3125Z" fill="white"/>
<path opacity="0.7" d="M695.438 156.844H694.281L689.281 168.25H690.656L691.906 165.312H697.875L699.125 168.25H700.469L695.438 156.844ZM697.406 164.219H692.375L694.875 158.375L697.406 164.219ZM701.531 164.219C701.531 166.719 703.031 168.375 705.375 168.375C706.469 168.375 707.594 167.969 708.281 167.312L707.844 166.375C707.031 167 706.281 167.281 705.5 167.281C703.844 167.281 702.875 166.156 702.875 164.219C702.875 162.25 703.844 161.094 705.5 161.094C706.281 161.094 707.031 161.375 707.844 162.031L708.281 161.062C707.625 160.406 706.531 160 705.438 160C703.062 160 701.531 161.719 701.531 164.219ZM714.344 160.188H712.031V157.688L710.75 158.125V160.188H709.188V161.219H710.75V165.812C710.75 167.469 711.656 168.375 713.188 168.375C713.594 168.375 713.969 168.312 714.312 168.188V167.094C714.031 167.188 713.75 167.25 713.438 167.25C712.562 167.25 712.031 166.812 712.031 165.625V161.219H714.344V160.188ZM717.156 158.25V156.781H715.594V158.25H717.156ZM717 160.188H715.719V168.25H717V160.188ZM719.844 160.219H718.469L721.906 168.25H723.125L726.594 160.219H725.312L722.562 166.844L719.844 160.219ZM729.469 158.25V156.781H727.906V158.25H729.469ZM729.312 160.188H728.031V168.25H729.312V160.188ZM735.875 160.188H733.562V157.688L732.281 158.125V160.188H730.719V161.219H732.281V165.812C732.281 167.469 733.188 168.375 734.719 168.375C735.125 168.375 735.5 168.312 735.844 168.188V167.094C735.562 167.188 735.281 167.25 734.969 167.25C734.094 167.25 733.562 166.812 733.562 165.625V161.219H735.875V160.188ZM740.281 166.844L737.562 160.188H736.188L739.594 168.156L739.281 168.875C739.031 169.469 738.688 169.906 738.312 170.188C737.906 170.469 737.344 170.688 736.594 170.875L736.875 171.875C738.594 171.562 739.781 170.812 740.562 169L744.312 160.188H743.031L740.281 166.844Z" fill="white"/>
</svg>
