<svg width="71" height="17" viewBox="0 0 71 17" fill="none" xmlns="http://www.w3.org/2000/svg">
<path d="M0 6.82816C0 10.8758 2.28778 13.4099 5.94824 13.4099C7.70807 13.4099 9.22153 12.882 10.3126 11.7909L9.74948 10.6646C8.5176 11.7205 7.3913 12.1429 5.94824 12.1429C3.13251 12.1429 1.51346 10.207 1.51346 6.82816C1.51346 3.44928 3.13251 1.58385 5.94824 1.58385C7.3913 1.58385 8.5176 1.97101 9.74948 3.06211L10.3126 1.90062C9.22153 0.84472 7.70807 0.281573 5.94824 0.281573C2.28778 0.281573 0 2.81573 0 6.82816ZM12.3188 8.69358C12.3188 11.5445 14.0083 13.4099 16.5776 13.4099C19.1822 13.4099 20.8716 11.5445 20.8716 8.69358C20.8716 5.84265 19.1822 3.97723 16.5776 3.97723C14.0083 3.97723 12.3188 5.84265 12.3188 8.69358ZM19.3934 8.69358C19.3934 10.9814 18.4079 12.1781 16.5776 12.1781C14.7826 12.1781 13.7971 10.9814 13.7971 8.69358C13.7971 6.47619 14.8178 5.20911 16.5776 5.20911C18.3375 5.20911 19.3934 6.47619 19.3934 8.69358ZM36.2174 7.56729C36.2174 5.17391 35.1967 3.97723 33.2257 3.97723C31.853 3.97723 30.7267 4.68116 30.1988 5.73706C29.7412 4.54037 28.8613 3.97723 27.4182 3.97723C26.0807 3.97723 25.06 4.64596 24.5321 5.80745L24.3913 4.18841H23.0186C23.089 4.96273 23.1594 5.80745 23.1594 6.75776V13.2692H24.6025V8.09524C24.6025 6.30021 25.5528 5.20911 27.1014 5.20911C28.4037 5.20911 28.9669 5.98344 28.9669 7.63768V13.2692H30.4451V8.09524C30.4451 6.30021 31.3602 5.20911 32.8737 5.20911C34.2112 5.20911 34.7743 5.94824 34.7743 7.63768V13.2692H36.2174V7.56729ZM51.9503 7.56729C51.9503 5.17391 50.9296 3.97723 48.9586 3.97723C47.5859 3.97723 46.4596 4.68116 45.9317 5.73706C45.4741 4.54037 44.5942 3.97723 43.1511 3.97723C41.8137 3.97723 40.793 4.64596 40.265 5.80745L40.1242 4.18841H38.7516C38.8219 4.96273 38.8923 5.80745 38.8923 6.75776V13.2692H40.3354V8.09524C40.3354 6.30021 41.2857 5.20911 42.8344 5.20911C44.1366 5.20911 44.6998 5.98344 44.6998 7.63768V13.2692H46.1781V8.09524C46.1781 6.30021 47.0932 5.20911 48.6066 5.20911C49.9441 5.20911 50.5072 5.94824 50.5072 7.63768V13.2692H51.9503V7.56729ZM70.7453 6.75776L68.8799 0L61.9462 1.83023L60.9255 3.59006L58.8137 3.55487L53.7453 8.4824L58.8137 13.4451L60.8903 13.4099L61.9462 15.1698L68.8799 17L70.7453 10.2422L69.6894 8.4824L70.7453 6.75776ZM61.0663 3.87164L66.381 2.53416L63.354 7.67288H57.2298L61.0663 3.87164ZM61.0663 13.1284L57.2298 9.32712H63.354L66.381 14.4658L61.0663 13.1284ZM67.8592 13.6211L64.8323 8.4824L67.8592 3.37888L69.3375 8.4824L67.8592 13.6211Z" fill="white"/>
</svg>
