<svg width="46" height="12" viewBox="0 0 46 12" fill="none" xmlns="http://www.w3.org/2000/svg">
<path d="M8.51442 11.1219C8.51442 11.6009 8.1153 11.9734 7.66297 11.9734H0.851442C0.372506 11.9734 0 11.6009 0 11.1219V0.904649C0 0.45232 0.372506 0.0798147 0.851442 0.0798147H7.66297C8.1153 0.0798147 8.51442 0.45232 8.51442 0.931256C8.51442 1.38358 8.1153 1.7827 7.66297 1.7827H1.70288V5.18846H5.96009C6.41242 5.18846 6.81153 5.56097 6.81153 6.0133C6.81153 6.49223 6.41242 6.89135 5.96009 6.89135H1.70288V10.2971H7.66297C8.1153 10.2705 8.51442 10.6696 8.51442 11.1219ZM20.4346 0.931256V11.1486C20.4346 11.6009 20.0355 12 19.5832 12C19.1042 12 18.7317 11.6009 18.7317 11.1486V3.72505L15.1663 9.04656C14.847 9.52549 14.0754 9.52549 13.7561 9.04656L10.2173 3.72505V11.1219C10.2173 11.6009 9.81819 11.9734 9.36586 11.9734C8.88692 11.9734 8.51442 11.6009 8.51442 11.1219V0.904649C8.51442 0.532143 8.75388 0.212852 9.09978 0.106422C9.47229 -7.89949e-06 9.84479 0.13303 10.0577 0.45232L14.4745 7.05099L18.8648 0.45232C19.0776 0.13303 19.4501 -7.89949e-06 19.8226 0.106422C20.1685 0.212852 20.4346 0.532143 20.4346 0.931256ZM28.949 11.1219C28.949 11.6009 28.5499 11.9734 28.0976 11.9734H21.286C20.8071 11.9734 20.4346 11.6009 20.4346 11.1219C20.4346 10.6696 20.8071 10.2705 21.286 10.2705H23.8404V1.75609H21.286C20.8071 1.75609 20.4346 1.38358 20.4346 0.904649C20.4346 0.45232 20.8071 0.0532072 21.286 0.0532072H28.0976C28.5499 0.0532072 28.949 0.45232 28.949 0.904649C28.949 1.38358 28.5499 1.75609 28.0976 1.75609H25.5432V10.2705H28.0976C28.5499 10.2705 28.949 10.6696 28.949 11.1219ZM37.4634 11.1219C37.4634 11.6009 37.0643 11.9734 36.612 11.9734H30.6519C30.173 11.9734 29.8005 11.6009 29.8005 11.1219V0.904649C29.8005 0.45232 30.173 0.0798147 30.6519 0.0798147C31.1042 0.0798147 31.5033 0.45232 31.5033 0.931256V10.2971H36.612C37.0643 10.2705 37.4634 10.6696 37.4634 11.1219ZM45.9778 11.1219C45.9778 11.6009 45.5787 11.9734 45.1264 11.9734H38.3149C37.8359 11.9734 37.4634 11.6009 37.4634 11.1219V0.904649C37.4634 0.45232 37.8359 0.0798147 38.3149 0.0798147H45.1264C45.5787 0.0798147 45.9778 0.45232 45.9778 0.931256C45.9778 1.38358 45.5787 1.7827 45.1264 1.7827H39.1663V5.18846H43.4235C43.8758 5.18846 44.275 5.56097 44.275 6.0133C44.275 6.49223 43.8758 6.89135 43.4235 6.89135H39.1663V10.2971H45.1264C45.5787 10.2705 45.9778 10.6696 45.9778 11.1219Z" fill="white"/>
</svg>
