<svg width="54" height="14" viewBox="0 0 54 14" fill="none" xmlns="http://www.w3.org/2000/svg">
<path d="M10.0261 0.457329L8.86515 0.42215L5.13616 11.1518L1.5127 0.42215H0L4.50293 13.2625H5.7342L9.42801 2.77915L13.0866 13.2625H14.3179L18.8208 0.42215H17.3433L13.6847 11.187L10.0261 0.457329ZM27.3694 5.76938C26.8065 4.64365 25.716 3.97524 24.3088 3.97524C21.9166 3.97524 20.2984 5.9101 20.2984 8.72443C20.2984 11.5388 21.8814 13.4033 24.3088 13.4033C25.716 13.4033 26.8417 12.77 27.3694 11.6091V13.2625H28.8117V4.18632H27.3694V5.76938ZM27.3694 8.68925C27.3694 10.9055 26.3844 12.172 24.5902 12.172C22.7961 12.172 21.7759 10.9407 21.7759 8.72443C21.7759 6.50814 22.7961 5.20651 24.5902 5.20651C26.3844 5.20651 27.3694 6.43779 27.3694 8.68925ZM32.5407 0H31.0984V13.2625H32.5407V0ZM36.7974 0H35.355V13.2625H36.7974V0ZM47.1752 8.40782C47.1752 5.66384 45.7329 3.97524 43.3407 3.97524C40.843 3.97524 39.084 5.9101 39.084 8.68925C39.084 11.6091 40.7726 13.4033 43.6221 13.4033C44.8886 13.4033 46.2254 12.9107 47.0345 12.172L46.542 11.1166C45.6625 11.8202 44.6775 12.172 43.6221 12.172C41.6169 12.172 40.5616 10.9759 40.5616 8.68925H47.1752V8.40782ZM40.5967 7.73941C40.8782 6.08599 41.828 5.13616 43.3407 5.13616C44.8534 5.13616 45.7329 6.01564 45.8736 7.73941H40.5967ZM54 4.18632H51.3967V1.37199L49.9544 1.8645V4.18632H48.1954V5.34723H49.9544V10.5186C49.9544 12.3831 50.9746 13.4033 52.6984 13.4033C53.1557 13.4033 53.5779 13.3329 53.9648 13.1922V11.9609C53.6482 12.0664 53.3316 12.1368 52.9798 12.1368C51.9948 12.1368 51.3967 11.6443 51.3967 10.3075V5.34723H54V4.18632Z" fill="white"/>
</svg>
