<svg width="162" height="24" viewBox="0 0 162 24" fill="none" xmlns="http://www.w3.org/2000/svg">
<path fill-rule="evenodd" clip-rule="evenodd" d="M16.0235 4.50341C17.8529 4.3766 19.267 5.44519 20.2076 6.67737C21.156 7.91976 21.8094 9.54336 22.1673 11.1394C22.5251 12.7347 22.6208 14.4504 22.3239 15.9123C22.0388 17.3161 21.2785 18.9223 19.5568 19.437C17.9375 19.9211 16.5179 19.2167 15.5052 18.3648C14.4894 17.5103 13.6292 16.3122 12.953 15.1885C12.6252 14.6438 12.3272 14.0938 12.0637 13.573C11.8001 14.0938 11.5021 14.6438 11.1743 15.1885C10.4981 16.3122 9.63792 17.5103 8.62209 18.3648C7.60941 19.2167 6.18982 19.9211 4.57048 19.437C2.84884 18.9223 2.08848 17.3161 1.80341 15.9123C1.50655 14.4504 1.60217 12.7347 1.95995 11.1394C2.31789 9.54336 2.97134 7.91976 3.91972 6.67737C4.86029 5.44519 6.27437 4.3766 8.10383 4.50341C9.81997 4.62238 11.0675 5.78649 11.8447 6.77187L12.0637 7.0609L12.2827 6.77187C13.0598 5.78649 14.3073 4.62238 16.0235 4.50341ZM7.89637 7.49623C7.47584 7.46708 6.92691 7.6821 6.30436 8.49766C5.68961 9.30301 5.17981 10.4913 4.88724 11.7959C4.59453 13.1011 4.5524 14.3747 4.74341 15.3153C4.90819 16.1268 5.17222 16.4174 5.33536 16.5187L5.40277 16.5532L5.42973 16.5627C5.6624 16.6322 6.04382 16.6134 6.69089 16.0691C7.33482 15.5274 7.99318 14.6564 8.60392 13.6416C8.87629 13.189 9.1286 12.7252 9.35565 12.2791L9.61563 11.7541L9.84936 11.2571L10.0548 10.7994L10.23 10.3919L10.373 10.0459C10.2165 9.73315 9.99218 9.32834 9.71032 8.92724C9.06612 8.01052 8.42073 7.53258 7.89637 7.49623ZM16.2309 7.49623C15.7066 7.53258 15.0612 8.01052 14.417 8.92724C14.1351 9.32834 13.9108 9.73315 13.7543 10.0459L13.981 10.5887L14.1716 11.0227C14.2058 11.099 14.2413 11.1773 14.278 11.2571L14.5117 11.7541L14.7717 12.2791C14.9987 12.7252 15.251 13.189 15.5234 13.6416C16.1341 14.6564 16.7925 15.5274 17.4364 16.0691C18.0373 16.5745 18.4091 16.6268 18.6454 16.5761L18.6976 16.5627C18.8279 16.5237 19.1811 16.3141 19.3839 15.3153C19.5749 14.3747 19.5328 13.1011 19.2401 11.7959C18.9475 10.4913 18.4377 9.30301 17.8229 8.49766C17.2004 7.6821 16.6515 7.46708 16.2309 7.49623Z" fill="#722EA9"/>
<path d="M62 3C64.7614 3 67 5.23858 67 8V16C67 18.7614 64.7614 21 62 21H54C51.2386 21 49 18.7614 49 16V8C49 5.23858 51.2386 3 54 3H62ZM58 8C55.7909 8 54 9.79086 54 12C54 14.2091 55.7909 16 58 16C60.2091 16 62 14.2091 62 12C62 9.79086 60.2091 8 58 8ZM58 10C59.1046 10 60 10.8954 60 12C60 13.1046 59.1046 14 58 14C56.8954 14 56 13.1046 56 12C56 10.8954 56.8954 10 58 10ZM62.5 6.5C61.9477 6.5 61.5 6.94772 61.5 7.5C61.5 8.05228 61.9477 8.5 62.5 8.5C63.0523 8.5 63.5 8.05228 63.5 7.5C63.5 6.94772 63.0523 6.5 62.5 6.5Z" fill="#722EA9"/>
<path fill-rule="evenodd" clip-rule="evenodd" d="M110 3C111.657 3 113 4.34315 113 6V18C113 19.6569 111.657 21 110 21H98C96.3432 21 95 19.6569 95 18V6C95 4.34315 96.3432 3 98 3H110ZM100 10C99.4477 10 99 10.4477 99 11V16C99 16.5523 99.4477 17 100 17C100.552 17 101 16.5523 101 16V11C101 10.4477 100.552 10 100 10ZM103 9C102.448 9 102 9.44772 102 10V16C102 16.5523 102.448 17 103 17C103.552 17 104 16.5523 104 16V12.3398C104.305 11.9955 104.821 11.5921 105.393 11.3472C105.726 11.2048 106.227 11.1479 106.575 11.2574C106.727 11.3053 106.814 11.3726 106.868 11.4451C106.92 11.5157 107 11.6707 107 12V16C107 16.5522 107.448 17 108 17C108.552 17 109 16.5522 109 16V12C109 11.3292 108.83 10.7342 108.476 10.2556C108.123 9.77907 107.648 9.4981 107.175 9.34949C106.273 9.06594 105.274 9.22295 104.607 9.50837C104.395 9.59892 104.186 9.70435 103.984 9.82128C103.9 9.35427 103.491 9 103 9ZM100 7C99.4477 7 99 7.44772 99 8C99 8.55228 99.4477 9 100 9C100.552 9 101 8.55228 101 8C101 7.44772 100.552 7 100 7Z" fill="#722EA9"/>
<path d="M142.594 4.98379C142.963 4.94076 143.325 5.10599 143.535 5.41282C145.011 7.57163 146.783 8.46969 148.749 8.67401C148.845 7.83282 149.072 7.00167 149.499 6.26991C150.125 5.19626 151.143 4.40582 152.597 4.11374C154.607 3.71014 156.137 4.43784 157.024 5.32905L158.816 4.99409C159.199 4.92255 159.588 5.07965 159.814 5.39673C160.04 5.71381 160.062 6.13321 159.869 6.47162L158.15 9.4937C158.306 13.8551 157.094 16.8988 154.51 18.9958C153.14 20.1081 151.178 20.739 149.025 20.9338C146.855 21.1301 144.402 20.8927 141.964 20.1807C141.536 20.0558 141.243 19.6629 141.244 19.2173C141.246 18.7716 141.542 18.3808 141.971 18.2589C143.197 17.9102 144.13 17.6087 144.974 17.0822C143.775 16.4459 142.892 15.6141 142.267 14.6658C141.399 13.3477 141.076 11.8783 141.013 10.553C140.949 9.22784 141.14 8.00048 141.342 7.11465C141.457 6.61039 141.591 6.10378 141.776 5.61983C141.91 5.27103 142.225 5.02683 142.594 4.98379Z" fill="#722EA9"/>
</svg>
