<svg width="46" height="12" viewBox="0 0 46 12" fill="none" xmlns="http://www.w3.org/2000/svg">
<path d="M8.51441 11.122C8.51441 11.6009 8.11529 11.9734 7.66297 11.9734H0.851441C0.372505 11.9734 0 11.6009 0 11.122V0.904663C0 0.452335 0.372505 0.0798293 0.851441 0.0798293H7.66297C8.11529 0.0798293 8.51441 0.452335 8.51441 0.93127C8.51441 1.3836 8.11529 1.78271 7.66297 1.78271H1.70288V5.18847H5.96009C6.41241 5.18847 6.81153 5.56098 6.81153 6.01331C6.81153 6.49224 6.41241 6.89136 5.96009 6.89136H1.70288V10.2971H7.66297C8.11529 10.2705 8.51441 10.6696 8.51441 11.122ZM20.4346 0.93127V11.1486C20.4346 11.6009 20.0355 12 19.5831 12C19.1042 12 18.7317 11.6009 18.7317 11.1486V3.72506L15.1663 9.04656C14.847 9.5255 14.0754 9.5255 13.7561 9.04656L10.2173 3.72506V11.122C10.2173 11.6009 9.81818 11.9734 9.36585 11.9734C8.88691 11.9734 8.51441 11.6009 8.51441 11.122V0.904663C8.51441 0.532157 8.75388 0.212867 9.09977 0.106437C9.47228 6.73812e-06 9.84478 0.133044 10.0576 0.452335L14.4745 7.051L18.8647 0.452335C19.0776 0.133044 19.4501 6.73812e-06 19.8226 0.106437C20.1685 0.212867 20.4346 0.532157 20.4346 0.93127ZM28.949 11.122C28.949 11.6009 28.5499 11.9734 28.0975 11.9734H21.286C20.8071 11.9734 20.4346 11.6009 20.4346 11.122C20.4346 10.6696 20.8071 10.2705 21.286 10.2705H23.8403V1.7561H21.286C20.8071 1.7561 20.4346 1.3836 20.4346 0.904663C20.4346 0.452335 20.8071 0.0532218 21.286 0.0532218H28.0975C28.5499 0.0532218 28.949 0.452335 28.949 0.904663C28.949 1.3836 28.5499 1.7561 28.0975 1.7561H25.5432V10.2705H28.0975C28.5499 10.2705 28.949 10.6696 28.949 11.122ZM37.4634 11.122C37.4634 11.6009 37.0643 11.9734 36.612 11.9734H30.6519C30.1729 11.9734 29.8004 11.6009 29.8004 11.122V0.904663C29.8004 0.452335 30.1729 0.0798293 30.6519 0.0798293C31.1042 0.0798293 31.5033 0.452335 31.5033 0.93127V10.2971H36.612C37.0643 10.2705 37.4634 10.6696 37.4634 11.122ZM45.9778 11.122C45.9778 11.6009 45.5787 11.9734 45.1264 11.9734H38.3148C37.8359 11.9734 37.4634 11.6009 37.4634 11.122V0.904663C37.4634 0.452335 37.8359 0.0798293 38.3148 0.0798293H45.1264C45.5787 0.0798293 45.9778 0.452335 45.9778 0.93127C45.9778 1.3836 45.5787 1.78271 45.1264 1.78271H39.1663V5.18847H43.4235C43.8758 5.18847 44.2749 5.56098 44.2749 6.01331C44.2749 6.49224 43.8758 6.89136 43.4235 6.89136H39.1663V10.2971H45.1264C45.5787 10.2705 45.9778 10.6696 45.9778 11.122Z" fill="white"/>
</svg>
