<svg width="785" height="781" viewBox="0 0 785 781" fill="none" xmlns="http://www.w3.org/2000/svg">
<g opacity="0.05">
<path opacity="0.0526316" d="M43.6985 636.393C60.8399 659.198 115.625 697.36 197.637 667.565C300.151 630.322 339.8 531.6 431.295 480.411C498.826 442.63 680.284 385.919 784.624 448.586" stroke="white" stroke-width="1.45842"/>
<path opacity="0.105263" d="M26.7914 588.584C41.4551 613.055 91.9516 656.735 176.628 635.676C282.474 609.352 332.224 515.316 428.569 473.971C499.679 443.456 686.071 406.023 783.29 479.253" stroke="white" stroke-width="1.45842"/>
<path opacity="0.157895" d="M14.0183 540.131C26.0436 566.001 71.6977 614.719 158.112 602.627C266.129 587.512 325.436 499.19 425.575 468.143C499.486 445.228 688.769 427.483 777.801 510.475" stroke="white" stroke-width="1.45842"/>
<path opacity="0.210526" d="M5.42372 491.467C14.6789 518.453 54.9905 571.676 142.195 568.683C251.201 564.941 319.415 483.303 422.251 462.894C498.151 447.83 688.253 449.968 768.122 541.811" stroke="white" stroke-width="1.45842"/>
<path opacity="0.263158" d="M1.008 443.033C7.39171 470.839 41.9191 527.984 128.959 534.123C237.759 541.796 314.133 467.735 418.539 458.187C495.598 451.139 684.434 473.136 754.266 572.824" stroke="white" stroke-width="1.45842"/>
<path opacity="0.315789" d="M0.723913 395.263C4.16619 423.584 32.5311 484.026 118.452 499.228C225.854 518.232 309.551 452.56 414.383 453.978C491.757 455.024 677.26 496.639 736.288 603.081" stroke="white" stroke-width="1.45842"/>
<path opacity="0.368421" d="M4.47837 348.585C4.94149 377.11 26.8331 440.186 110.695 464.287C215.522 494.413 305.625 437.85 409.734 450.217C486.575 459.345 666.711 520.123 714.29 632.151" stroke="white" stroke-width="1.45842"/>
<path opacity="0.421053" d="M12.1364 303.416C9.61528 331.833 24.7938 396.852 105.677 429.586C206.78 470.505 302.303 423.67 404.549 446.852C480.014 463.962 652.811 543.236 688.419 659.624" stroke="white" stroke-width="1.45842"/>
<path opacity="0.473684" d="M23.518 260.156C18.0403 288.154 26.3394 354.403 103.358 395.413C199.63 446.675 299.525 410.082 398.788 443.824C472.051 468.729 635.615 565.631 658.862 685.104" stroke="white" stroke-width="1.45842"/>
<path opacity="0.526316" d="M38.4035 219.182C30.0292 246.454 31.358 313.208 103.668 362.044C194.054 423.088 297.227 397.137 392.419 441.071C462.678 473.497 615.216 586.965 625.848 708.214" stroke="white" stroke-width="1.45842"/>
<path opacity="0.578947" d="M56.5348 180.848C45.3557 207.096 39.6996 273.622 106.508 329.749C190.019 399.908 295.339 384.883 385.417 438.526C451.902 478.119 591.744 606.91 589.644 728.605" stroke="white" stroke-width="1.45842"/>
<path opacity="0.631579" d="M77.6185 145.482C63.757 170.417 51.178 235.988 111.754 298.791C187.474 377.294 293.787 373.361 377.765 436.126C439.746 482.451 565.36 625.154 550.551 745.964" stroke="white" stroke-width="1.45842"/>
<path opacity="0.684211" d="M101.327 113.373C84.9353 136.723 65.5712 200.619 119.25 269.41C186.35 355.398 292.492 362.599 369.449 433.798C426.249 486.349 536.258 641.401 508.901 760" stroke="white" stroke-width="1.45842"/>
<path opacity="0.736842" d="M127.307 84.7778C108.564 106.286 82.627 167.809 128.822 241.833C186.565 334.364 291.373 352.621 360.466 431.474C411.462 489.674 504.661 655.375 465.057 770.465" stroke="white" stroke-width="1.45842"/>
<path opacity="0.789474" d="M155.179 59.9168C134.291 79.348 102.065 137.822 140.269 216.27C188.024 314.33 290.349 343.442 350.821 429.086C395.454 492.297 470.822 666.833 419.405 777.153" stroke="white" stroke-width="1.45842"/>
<path opacity="0.842105" d="M184.54 38.9645C161.735 56.1059 123.574 110.891 153.368 192.903C190.612 295.417 289.333 335.066 340.522 426.561C378.303 494.092 435.014 675.55 372.348 779.89" stroke="white" stroke-width="1.45842"/>
<path opacity="0.894737" d="M214.976 22.0572C190.504 36.7209 146.824 87.2174 167.883 171.894C194.207 277.74 288.244 327.49 329.588 423.835C360.103 494.945 397.536 681.337 324.306 778.556" stroke="white" stroke-width="1.45842"/>
<path opacity="0.947368" d="M246.055 9.28398C220.184 21.3093 171.466 66.9634 183.558 153.377C198.674 261.395 286.995 320.702 318.042 420.841C340.957 494.751 358.702 684.035 275.711 773.066" stroke="white" stroke-width="1.45842"/>
<path d="M277.345 0.689807C250.359 9.94502 197.135 50.2566 200.129 137.461C203.871 246.467 285.509 314.681 305.918 417.517C320.982 493.418 318.844 683.519 227.001 763.388" stroke="white" stroke-width="1.45842"/>
</g>
</svg>
