<svg width="71" height="14" viewBox="0 0 71 14" fill="none" xmlns="http://www.w3.org/2000/svg">
<path d="M4.29024 12.9059C8.40466 12.9059 10.7608 10.5849 10.7608 6.47053C10.7608 2.39128 8.40466 0.0703318 4.29024 0.0703318H0V12.9059H4.29024ZM1.47697 1.33631H4.21991C7.56067 1.33631 9.21347 3.05944 9.21347 6.47053C9.21347 9.91679 7.52551 11.6399 4.21991 11.6399H1.47697V1.33631ZM15.3675 1.6528V0H13.6092V1.6528H15.3675ZM15.1917 3.83309H13.7499V12.9059H15.1917V3.83309ZM17.4775 11.8509C18.3566 12.6246 19.5523 13.0466 21.0996 13.0466C23.2798 13.0466 24.6513 12.0267 24.6513 10.4443C24.6513 9.17831 23.8425 8.40466 22.1545 7.98266L20.6424 7.59584C19.6578 7.38484 19.2358 6.96285 19.2358 6.22437C19.2358 5.34522 19.9742 4.81773 21.2754 4.81773C22.2249 4.81773 23.1392 5.16939 23.9832 5.87271L24.4755 4.81773C23.7018 4.04408 22.5414 3.62209 21.2754 3.62209C19.1654 3.62209 17.794 4.7474 17.794 6.32987C17.794 7.52551 18.6379 8.40466 20.1501 8.75632L21.6974 9.10797C22.7875 9.3893 23.2447 9.77613 23.2447 10.4794C23.2447 11.3586 22.5062 11.8509 21.1699 11.8509C19.9039 11.8509 18.9544 11.5696 17.9698 10.7959L17.4775 11.8509ZM26.3744 8.36949C26.3744 11.1828 28.0624 13.0466 30.6999 13.0466C31.9307 13.0466 33.1966 12.5894 33.9703 11.8509L33.478 10.7959C32.5636 11.4993 31.7197 11.8158 30.8405 11.8158C28.9767 11.8158 27.8866 10.5498 27.8866 8.36949C27.8866 6.15404 28.9767 4.8529 30.8405 4.8529C31.7197 4.8529 32.5636 5.16939 33.478 5.90788L33.9703 4.81773C33.2318 4.07925 32.001 3.62209 30.7702 3.62209C28.0976 3.62209 26.3744 5.55622 26.3744 8.36949ZM35.7286 8.33432C35.7286 11.1828 37.4165 13.0466 39.9837 13.0466C42.5859 13.0466 44.2739 11.1828 44.2739 8.33432C44.2739 5.48588 42.5859 3.62209 39.9837 3.62209C37.4165 3.62209 35.7286 5.48588 35.7286 8.33432ZM42.7969 8.33432C42.7969 10.6201 41.8123 11.8158 39.9837 11.8158C38.1902 11.8158 37.2055 10.6201 37.2055 8.33432C37.2055 6.11887 38.2254 4.8529 39.9837 4.8529C41.742 4.8529 42.7969 6.11887 42.7969 8.33432ZM46.9113 3.86825H45.364L49.2323 12.9059H50.6038L54.5072 3.86825H53.0654L49.9708 11.3234L46.9113 3.86825ZM63.6855 8.053C63.6855 5.31005 62.2437 3.62209 59.8524 3.62209C57.3556 3.62209 55.5973 5.55622 55.5973 8.33432C55.5973 11.2531 57.2853 13.0466 60.1337 13.0466C61.3997 13.0466 62.736 12.5542 63.5448 11.8158L63.0525 10.7608C62.1734 11.4641 61.1887 11.8158 60.1337 11.8158C58.1293 11.8158 57.0743 10.6201 57.0743 8.33432H63.6855V8.053ZM57.1095 7.38484C57.3908 5.73205 58.3403 4.78257 59.8524 4.78257C61.3645 4.78257 62.2437 5.66171 62.3843 7.38484H57.1095ZM71 3.72759C70.7538 3.65726 70.4725 3.62209 70.1912 3.62209C68.89 3.62209 67.7999 4.29024 67.3427 5.52105L67.2021 3.83309H65.8306C65.9009 4.60674 65.9713 5.45072 65.9713 6.4002V12.9059H67.4131V7.7365C67.4131 6.96285 67.6592 6.2947 68.0461 5.76721C68.5032 5.20456 69.1362 4.92323 70.0154 4.92323C70.367 4.92323 70.7187 4.99356 70.9648 5.06389L71 3.72759Z" fill="white"/>
</svg>
